<?xml version="1.0" encoding="UTF-8"?>
<!DOCTYPE svg PUBLIC "-//W3C//DTD SVG 1.1//EN" "http://www.w3.org/Graphics/SVG/1.1/DTD/svg11.dtd">
<svg width="160mm" height="90mm" viewBox="0 0 16000 9000" version="1.1" baseProfile="tiny" xmlns="http://www.w3.org/2000/svg" stroke-width="28.222" stroke-linejoin="round" xml:space="preserve">
 <path fill="rgb(255,255,255)" stroke="none" d="M 8011,9005 L 0,9005 0,0 16022,0 16022,9005 8011,9005 Z"/>
 <path fill="rgb(0,69,134)" stroke="none" d="M 8011,2921 C 7701,2921 7393,2969 7098,3065 6804,3161 6526,3302 6275,3484 6025,3666 5804,3887 5622,4137 5440,4388 5299,4665 5203,4959 5107,5254 5059,5562 5059,5872 5059,6181 5107,6489 5203,6784 5299,7078 5440,7356 5622,7607 5804,7857 6025,8078 6275,8260 6526,8442 6804,8583 7098,8679 7393,8775 7701,8824 8010,8824 8319,8824 8627,8775 8922,8679 9216,8583 9494,8442 9745,8260 9995,8078 10216,7857 10398,7607 10580,7356 10721,7078 10817,6784 10913,6489 10962,6181 10962,5872 10962,5562 10913,5254 10817,4959 10721,4665 10580,4388 10398,4137 10309,4015 10211,3900 10104,3792 L 8011,5872 8011,5872 8011,5872 8011,5872 8011,5872 8011,5872 8011,5872 8011,5872 8011,5872 8011,5872 8011,5872 8011,5872 8011,5872 8011,5872 8011,5872 8011,5872 8011,5872 8011,5872 8011,5872 8011,2921 Z"/>
 <path fill="rgb(255,66,14)" stroke="none" d="M 10104,3792 C 9993,3680 9873,3577 9745,3484 9494,3302 9216,3161 8922,3065 8627,2969 8319,2921 8011,2921 L 8011,5872 8011,5872 8011,5872 8011,5872 10104,3792 Z"/>
 <text class="TextShape"><tspan class="TextParagraph" font-family="Liberation Sans" font-size="459px" font-weight="400"><tspan class="TextPosition" x="1462" y="851"/><tspan class="TextPosition" x="1462" y="851"><tspan fill="rgb(0,0,0)" stroke="none">CPU-usage of PRP-1 stack functions on client in Kernel-/Userspace</tspan></tspan></tspan></text>
 <text class="TextShape"><tspan class="TextParagraph" font-family="Liberation Sans" font-size="388px" font-weight="400"><tspan class="TextPosition" x="3592" y="1761"/><tspan class="TextPosition" x="3592" y="1761"><tspan fill="rgb(0,0,0)" stroke="none">While sending TCP-load with maximum packet size</tspan></tspan></tspan></text>
 <path fill="rgb(0,69,134)" stroke="none" d="M 5914,2547 L 5809,2547 5809,2336 6020,2336 6020,2547 5914,2547 Z"/>
 <path fill="rgb(255,66,14)" stroke="none" d="M 8364,2547 L 8258,2547 8258,2336 8469,2336 8469,2547 8364,2547 Z"/>
 <text class="TextShape"><tspan class="TextParagraph" font-family="Liberation Sans" font-size="353px" font-weight="400"><tspan class="TextPosition" x="6120" y="2561"/><tspan class="TextPosition" x="6120" y="2561"><tspan fill="rgb(0,0,0)" stroke="none">Kernelspace</tspan></tspan></tspan></text>
 <text class="TextShape"><tspan class="TextParagraph" font-family="Liberation Sans" font-size="353px" font-weight="400"><tspan class="TextPosition" x="8569" y="2561"/><tspan class="TextPosition" x="8569" y="2561"><tspan fill="rgb(0,0,0)" stroke="none">Userspace</tspan></tspan></tspan></text>
</svg>