<?xml version="1.0" encoding="UTF-8" standalone="no"?>
<svg
   xmlns:dc="http://purl.org/dc/elements/1.1/"
   xmlns:cc="http://creativecommons.org/ns#"
   xmlns:rdf="http://www.w3.org/1999/02/22-rdf-syntax-ns#"
   xmlns:svg="http://www.w3.org/2000/svg"
   xmlns="http://www.w3.org/2000/svg"
   xmlns:sodipodi="http://sodipodi.sourceforge.net/DTD/sodipodi-0.dtd"
   xmlns:inkscape="http://www.inkscape.org/namespaces/inkscape"
   fill-opacity="1"
   color-rendering="auto"
   color-interpolation="auto"
   stroke="black"
   text-rendering="auto"
   stroke-linecap="square"
   width="600"
   stroke-miterlimit="10"
   stroke-opacity="1"
   shape-rendering="auto"
   fill="black"
   stroke-dasharray="none"
   font-weight="normal"
   stroke-width="1"
   viewBox="-20 70 600 370"
   height="370"
   font-family="'Dialog'"
   font-style="normal"
   stroke-linejoin="miter"
   font-size="12"
   stroke-dashoffset="0"
   image-rendering="auto"
   id="svg5603"
   version="1.1"
   inkscape:version="0.91 r13725"
   sodipodi:docname="meas_overhead.svg">
  <metadata
     id="metadata5773">
    <rdf:RDF>
      <cc:Work
         rdf:about="">
        <dc:format>image/svg+xml</dc:format>
        <dc:type
           rdf:resource="http://purl.org/dc/dcmitype/StillImage" />
      </cc:Work>
    </rdf:RDF>
  </metadata>
  <sodipodi:namedview
     pagecolor="#ffffff"
     bordercolor="#666666"
     borderopacity="1"
     objecttolerance="10"
     gridtolerance="10"
     guidetolerance="10"
     inkscape:pageopacity="0"
     inkscape:pageshadow="2"
     inkscape:window-width="1280"
     inkscape:window-height="736"
     id="namedview5771"
     showgrid="false"
     inkscape:zoom="1.4594595"
     inkscape:cx="300"
     inkscape:cy="185"
     inkscape:window-x="0"
     inkscape:window-y="27"
     inkscape:window-maximized="1"
     inkscape:current-layer="svg5603" />
  <!--Generated by the Batik Graphics2D SVG Generator-->
  <defs
     id="genericDefs" />
  <g
     id="g5606">
    <defs
       id="defs1">
      <clipPath
         clipPathUnits="userSpaceOnUse"
         id="clipPath1">
        <path
           d="M0 0 L2147483647 0 L2147483647 2147483647 L0 2147483647 L0 0 Z"
           id="path5610" />
      </clipPath>
      <clipPath
         clipPathUnits="userSpaceOnUse"
         id="clipPath2">
        <path
           d="M0 0 L0 70 L140 70 L140 0 Z"
           id="path5613" />
      </clipPath>
      <clipPath
         clipPathUnits="userSpaceOnUse"
         id="clipPath3">
        <path
           d="M0 0 L0 70 L70 70 L70 0 Z"
           id="path5616" />
      </clipPath>
      <clipPath
         clipPathUnits="userSpaceOnUse"
         id="clipPath4">
        <path
           d="M0 0 L0 70 L300 70 L300 0 Z"
           id="path5619" />
      </clipPath>
      <clipPath
         clipPathUnits="userSpaceOnUse"
         id="clipPath5">
        <path
           d="M0 0 L0 70 L60 70 L60 0 Z"
           id="path5622" />
      </clipPath>
      <clipPath
         clipPathUnits="userSpaceOnUse"
         id="clipPath6">
        <path
           d="M0 0 L0 80 L50 80 L50 0 Z"
           id="path5625" />
      </clipPath>
      <clipPath
         clipPathUnits="userSpaceOnUse"
         id="clipPath7">
        <path
           d="M0 0 L0 70 L30 70 L30 0 Z"
           id="path5628" />
      </clipPath>
      <clipPath
         clipPathUnits="userSpaceOnUse"
         id="clipPath8">
        <path
           d="M0 0 L0 40 L560 40 L560 0 Z"
           id="path5631" />
      </clipPath>
    </defs>
    <g
       fill="rgb(255,255,255)"
       fill-opacity="0"
       transform="translate(410,350)"
       stroke-opacity="0"
       stroke="rgb(255,255,255)"
       id="g5633">
      <path
         d="M0.5 0.5 L128.5 0.5 L139 12.5 L139 69 L0.5 69 L0.5 0.5"
         clip-path="url(#clipPath2)"
         stroke="none"
         id="path5635" />
    </g>
    <g
       transform="translate(410,350)"
       id="g5637">
      <path
         fill="none"
         d="M0.5 0.5 L128.5 0.5 L139 12.5 L139 69 L0.5 69 L0.5 0.5"
         clip-path="url(#clipPath2)"
         id="path5639" />
      <path
         fill="none"
         d="M128.5 0.5 L128.5 12.5 L139 12.5"
         clip-path="url(#clipPath2)"
         id="path5641" />
      <g
         clip-path="url(#clipPath2)"
         style="font-size:14px;font-family:monospace;stroke:none"
         id="text5643">
        <path
           d="m 12.601563,13.966822 0,0.615234 -5.4482427,0 0,0.04102 q 0,1.250976 0.6494141,1.93457 0.65625,0.683594 1.8457031,0.683594 0.6015625,0 1.2578125,-0.191407 0.65625,-0.191406 1.401367,-0.581054 l 0,1.250976 q -0.717773,0.293946 -1.387695,0.4375 -0.663086,0.150391 -1.2851564,0.150391 -1.7841797,0 -2.7890625,-1.066406 -1.0048828,-1.073242 -1.0048828,-2.953125 0,-1.832032 0.984375,-2.925782 0.984375,-1.09375 2.625,-1.09375 1.4628907,0 2.3037107,0.991211 0.847657,0.991211 0.847657,2.707032 z M 11.34375,13.597681 q -0.02734,-1.107422 -0.526367,-1.681641 -0.492188,-0.581054 -1.4218752,-0.581054 -0.9091797,0 -1.4970703,0.601562 -0.5878906,0.601563 -0.6972656,1.667969 l 4.1425781,-0.0068 z"
           style="font-size:14px;font-family:monospace;stroke:none"
           id="path5776" />
        <path
           d="m 20.688477,7.472681 0,1.0458985 -1.428711,0 q -0.676758,0 -0.94336,0.2802734 -0.259765,0.2734375 -0.259765,0.9775391 l 0,0.676758 2.631836,0 0,0.977539 -2.631836,0 0,6.678711 -1.257813,0 0,-6.678711 -2.043945,0 0,-0.977539 2.043945,0 0,-0.5332033 q 0,-1.2578125 0.574219,-1.8525391 0.581055,-0.5947266 1.804687,-0.5947266 l 1.510743,0 z"
           style="font-size:14px;font-family:monospace;stroke:none"
           id="path5778" />
        <path
           d="m 29.110352,7.472681 0,1.0458985 -1.428711,0 q -0.676758,0 -0.94336,0.2802734 -0.259765,0.2734375 -0.259765,0.9775391 l 0,0.676758 2.631836,0 0,0.977539 -2.631836,0 0,6.678711 -1.257813,0 0,-6.678711 -2.043945,0 0,-0.977539 2.043945,0 0,-0.5332033 q 0,-1.2578125 0.574219,-1.8525391 0.581055,-0.5947266 1.804687,-0.5947266 l 1.510743,0 z"
           style="font-size:14px;font-family:monospace;stroke:none"
           id="path5780" />
        <path
           d="m 37.867187,13.966822 0,0.615234 -5.448242,0 0,0.04102 q 0,1.250976 0.649414,1.93457 0.65625,0.683594 1.845703,0.683594 0.601563,0 1.257813,-0.191407 0.65625,-0.191406 1.401367,-0.581054 l 0,1.250976 q -0.717773,0.293946 -1.387695,0.4375 -0.663086,0.150391 -1.285156,0.150391 -1.78418,0 -2.789063,-1.066406 -1.004883,-1.073242 -1.004883,-2.953125 0,-1.832032 0.984375,-2.925782 0.984375,-1.09375 2.625,-1.09375 1.462891,0 2.303711,0.991211 0.847656,0.991211 0.847656,2.707032 z m -1.257812,-0.369141 q -0.02734,-1.107422 -0.526367,-1.681641 -0.492188,-0.581054 -1.421875,-0.581054 -0.90918,0 -1.497071,0.601562 -0.58789,0.601563 -0.697265,1.667969 l 4.142578,-0.0068 z"
           style="font-size:14px;font-family:monospace;stroke:none"
           id="path5782" />
        <path
           d="m 45.94043,17.719751 q -0.50586,0.293946 -1.045899,0.4375 -0.533203,0.150391 -1.09375,0.150391 -1.777344,0 -2.782226,-1.066406 -0.998047,-1.066407 -0.998047,-2.953125 0,-1.886719 0.998047,-2.953125 1.004882,-1.066407 2.782226,-1.066407 0.553711,0 1.080078,0.143555 0.526368,0.143555 1.059571,0.444336 l 0,1.319336 q -0.499024,-0.444336 -1.004883,-0.642578 -0.499024,-0.198242 -1.134766,-0.198242 -1.182617,0 -1.818359,0.765625 -0.635742,0.765625 -0.635742,2.1875 0,1.415039 0.635742,2.1875 0.642578,0.765625 1.818359,0.765625 0.65625,0 1.175781,-0.198242 0.519532,-0.205079 0.963868,-0.628907 l 0,1.305664 z"
           style="font-size:14px;font-family:monospace;stroke:none"
           id="path5784" />
        <path
           d="m 51.306641,8.2793217 0,2.1738283 2.857421,0 0,0.977539 -2.857421,0 0,4.15625 q 0,0.847656 0.321289,1.182617 0.321289,0.334961 1.121093,0.334961 l 1.415039,0 0,1.004883 -1.538085,0 q -1.41504,0 -1.996094,-0.567383 -0.581055,-0.567383 -0.581055,-1.955078 l 0,-4.15625 -2.043945,0 0,-0.977539 2.043945,0 0,-2.1738283 1.257813,0 z"
           style="font-size:14px;font-family:monospace;stroke:none"
           id="path5786" />
        <path
           d="m 57.28125,10.45315 3.219727,0 0,6.678711 2.495117,0 0,0.977539 -6.248047,0 0,-0.977539 2.495117,0 0,-5.701172 -1.961914,0 0,-0.977539 z m 1.961914,-2.980469 1.257813,0 0,1.5927735 -1.257813,0 0,-1.5927735 z"
           style="font-size:14px;font-family:monospace;stroke:none"
           id="path5788" />
        <path
           d="m 64.636719,10.45315 1.305664,0 2.221679,6.425781 2.228516,-6.425781 1.305664,0 -2.720703,7.65625 -1.620117,0 -2.720703,-7.65625 z"
           style="font-size:14px;font-family:monospace;stroke:none"
           id="path5790" />
        <path
           d="m 79.976562,13.966822 0,0.615234 -5.448242,0 0,0.04102 q 0,1.250976 0.649414,1.93457 0.65625,0.683594 1.845703,0.683594 0.601563,0 1.257813,-0.191407 0.65625,-0.191406 1.401367,-0.581054 l 0,1.250976 q -0.717773,0.293946 -1.387695,0.4375 -0.663086,0.150391 -1.285156,0.150391 -1.78418,0 -2.789063,-1.066406 -1.004883,-1.073242 -1.004883,-2.953125 0,-1.832032 0.984375,-2.925782 0.984375,-1.09375 2.625,-1.09375 1.462891,0 2.303711,0.991211 0.847656,0.991211 0.847656,2.707032 z M 78.71875,13.597681 q -0.02734,-1.107422 -0.526367,-1.681641 -0.492188,-0.581054 -1.421875,-0.581054 -0.90918,0 -1.497071,0.601562 -0.58789,0.601563 -0.697265,1.667969 l 4.142578,-0.0068 z"
           style="font-size:14px;font-family:monospace;stroke:none"
           id="path5792" />
      </g>
      <g
         clip-path="url(#clipPath2)"
         style="font-size:14px;font-family:monospace;stroke:none"
         id="text5645">
        <path
           d="m 11.077148,24.012745 1.298829,0 -5.3730473,11.504883 -1.3056641,0 5.3798824,-11.504883 z"
           style="font-size:14px;font-family:monospace;stroke:none"
           id="path5795" />
        <path
           d="m 15.985352,33.254932 0,3.875977 -1.264649,0 0,-10.568359 1.264649,0 0,0.977539 q 0.314453,-0.567383 0.833984,-0.861328 0.526367,-0.300782 1.209961,-0.300782 1.387695,0 2.173828,1.073242 0.792969,1.073243 0.792969,2.973633 0,1.866211 -0.792969,2.932617 -0.792969,1.059571 -2.173828,1.059571 -0.697266,0 -1.223633,-0.293946 -0.519531,-0.300781 -0.820312,-0.868164 z m 3.691406,-2.857421 q 0,-1.462891 -0.464844,-2.208008 -0.458008,-0.745117 -1.367187,-0.745117 -0.916016,0 -1.387696,0.751953 -0.471679,0.745117 -0.471679,2.201172 0,1.449218 0.471679,2.201171 0.47168,0.751954 1.387696,0.751954 0.909179,0 1.367187,-0.745118 0.464844,-0.745117 0.464844,-2.208007 z"
           style="font-size:14px;font-family:monospace;stroke:none"
           id="path5797" />
        <path
           d="m 29.739258,28.141651 q -0.403321,-0.314453 -0.820313,-0.458008 -0.416992,-0.143554 -0.916015,-0.143554 -1.175782,0 -1.797852,0.738281 -0.62207,0.738281 -0.62207,2.132812 l 0,3.807618 -1.264649,0 0,-7.65625 1.264649,0 0,1.49707 q 0.314453,-0.813477 0.963867,-1.244141 0.65625,-0.4375 1.551758,-0.4375 0.464844,0 0.868164,0.116211 0.40332,0.116211 0.772461,0.362305 l 0,1.285156 z"
           style="font-size:14px;font-family:monospace;stroke:none"
           id="path5799" />
        <path
           d="m 34.476562,27.444386 q -0.957031,0 -1.449218,0.745117 -0.492188,0.745117 -0.492188,2.208008 0,1.456054 0.492188,2.208007 0.492187,0.745118 1.449218,0.745118 0.963868,0 1.456055,-0.745118 0.492188,-0.751953 0.492188,-2.208007 0,-1.462891 -0.492188,-2.208008 -0.492187,-0.745117 -1.456055,-0.745117 z m 0,-1.066407 q 1.592774,0 2.433594,1.032227 0.847656,1.032226 0.847656,2.987305 0,1.961914 -0.84082,2.99414 -0.84082,1.025391 -2.44043,1.025391 -1.592773,0 -2.433593,-1.025391 -0.840821,-1.032226 -0.840821,-2.99414 0,-1.955079 0.840821,-2.987305 0.84082,-1.032227 2.433593,-1.032227 z"
           style="font-size:14px;font-family:monospace;stroke:none"
           id="path5801" />
        <path
           d="m 45.94043,33.829151 q -0.50586,0.293945 -1.045899,0.4375 -0.533203,0.150391 -1.09375,0.150391 -1.777344,0 -2.782226,-1.066406 -0.998047,-1.066407 -0.998047,-2.953125 0,-1.886719 0.998047,-2.953125 1.004882,-1.066407 2.782226,-1.066407 0.553711,0 1.080078,0.143555 0.526368,0.143555 1.059571,0.444336 l 0,1.319336 q -0.499024,-0.444336 -1.004883,-0.642578 -0.499024,-0.198242 -1.134766,-0.198242 -1.182617,0 -1.818359,0.765625 -0.635742,0.765625 -0.635742,2.1875 0,1.415039 0.635742,2.1875 0.642578,0.765625 1.818359,0.765625 0.65625,0 1.175781,-0.198243 0.519532,-0.205078 0.963868,-0.628906 l 0,1.305664 z"
           style="font-size:14px;font-family:monospace;stroke:none"
           id="path5803" />
        <path
           d="m 49.542969,29.823292 3.561523,0 0,1.121094 -3.561523,0 0,-1.121094 z"
           style="font-size:14px;font-family:monospace;stroke:none"
           id="path5805" />
        <path
           d="m 63.426758,28.141651 q -0.403321,-0.314453 -0.820313,-0.458008 -0.416992,-0.143554 -0.916015,-0.143554 -1.175782,0 -1.797852,0.738281 -0.62207,0.738281 -0.62207,2.132812 l 0,3.807618 -1.264649,0 0,-7.65625 1.264649,0 0,1.49707 q 0.314453,-0.813477 0.963867,-1.244141 0.65625,-0.4375 1.551758,-0.4375 0.464844,0 0.868164,0.116211 0.40332,0.116211 0.772461,0.362305 l 0,1.285156 z"
           style="font-size:14px;font-family:monospace;stroke:none"
           id="path5807" />
        <path
           d="m 71.554687,30.076221 0,0.615235 -5.448242,0 0,0.04102 q 0,1.250977 0.649414,1.934571 0.65625,0.683594 1.845703,0.683594 0.601563,0 1.257813,-0.191407 0.65625,-0.191406 1.401367,-0.581054 l 0,1.250976 q -0.717773,0.293945 -1.387695,0.4375 -0.663086,0.150391 -1.285156,0.150391 -1.78418,0 -2.789063,-1.066406 -1.004883,-1.073243 -1.004883,-2.953125 0,-1.832032 0.984375,-2.925782 0.984375,-1.09375 2.625,-1.09375 1.462891,0 2.303711,0.991211 0.847656,0.991211 0.847656,2.707031 z m -1.257812,-0.36914 q -0.02734,-1.107422 -0.526367,-1.681641 -0.492188,-0.581054 -1.421875,-0.581054 -0.90918,0 -1.497071,0.601562 -0.58789,0.601563 -0.697265,1.667969 l 4.142578,-0.0068 z"
           style="font-size:14px;font-family:monospace;stroke:none"
           id="path5809" />
        <path
           d="m 77.173828,30.370167 -0.416992,0 q -1.100586,0 -1.661133,0.389648 -0.553711,0.382813 -0.553711,1.148438 0,0.690429 0.416992,1.073242 0.416993,0.382812 1.155274,0.382812 1.039062,0 1.633789,-0.717773 0.594726,-0.724609 0.601562,-1.996094 l 0,-0.280273 -1.175781,0 z m 2.44043,-0.519531 0,4.368164 -1.264649,0 0,-1.134766 q -0.40332,0.683594 -1.018554,1.011719 -0.608399,0.321289 -1.483399,0.321289 -1.168945,0 -1.866211,-0.65625 -0.697265,-0.663086 -0.697265,-1.770508 0,-1.27832 0.854492,-1.941406 Q 75,29.385792 76.661133,29.385792 l 1.688476,0 0,-0.198242 q -0.0068,-0.916016 -0.464843,-1.326172 -0.458008,-0.416992 -1.462891,-0.416992 -0.642578,0 -1.298828,0.18457 -0.65625,0.18457 -1.27832,0.540039 l 0,-1.257813 q 0.697265,-0.266601 1.333007,-0.396484 0.642578,-0.136719 1.244141,-0.136719 0.950195,0 1.620117,0.280274 0.676758,0.280273 1.09375,0.84082 0.259766,0.341797 0.369141,0.847656 0.109375,0.499024 0.109375,1.503907 z"
           style="font-size:14px;font-family:monospace;stroke:none"
           id="path5811" />
        <path
           d="m 86.662109,27.540089 0,-3.958008 1.257813,0 0,10.636719 -1.257813,0 0,-0.963868 q -0.314453,0.567383 -0.84082,0.868164 -0.519531,0.293946 -1.203125,0.293946 -1.387695,0 -2.1875,-1.073242 -0.792969,-1.080079 -0.792969,-2.973633 0,-1.866211 0.799805,-2.925781 0.799805,-1.066407 2.180664,-1.066407 0.69043,0 1.216797,0.300782 0.526367,0.293945 0.827148,0.861328 z m -3.698242,2.857422 q 0,1.46289 0.464844,2.208007 0.464844,0.745118 1.374023,0.745118 0.90918,0 1.38086,-0.751954 0.478515,-0.751953 0.478515,-2.201171 0,-1.456055 -0.478515,-2.201172 -0.47168,-0.751953 -1.38086,-0.751953 -0.909179,0 -1.374023,0.745117 -0.464844,0.745117 -0.464844,2.208008 z"
           style="font-size:14px;font-family:monospace;stroke:none"
           id="path5813" />
      </g>
    </g>
    <g
       fill="rgb(255,255,255)"
       fill-opacity="0"
       transform="translate(320,90)"
       stroke-opacity="0"
       stroke="rgb(255,255,255)"
       id="g5647">
      <path
         d="M0.5 0.5 L128.5 0.5 L139 12.5 L139 69 L0.5 69 L0.5 0.5"
         clip-path="url(#clipPath2)"
         stroke="none"
         id="path5649" />
    </g>
    <g
       transform="translate(320,90)"
       id="g5651">
      <path
         fill="none"
         d="M0.5 0.5 L128.5 0.5 L139 12.5 L139 69 L0.5 69 L0.5 0.5"
         clip-path="url(#clipPath2)"
         id="path5653" />
      <path
         fill="none"
         d="M128.5 0.5 L128.5 12.5 L139 12.5"
         clip-path="url(#clipPath2)"
         id="path5655" />
      <g
         clip-path="url(#clipPath2)"
         style="font-size:14px;font-family:monospace;stroke:none"
         id="text5657">
        <path
           d="m 11.651367,10.719751 0,1.230469 q -0.540039,-0.314453 -1.086914,-0.47168 -0.546875,-0.157226 -1.1142577,-0.157226 -0.8544922,0 -1.2783203,0.280273 -0.4169922,0.273438 -0.4169922,0.840821 0,0.512695 0.3144531,0.765625 0.3144532,0.252929 1.5654297,0.492187 l 0.5058594,0.0957 q 0.936523,0.177735 1.415039,0.710938 0.485352,0.533203 0.485352,1.387695 0,1.134766 -0.806641,1.777344 -0.806641,0.635742 -2.2421875,0.635742 -0.5673828,0 -1.1894531,-0.123047 -0.6220703,-0.116211 -1.3466797,-0.355469 l 0,-1.298828 q 0.7041015,0.362305 1.3466797,0.546875 0.6425781,0.177735 1.2167969,0.177735 0.8339843,0 1.2919917,-0.334961 0.458008,-0.341797 0.458008,-0.950196 0,-0.875 -1.6748044,-1.209961 l -0.054687,-0.01367 -0.4716797,-0.0957 Q 7.4814453,14.438501 6.9824219,13.939478 6.4833984,13.433619 6.4833984,12.565454 q 0,-1.100585 0.7451172,-1.695312 0.7451172,-0.601563 2.1259766,-0.601563 0.6152344,0 1.1826168,0.116211 0.567383,0.109375 1.114258,0.334961 z"
           style="font-size:14px;font-family:monospace;stroke:none"
           id="path5816" />
        <path
           d="m 20.606445,13.365259 0,4.744141 -1.264648,0 0,-4.744141 q 0,-1.032226 -0.362305,-1.517578 -0.362305,-0.485352 -1.134765,-0.485352 -0.881836,0 -1.360352,0.628907 -0.47168,0.62207 -0.47168,1.791015 l 0,4.327149 -1.257812,0 0,-10.636719 1.257812,0 0,4.128906 q 0.334961,-0.65625 0.90918,-0.991211 0.574219,-0.341797 1.360352,-0.341797 1.168945,0 1.743164,0.772461 0.581054,0.765625 0.581054,2.324219 z"
           style="font-size:14px;font-family:monospace;stroke:none"
           id="path5818" />
        <path
           d="m 26.054687,11.334986 q -0.957031,0 -1.449218,0.745117 -0.492188,0.745117 -0.492188,2.208008 0,1.456054 0.492188,2.208008 0.492187,0.745117 1.449218,0.745117 0.963868,0 1.456055,-0.745117 0.492188,-0.751954 0.492188,-2.208008 0,-1.462891 -0.492188,-2.208008 -0.492187,-0.745117 -1.456055,-0.745117 z m 0,-1.066407 q 1.592774,0 2.433594,1.032227 0.847656,1.032227 0.847656,2.987305 0,1.961914 -0.84082,2.99414 -0.84082,1.025391 -2.44043,1.025391 -1.592773,0 -2.433593,-1.025391 -0.840821,-1.032226 -0.840821,-2.99414 0,-1.955078 0.840821,-2.987305 0.84082,-1.032227 2.433593,-1.032227 z"
           style="font-size:14px;font-family:monospace;stroke:none"
           id="path5820" />
        <path
           d="m 31.598633,15.210962 0,-4.74414 1.257812,0 0,4.74414 q 0,1.032227 0.362305,1.517578 0.369141,0.485352 1.134766,0.485352 0.888671,0 1.360351,-0.62207 0.47168,-0.628907 0.47168,-1.797852 l 0,-4.327148 1.264648,0 0,7.642578 -1.264648,0 0,-1.148438 q -0.334961,0.663086 -0.916016,1.004883 -0.574219,0.341797 -1.346679,0.341797 -1.175782,0 -1.75,-0.765625 -0.574219,-0.772461 -0.574219,-2.331055 z"
           style="font-size:14px;font-family:monospace;stroke:none"
           id="path5822" />
        <path
           d="m 43.055664,15.334009 q 0,0.847656 0.307617,1.27832 0.314453,0.430665 0.922852,0.430665 l 1.469726,0 0,1.066406 -1.592773,0 q -1.12793,0 -1.75,-0.72461 -0.615234,-0.724609 -0.615234,-2.050781 l 0,-6.9521483 -2.016602,0 0,-0.984375 3.274414,0 0,7.9365233 z"
           style="font-size:14px;font-family:monospace;stroke:none"
           id="path5824" />
        <path
           d="m 52.974609,11.430689 0,-3.958008 1.257813,0 0,10.636719 -1.257813,0 0,-0.963867 q -0.314453,0.567382 -0.84082,0.868164 -0.519531,0.293945 -1.203125,0.293945 -1.387695,0 -2.1875,-1.073242 -0.792969,-1.080078 -0.792969,-2.973633 0,-1.866211 0.799805,-2.925781 0.799805,-1.066407 2.180664,-1.066407 0.69043,0 1.216797,0.300782 0.526367,0.293945 0.827148,0.861328 z m -3.698242,2.857422 q 0,1.46289 0.464844,2.208008 0.464844,0.745117 1.374023,0.745117 0.90918,0 1.38086,-0.751953 0.478515,-0.751954 0.478515,-2.201172 0,-1.456055 -0.478515,-2.201172 -0.47168,-0.751953 -1.38086,-0.751953 -0.909179,0 -1.374023,0.745117 -0.464844,0.745117 -0.464844,2.208008 z"
           style="font-size:14px;font-family:monospace;stroke:none"
           id="path5826" />
        <path
           d="m 71.848633,12.032251 q -0.403321,-0.314453 -0.820313,-0.458007 -0.416992,-0.143555 -0.916015,-0.143555 -1.175782,0 -1.797852,0.738281 -0.62207,0.738281 -0.62207,2.132813 l 0,3.807617 -1.264649,0 0,-7.65625 1.264649,0 0,1.49707 q 0.314453,-0.813476 0.963867,-1.244141 0.65625,-0.4375 1.551758,-0.4375 0.464844,0 0.868164,0.116211 0.40332,0.116211 0.772461,0.362305 l 0,1.285156 z"
           style="font-size:14px;font-family:monospace;stroke:none"
           id="path5828" />
        <path
           d="m 79.976562,13.966822 0,0.615234 -5.448242,0 0,0.04102 q 0,1.250976 0.649414,1.93457 0.65625,0.683594 1.845703,0.683594 0.601563,0 1.257813,-0.191407 0.65625,-0.191406 1.401367,-0.581054 l 0,1.250976 q -0.717773,0.293946 -1.387695,0.4375 -0.663086,0.150391 -1.285156,0.150391 -1.78418,0 -2.789063,-1.066406 -1.004883,-1.073242 -1.004883,-2.953125 0,-1.832032 0.984375,-2.925782 0.984375,-1.09375 2.625,-1.09375 1.462891,0 2.303711,0.991211 0.847656,0.991211 0.847656,2.707032 z M 78.71875,13.597681 q -0.02734,-1.107422 -0.526367,-1.681641 -0.492188,-0.581054 -1.421875,-0.581054 -0.90918,0 -1.497071,0.601562 -0.58789,0.601563 -0.697265,1.667969 l 4.142578,-0.0068 z"
           style="font-size:14px;font-family:monospace;stroke:none"
           id="path5830" />
        <path
           d="m 85.595703,14.260767 -0.416992,0 q -1.100586,0 -1.661133,0.389648 -0.553711,0.382813 -0.553711,1.148438 0,0.69043 0.416992,1.073242 0.416993,0.382813 1.155274,0.382813 1.039062,0 1.633789,-0.717774 0.594726,-0.724609 0.601562,-1.996094 l 0,-0.280273 -1.175781,0 z m 2.44043,-0.519531 0,4.368164 -1.264649,0 0,-1.134766 q -0.40332,0.683594 -1.018554,1.011719 -0.608399,0.321289 -1.483399,0.321289 -1.168945,0 -1.866211,-0.65625 -0.697265,-0.663086 -0.697265,-1.770508 0,-1.27832 0.854492,-1.941406 0.861328,-0.663086 2.522461,-0.663086 l 1.688476,0 0,-0.198242 q -0.0068,-0.916016 -0.464843,-1.326172 -0.458008,-0.416992 -1.462891,-0.416992 -0.642578,0 -1.298828,0.18457 -0.65625,0.18457 -1.27832,0.540039 l 0,-1.257812 q 0.697265,-0.266602 1.333007,-0.396485 0.642578,-0.136719 1.244141,-0.136719 0.950195,0 1.620117,0.280274 0.676758,0.280273 1.09375,0.84082 0.259766,0.341797 0.369141,0.847656 0.109375,0.499024 0.109375,1.503907 z"
           style="font-size:14px;font-family:monospace;stroke:none"
           id="path5832" />
        <path
           d="m 95.083984,11.430689 0,-3.958008 1.257813,0 0,10.636719 -1.257813,0 0,-0.963867 q -0.314453,0.567382 -0.84082,0.868164 -0.519531,0.293945 -1.203125,0.293945 -1.387695,0 -2.1875,-1.073242 -0.792969,-1.080078 -0.792969,-2.973633 0,-1.866211 0.799805,-2.925781 0.799805,-1.066407 2.180664,-1.066407 0.69043,0 1.216797,0.300782 0.526367,0.293945 0.827148,0.861328 z m -3.698242,2.857422 q 0,1.46289 0.464844,2.208008 0.464844,0.745117 1.374023,0.745117 0.90918,0 1.38086,-0.751953 0.478515,-0.751954 0.478515,-2.201172 0,-1.456055 -0.478515,-2.201172 -0.47168,-0.751953 -1.38086,-0.751953 -0.909179,0 -1.374023,0.745117 -0.464844,0.745117 -0.464844,2.208008 z"
           style="font-size:14px;font-family:monospace;stroke:none"
           id="path5834" />
      </g>
      <g
         clip-path="url(#clipPath2)"
         style="font-size:14px;font-family:monospace;stroke:none"
         id="text5659">
        <path
           d="m 12.601563,30.076221 0,0.615235 -5.4482427,0 0,0.04102 q 0,1.250977 0.6494141,1.934571 0.65625,0.683594 1.8457031,0.683594 0.6015625,0 1.2578125,-0.191407 0.65625,-0.191406 1.401367,-0.581054 l 0,1.250976 q -0.717773,0.293945 -1.387695,0.4375 -0.663086,0.150391 -1.2851564,0.150391 -1.7841797,0 -2.7890625,-1.066406 -1.0048828,-1.073243 -1.0048828,-2.953125 0,-1.832032 0.984375,-2.925782 0.984375,-1.09375 2.625,-1.09375 1.4628907,0 2.3037107,0.991211 0.847657,0.991211 0.847657,2.707031 z m -1.257813,-0.36914 q -0.02734,-1.107422 -0.526367,-1.681641 -0.492188,-0.581054 -1.4218752,-0.581054 -0.9091797,0 -1.4970703,0.601562 -0.5878906,0.601563 -0.6972656,1.667969 l 4.1425781,-0.0068 z"
           style="font-size:14px;font-family:monospace;stroke:none"
           id="path5837" />
        <path
           d="m 21.064453,26.56255 -2.741211,3.664062 3.007813,3.992188 -1.456055,0 -2.242188,-3.069336 -2.235351,3.069336 -1.456055,0 3.007813,-3.992188 -2.741211,-3.664062 1.394531,0 2.030273,2.768554 2.016602,-2.768554 1.415039,0 z"
           style="font-size:14px;font-family:monospace;stroke:none"
           id="path5839" />
        <path
           d="m 26.642578,30.370167 -0.416992,0 q -1.100586,0 -1.661133,0.389648 -0.553711,0.382813 -0.553711,1.148438 0,0.690429 0.416992,1.073242 0.416993,0.382812 1.155274,0.382812 1.039062,0 1.633789,-0.717773 0.594726,-0.724609 0.601562,-1.996094 l 0,-0.280273 -1.175781,0 z m 2.44043,-0.519531 0,4.368164 -1.264649,0 0,-1.134766 q -0.40332,0.683594 -1.018554,1.011719 -0.608399,0.321289 -1.483399,0.321289 -1.168945,0 -1.866211,-0.65625 -0.697265,-0.663086 -0.697265,-1.770508 0,-1.27832 0.854492,-1.941406 0.861328,-0.663086 2.522461,-0.663086 l 1.688476,0 0,-0.198242 q -0.0068,-0.916016 -0.464843,-1.326172 -0.458008,-0.416992 -1.462891,-0.416992 -0.642578,0 -1.298828,0.18457 -0.65625,0.18457 -1.27832,0.540039 l 0,-1.257813 q 0.697265,-0.266601 1.333007,-0.396484 0.642578,-0.136719 1.244141,-0.136719 0.950195,0 1.620117,0.280274 0.676758,0.280273 1.09375,0.84082 0.259766,0.341797 0.369141,0.847656 0.109375,0.499024 0.109375,1.503907 z"
           style="font-size:14px;font-family:monospace;stroke:none"
           id="path5841" />
        <path
           d="m 37.518555,33.829151 q -0.50586,0.293945 -1.045899,0.4375 -0.533203,0.150391 -1.09375,0.150391 -1.777344,0 -2.782226,-1.066406 -0.998047,-1.066407 -0.998047,-2.953125 0,-1.886719 0.998047,-2.953125 1.004882,-1.066407 2.782226,-1.066407 0.553711,0 1.080078,0.143555 0.526368,0.143555 1.059571,0.444336 l 0,1.319336 q -0.499024,-0.444336 -1.004883,-0.642578 -0.499024,-0.198242 -1.134766,-0.198242 -1.182617,0 -1.818359,0.765625 -0.635742,0.765625 -0.635742,2.1875 0,1.415039 0.635742,2.1875 0.642578,0.765625 1.818359,0.765625 0.65625,0 1.175781,-0.198243 0.519532,-0.205078 0.963868,-0.628906 l 0,1.305664 z"
           style="font-size:14px;font-family:monospace;stroke:none"
           id="path5843" />
        <path
           d="m 42.884766,24.388721 0,2.173829 2.857421,0 0,0.977539 -2.857421,0 0,4.15625 q 0,0.847656 0.321289,1.182617 0.321289,0.334961 1.121093,0.334961 l 1.415039,0 0,1.004883 -1.538085,0 q -1.41504,0 -1.996094,-0.567383 -0.581055,-0.567383 -0.581055,-1.955078 l 0,-4.15625 -2.043945,0 0,-0.977539 2.043945,0 0,-2.173829 1.257813,0 z"
           style="font-size:14px;font-family:monospace;stroke:none"
           id="path5845" />
        <path
           d="m 51.477539,31.443409 q 0,0.847656 0.307617,1.27832 0.314453,0.430664 0.922852,0.430664 l 1.469726,0 0,1.066407 -1.592773,0 q -1.12793,0 -1.75,-0.72461 -0.615234,-0.724609 -0.615234,-2.050781 l 0,-6.952148 -2.016602,0 0,-0.984375 3.274414,0 0,7.936523 z"
           style="font-size:14px;font-family:monospace;stroke:none"
           id="path5847" />
        <path
           d="m 61.396484,31.757862 q -0.314453,0.799805 -0.799804,2.105469 -0.676758,1.804687 -0.90918,2.201172 -0.314453,0.533203 -0.786133,0.799804 -0.47168,0.266602 -1.100586,0.266602 l -1.011719,0 0,-1.052734 0.745118,0 q 0.553711,0 0.868164,-0.321289 0.314453,-0.32129 0.799804,-1.661133 l -2.959961,-7.533203 1.333008,0 2.269532,5.988281 2.235351,-5.988281 1.333008,0 -2.016602,5.195312 z"
           style="font-size:14px;font-family:monospace;stroke:none"
           id="path5849" />
        <path
           d="m 79.55957,29.474659 0,4.744141 -1.264648,0 0,-4.744141 q 0,-1.032227 -0.362305,-1.517578 -0.362305,-0.485352 -1.134765,-0.485352 -0.881836,0 -1.360352,0.628907 -0.47168,0.62207 -0.47168,1.791015 l 0,4.327149 -1.257812,0 0,-10.636719 1.257812,0 0,4.128906 q 0.334961,-0.65625 0.90918,-0.991211 0.574219,-0.341797 1.360352,-0.341797 1.168945,0 1.743164,0.772461 0.581054,0.765625 0.581054,2.324219 z"
           style="font-size:14px;font-family:monospace;stroke:none"
           id="path5851" />
        <path
           d="m 88.398437,30.076221 0,0.615235 -5.448242,0 0,0.04102 q 0,1.250977 0.649414,1.934571 0.65625,0.683594 1.845703,0.683594 0.601563,0 1.257813,-0.191407 0.65625,-0.191406 1.401367,-0.581054 l 0,1.250976 q -0.717773,0.293945 -1.387695,0.4375 -0.663086,0.150391 -1.285156,0.150391 -1.78418,0 -2.789063,-1.066406 -1.004883,-1.073243 -1.004883,-2.953125 0,-1.832032 0.984375,-2.925782 0.984375,-1.09375 2.625,-1.09375 1.462891,0 2.303711,0.991211 0.847656,0.991211 0.847656,2.707031 z m -1.257812,-0.36914 q -0.02734,-1.107422 -0.526367,-1.681641 -0.492188,-0.581054 -1.421875,-0.581054 -0.90918,0 -1.497071,0.601562 -0.58789,0.601563 -0.697265,1.667969 l 4.142578,-0.0068 z"
           style="font-size:14px;font-family:monospace;stroke:none"
           id="path5853" />
        <path
           d="m 97.114258,28.141651 q -0.403321,-0.314453 -0.820313,-0.458008 -0.416992,-0.143554 -0.916015,-0.143554 -1.175782,0 -1.797852,0.738281 -0.62207,0.738281 -0.62207,2.132812 l 0,3.807618 -1.264649,0 0,-7.65625 1.264649,0 0,1.49707 q 0.314453,-0.813477 0.963867,-1.244141 0.65625,-0.4375 1.551758,-0.4375 0.464844,0 0.868164,0.116211 0.40332,0.116211 0.772461,0.362305 l 0,1.285156 z"
           style="font-size:14px;font-family:monospace;stroke:none"
           id="path5855" />
        <path
           d="m 105.24219,30.076221 0,0.615235 -5.448245,0 0,0.04102 q 0,1.250977 0.649415,1.934571 0.65625,0.683594 1.8457,0.683594 0.60157,0 1.25782,-0.191407 0.65625,-0.191406 1.40136,-0.581054 l 0,1.250976 q -0.71777,0.293945 -1.38769,0.4375 -0.66309,0.150391 -1.28516,0.150391 -1.78418,0 -2.789062,-1.066406 -1.004883,-1.073243 -1.004883,-2.953125 0,-1.832032 0.984375,-2.925782 0.98438,-1.09375 2.625,-1.09375 1.46289,0 2.30371,0.991211 0.84766,0.991211 0.84766,2.707031 z m -1.25781,-0.36914 q -0.0273,-1.107422 -0.52637,-1.681641 -0.49219,-0.581054 -1.42188,-0.581054 -0.90918,0 -1.49707,0.601562 -0.587888,0.601563 -0.697263,1.667969 l 4.142583,-0.0068 z"
           style="font-size:14px;font-family:monospace;stroke:none"
           id="path5857" />
      </g>
    </g>
    <g
       fill="rgb(255,0,0)"
       fill-opacity="0.4902"
       transform="translate(320,240)"
       stroke-opacity="0.4902"
       stroke="rgb(255,0,0)"
       id="g5661">
      <path
         style="stroke:none"
         clip-path="url(#clipPath3)"
         d="M 0.5,0.5 69,0.5 69,69 0.5,69 Z"
         id="rect5663" />
    </g>
    <g
       transform="translate(320,240)"
       id="g5665">
      <path
         style="fill:none"
         clip-path="url(#clipPath3)"
         d="M 0.5,0.5 69,0.5 69,69 0.5,69 Z"
         id="rect5667" />
      <g
         clip-path="url(#clipPath3)"
         style="font-weight:bold;font-size:14px;font-family:monospace;stroke:none"
         id="text5669">
        <path
           d="m 25.868164,28.674854 q -0.328125,-0.300781 -0.772461,-0.451172 -0.4375,-0.15039 -0.963867,-0.15039 -0.635742,0 -1.114258,0.225586 -0.47168,0.21875 -0.731445,0.642578 -0.164063,0.259765 -0.232422,0.628906 -0.06152,0.369141 -0.06152,1.121094 l 0,3.527344 -2.002929,0 0,-7.65625 2.002929,0 0,1.189453 q 0.293946,-0.65625 0.902344,-1.011719 0.608399,-0.362305 1.421875,-0.362305 0.410156,0 0.799805,0.102539 0.396484,0.0957 0.751953,0.28711 l 0,1.907226 z"
           style="font-weight:bold;font-size:14px;font-family:monospace;stroke:none"
           id="path5862" />
        <path
           d="m 33.955078,33.842823 q -0.697266,0.287109 -1.421875,0.430664 -0.724609,0.143555 -1.53125,0.143555 -1.920898,0 -2.939453,-1.025391 -1.011719,-1.032226 -1.011719,-2.966797 0,-1.873047 0.977539,-2.959961 0.977539,-1.086914 2.666016,-1.086914 1.702148,0 2.638672,1.011719 0.943359,1.004883 0.943359,2.836914 l 0,0.813477 -5.188476,0 q 0.0068,0.902343 0.533203,1.346679 0.526367,0.444336 1.572265,0.444336 0.69043,0 1.360352,-0.198242 0.669922,-0.198242 1.401367,-0.628906 l 0,1.838867 z m -1.695312,-4.306641 q -0.01367,-0.792968 -0.410157,-1.196289 -0.389648,-0.410156 -1.155273,-0.410156 -0.69043,0 -1.100586,0.423828 -0.410156,0.416992 -0.485352,1.189453 l 3.151368,-0.0068 z"
           style="font-weight:bold;font-size:14px;font-family:monospace;stroke:none"
           id="path5864" />
        <path
           d="m 39.628906,30.623096 q -1.121094,0 -1.565429,0.28711 -0.444336,0.287109 -0.444336,0.984375 0,0.519531 0.307617,0.827148 0.307617,0.307617 0.833984,0.307617 0.792969,0 1.230469,-0.594726 0.4375,-0.601563 0.4375,-1.674805 l 0,-0.136719 -0.799805,0 z m 2.789063,-0.77246 0,4.368164 -1.989258,0 0,-0.854493 q -0.362305,0.50586 -0.929688,0.779297 -0.567382,0.273438 -1.250976,0.273438 -1.305664,0 -2.03711,-0.69043 -0.724609,-0.69043 -0.724609,-1.927734 0,-1.339844 0.868164,-1.975586 0.868164,-0.642578 2.686524,-0.642578 l 1.387695,0 0,-0.334961 q 0,-0.485352 -0.355469,-0.731446 -0.348633,-0.252929 -1.032226,-0.252929 -0.717774,0 -1.394532,0.18457 -0.669922,0.177734 -1.401367,0.574219 l 0,-1.708985 q 0.663086,-0.273437 1.34668,-0.40332 0.683594,-0.129883 1.449219,-0.129883 1.866211,0 2.618164,0.758789 0.758789,0.758789 0.758789,2.713868 z"
           style="font-weight:bold;font-size:14px;font-family:monospace;stroke:none"
           id="path5866" />
        <path
           d="m 48.672852,27.649464 0,-4.067383 1.996093,0 0,10.636719 -1.996093,0 0,-1.134766 q -0.32129,0.663086 -0.833985,0.998047 -0.505859,0.334961 -1.196289,0.334961 -1.3125,0 -2.037109,-1.052735 -0.72461,-1.052734 -0.72461,-2.966796 0,-1.941407 0.731446,-2.980469 0.738281,-1.039063 2.098632,-1.039063 0.615235,0 1.100586,0.321289 0.492188,0.314453 0.861329,0.950196 z m -2.789063,2.761718 q 0,1.107422 0.369141,1.736329 0.36914,0.628906 1.018554,0.628906 0.649414,0 1.025391,-0.628906 0.375977,-0.628907 0.375977,-1.736329 0,-1.107421 -0.375977,-1.736328 -0.375977,-0.628906 -1.025391,-0.628906 -0.649414,0 -1.018554,0.628906 -0.369141,0.628907 -0.369141,1.736328 z"
           style="font-weight:bold;font-size:14px;font-family:monospace;stroke:none"
           id="path5868" />
      </g>
      <g
         clip-path="url(#clipPath3)"
         style="font-weight:bold;font-size:14px;font-family:monospace;stroke:none"
         id="text5671">
        <path
           d="m 5.2109375,44.114231 q -0.7177734,0 -1.1279297,0.635742 -0.4101562,0.628907 -0.4101562,1.756836 0,1.12793 0.4101562,1.763672 0.4101563,0.628906 1.1279297,0.628906 0.7246094,0 1.1347656,-0.628906 0.4101563,-0.635742 0.4101563,-1.763672 0,-1.127929 -0.4101563,-1.756836 -0.4101562,-0.635742 -1.1347656,-0.635742 z m -3.5410156,2.392578 q 0,-1.852539 0.9570312,-2.932617 0.9638672,-1.086914 2.5839844,-1.086914 1.6269531,0 2.5839844,1.086914 0.9638672,1.080078 0.9638672,2.932617 0,1.852539 -0.9638672,2.939453 -0.9570313,1.080078 -2.5839844,1.080078 -1.6201172,0 -2.5839844,-1.080078 -0.9570312,-1.086914 -0.9570312,-2.939453 z"
           style="font-weight:bold;font-size:14px;font-family:monospace;stroke:none"
           id="path5871" />
        <path
           d="m 17.303711,42.671848 -2.433594,7.65625 -2.467773,0 -2.433594,-7.65625 2.030273,0 1.63379,5.97461 1.640625,-5.97461 2.030273,0 z"
           style="font-weight:bold;font-size:14px;font-family:monospace;stroke:none"
           id="path5873" />
        <path
           d="m 25.376953,49.952122 q -0.697266,0.287109 -1.421875,0.430664 -0.724609,0.143554 -1.53125,0.143554 -1.920898,0 -2.939453,-1.02539 -1.011719,-1.032227 -1.011719,-2.966797 0,-1.873047 0.977539,-2.959961 0.977539,-1.086914 2.666016,-1.086914 1.702148,0 2.638672,1.011719 0.943359,1.004883 0.943359,2.836914 l 0,0.813476 -5.188476,0 q 0.0068,0.902344 0.533203,1.34668 0.526367,0.444336 1.572265,0.444336 0.69043,0 1.360352,-0.198242 0.669922,-0.198242 1.401367,-0.628906 l 0,1.838867 z m -1.695312,-4.306641 q -0.01367,-0.792969 -0.410157,-1.196289 -0.389648,-0.410156 -1.155273,-0.410156 -0.69043,0 -1.100586,0.423828 -0.410156,0.416992 -0.485352,1.189453 l 3.151368,-0.0068 z"
           style="font-weight:bold;font-size:14px;font-family:monospace;stroke:none"
           id="path5875" />
        <path
           d="m 34.133789,44.784153 q -0.328125,-0.300781 -0.772461,-0.451172 -0.4375,-0.150391 -0.963867,-0.150391 -0.635742,0 -1.114258,0.225586 -0.47168,0.21875 -0.731445,0.642579 -0.164063,0.259765 -0.232422,0.628906 -0.06152,0.36914 -0.06152,1.121094 l 0,3.527343 -2.002929,0 0,-7.65625 2.002929,0 0,1.189453 q 0.293946,-0.65625 0.902344,-1.011718 0.608399,-0.362305 1.421875,-0.362305 0.410156,0 0.799805,0.102539 0.396484,0.0957 0.751953,0.287109 l 0,1.907227 z"
           style="font-weight:bold;font-size:14px;font-family:monospace;stroke:none"
           id="path5877" />
        <path
           d="m 42.008789,45.358372 0,4.969726 -1.989258,0 0,-4.662109 q 0,-0.827149 -0.239258,-1.182617 -0.232421,-0.355469 -0.765625,-0.355469 -0.546875,0 -0.854492,0.485352 -0.307617,0.478515 -0.307617,1.333007 l 0,4.381836 -1.989258,0 0,-10.636718 1.989258,0 0,4.128906 q 0.211914,-0.635742 0.724609,-0.984375 0.512696,-0.348633 1.237305,-0.348633 1.086914,0 1.640625,0.724609 0.553711,0.717774 0.553711,2.146485 z"
           style="font-weight:bold;font-size:14px;font-family:monospace;stroke:none"
           id="path5879" />
        <path
           d="m 50.642578,49.952122 q -0.697266,0.287109 -1.421875,0.430664 -0.724609,0.143554 -1.53125,0.143554 -1.920898,0 -2.939453,-1.02539 -1.011719,-1.032227 -1.011719,-2.966797 0,-1.873047 0.977539,-2.959961 0.977539,-1.086914 2.666016,-1.086914 1.702148,0 2.638672,1.011719 0.943359,1.004883 0.943359,2.836914 l 0,0.813476 -5.188476,0 q 0.0068,0.902344 0.533203,1.34668 0.526367,0.444336 1.572265,0.444336 0.69043,0 1.360352,-0.198242 0.669922,-0.198242 1.401367,-0.628906 l 0,1.838867 z m -1.695312,-4.306641 q -0.01367,-0.792969 -0.410157,-1.196289 -0.389648,-0.410156 -1.155273,-0.410156 -0.69043,0 -1.100586,0.423828 -0.410156,0.416992 -0.485352,1.189453 l 3.151368,-0.0068 z"
           style="font-weight:bold;font-size:14px;font-family:monospace;stroke:none"
           id="path5881" />
        <path
           d="m 56.316406,46.732395 q -1.121094,0 -1.565429,0.28711 -0.444336,0.287109 -0.444336,0.984375 0,0.519531 0.307617,0.827148 0.307617,0.307617 0.833984,0.307617 0.792969,0 1.230469,-0.594726 0.4375,-0.601563 0.4375,-1.674805 l 0,-0.136719 -0.799805,0 z m 2.789063,-0.772461 0,4.368164 -1.989258,0 0,-0.854492 q -0.362305,0.505859 -0.929688,0.779297 -0.567382,0.273437 -1.250976,0.273437 -1.305664,0 -2.03711,-0.690429 -0.724609,-0.69043 -0.724609,-1.927735 0,-1.339843 0.868164,-1.975586 0.868164,-0.642578 2.686524,-0.642578 l 1.387695,0 0,-0.334961 q 0,-0.485351 -0.355469,-0.731445 -0.348633,-0.25293 -1.032226,-0.25293 -0.717774,0 -1.394532,0.184571 -0.669922,0.177734 -1.401367,0.574218 l 0,-1.708984 q 0.663086,-0.273437 1.34668,-0.40332 0.683594,-0.129883 1.449219,-0.129883 1.866211,0 2.618164,0.758789 0.758789,0.758789 0.758789,2.713867 z"
           style="font-weight:bold;font-size:14px;font-family:monospace;stroke:none"
           id="path5883" />
        <path
           d="m 65.360352,43.758762 0,-4.067382 1.996093,0 0,10.636718 -1.996093,0 0,-1.134765 q -0.32129,0.663086 -0.833985,0.998047 -0.505859,0.33496 -1.196289,0.33496 -1.3125,0 -2.037109,-1.052734 -0.72461,-1.052734 -0.72461,-2.966797 0,-1.941406 0.731446,-2.980469 0.738281,-1.039062 2.098632,-1.039062 0.615235,0 1.100586,0.321289 0.492188,0.314453 0.861329,0.950195 z m -2.789063,2.761719 q 0,1.107422 0.369141,1.736328 0.36914,0.628906 1.018554,0.628906 0.649414,0 1.025391,-0.628906 0.375977,-0.628906 0.375977,-1.736328 0,-1.107422 -0.375977,-1.736328 -0.375977,-0.628906 -1.025391,-0.628906 -0.649414,0 -1.018554,0.628906 -0.369141,0.628906 -0.369141,1.736328 z"
           style="font-weight:bold;font-size:14px;font-family:monospace;stroke:none"
           id="path5885" />
      </g>
    </g>
    <g
       fill="rgb(0,255,0)"
       fill-opacity="0.4902"
       transform="translate(20,240)"
       stroke-opacity="0.4902"
       stroke="rgb(0,255,0)"
       id="g5673">
      <path
         style="stroke:none"
         clip-path="url(#clipPath4)"
         d="M 0.5,0.5 299,0.5 299,69 0.5,69 Z"
         id="rect5675" />
    </g>
    <g
       transform="translate(20,240)"
       id="g5677">
      <path
         style="fill:none"
         clip-path="url(#clipPath4)"
         d="M 0.5,0.5 299,0.5 299,69 0.5,69 Z"
         id="rect5679" />
      <g
         clip-path="url(#clipPath4)"
         style="font-weight:bold;font-size:14px;font-family:monospace;stroke:none"
         id="text5681">
        <path
           d="m 69.716797,43.437473 q 0.225586,-0.485351 0.574219,-0.717773 0.348632,-0.232422 0.854492,-0.232422 0.991211,0 1.367187,0.683594 0.382813,0.683593 0.382813,2.84375 l 0,4.313476 -1.640625,0 0,-4.915039 q 0,-0.854492 -0.129883,-1.141601 -0.129883,-0.28711 -0.47168,-0.28711 -0.341797,0 -0.478515,0.293946 -0.136719,0.293945 -0.136719,1.134765 l 0,4.915039 -1.620117,0 0,-4.915039 q 0,-0.84082 -0.136719,-1.134765 -0.136719,-0.293946 -0.478516,-0.293946 -0.341797,0 -0.471679,0.28711 -0.129883,0.287109 -0.129883,1.141601 l 0,4.915039 -1.640625,0 0,-7.65625 1.456055,0 0,0.792969 q 0.170898,-0.451172 0.546875,-0.710937 0.375976,-0.266602 0.84082,-0.266602 0.464844,0 0.847656,0.280273 0.382813,0.273438 0.464844,0.669922 z"
           style="font-weight:bold;font-size:14px;font-family:monospace;stroke:none"
           id="path5890" />
        <path
           d="m 80.955078,49.952122 q -0.697266,0.287109 -1.421875,0.430664 -0.724609,0.143554 -1.53125,0.143554 -1.920898,0 -2.939453,-1.02539 -1.011719,-1.032227 -1.011719,-2.966797 0,-1.873047 0.977539,-2.959961 0.977539,-1.086914 2.666016,-1.086914 1.702148,0 2.638672,1.011719 0.943359,1.004883 0.943359,2.836914 l 0,0.813476 -5.188476,0 q 0.0068,0.902344 0.533203,1.34668 0.526367,0.444336 1.572265,0.444336 0.69043,0 1.360352,-0.198242 0.669922,-0.198242 1.401367,-0.628906 l 0,1.838867 z m -1.695312,-4.306641 q -0.01367,-0.792969 -0.410157,-1.196289 -0.389648,-0.410156 -1.155273,-0.410156 -0.69043,0 -1.100586,0.423828 -0.410156,0.416992 -0.485352,1.189453 l 3.151368,-0.0068 z"
           style="font-weight:bold;font-size:14px;font-family:monospace;stroke:none"
           id="path5892" />
        <path
           d="m 86.628906,46.732395 q -1.121094,0 -1.565429,0.28711 -0.444336,0.287109 -0.444336,0.984375 0,0.519531 0.307617,0.827148 0.307617,0.307617 0.833984,0.307617 0.792969,0 1.230469,-0.594726 0.4375,-0.601563 0.4375,-1.674805 l 0,-0.136719 -0.799805,0 z m 2.789063,-0.772461 0,4.368164 -1.989258,0 0,-0.854492 q -0.362305,0.505859 -0.929688,0.779297 -0.567382,0.273437 -1.250976,0.273437 -1.305664,0 -2.03711,-0.690429 -0.724609,-0.69043 -0.724609,-1.927735 0,-1.339843 0.868164,-1.975586 0.868164,-0.642578 2.686524,-0.642578 l 1.387695,0 0,-0.334961 q 0,-0.485351 -0.355469,-0.731445 -0.348633,-0.25293 -1.032226,-0.25293 -0.717774,0 -1.394532,0.184571 -0.669922,0.177734 -1.401367,0.574218 l 0,-1.708984 q 0.663086,-0.273437 1.34668,-0.40332 0.683594,-0.129883 1.449219,-0.129883 1.866211,0 2.618164,0.758789 0.758789,0.758789 0.758789,2.713867 z"
           style="font-weight:bold;font-size:14px;font-family:monospace;stroke:none"
           id="path5894" />
        <path
           d="m 97.040039,42.911106 0,1.75 q -0.553711,-0.355469 -1.155273,-0.533203 -0.594727,-0.18457 -1.196289,-0.18457 -0.669922,0 -1.011719,0.198242 -0.341797,0.191406 -0.341797,0.574219 0,0.546875 1.462891,0.888671 l 0.07519,0.02051 0.574219,0.136719 q 1.09375,0.259766 1.599609,0.84082 0.512695,0.574219 0.512695,1.558594 0,1.182617 -0.779297,1.777344 -0.772461,0.58789 -2.331054,0.58789 -0.69043,0 -1.415039,-0.123046 -0.72461,-0.116211 -1.469727,-0.355469 l 0,-1.75 q 0.663086,0.375976 1.34668,0.574219 0.690429,0.198242 1.333008,0.198242 0.704101,0 1.066406,-0.205078 0.362305,-0.205078 0.362305,-0.594727 0,-0.382812 -0.259766,-0.587891 -0.25293,-0.205078 -1.216797,-0.4375 l -0.553711,-0.123046 q -1.148437,-0.259766 -1.674805,-0.813477 -0.526367,-0.553711 -0.526367,-1.483398 0,-1.107422 0.799805,-1.722657 0.799805,-0.615234 2.249023,-0.615234 0.649414,0 1.291993,0.109375 0.649414,0.102539 1.257812,0.314453 z"
           style="font-weight:bold;font-size:14px;font-family:monospace;stroke:none"
           id="path5896" />
        <path
           d="m 99.78125,47.655247 0,-4.983399 2.00293,0 0,4.675782 q 0,0.827148 0.23242,1.182617 0.23242,0.355468 0.77246,0.355468 0.54004,0 0.84082,-0.478515 0.30762,-0.478516 0.30762,-1.339844 l 0,-4.395508 2.00293,0 0,7.65625 -2.00293,0 0,-1.134765 q -0.21191,0.635742 -0.72461,0.984375 -0.50586,0.348632 -1.22363,0.348632 -1.09375,0 -1.6543,-0.724609 -0.55371,-0.724609 -0.55371,-2.146484 z"
           style="font-weight:bold;font-size:14px;font-family:monospace;stroke:none"
           id="path5898" />
        <path
           d="m 114.97754,44.784153 q -0.32813,-0.300781 -0.77246,-0.451172 -0.4375,-0.150391 -0.96387,-0.150391 -0.63574,0 -1.11426,0.225586 -0.47168,0.21875 -0.73144,0.642579 -0.16406,0.259765 -0.23242,0.628906 -0.0615,0.36914 -0.0615,1.121094 l 0,3.527343 -2.00293,0 0,-7.65625 2.00293,0 0,1.189453 q 0.29395,-0.65625 0.90235,-1.011718 0.60839,-0.362305 1.42187,-0.362305 0.41016,0 0.79981,0.102539 0.39648,0.0957 0.75195,0.287109 l 0,1.907227 z"
           style="font-weight:bold;font-size:14px;font-family:monospace;stroke:none"
           id="path5900" />
        <path
           d="m 123.06445,49.952122 q -0.69726,0.287109 -1.42187,0.430664 -0.72461,0.143554 -1.53125,0.143554 -1.9209,0 -2.93945,-1.02539 -1.01172,-1.032227 -1.01172,-2.966797 0,-1.873047 0.97754,-2.959961 0.97753,-1.086914 2.66601,-1.086914 1.70215,0 2.63867,1.011719 0.94336,1.004883 0.94336,2.836914 l 0,0.813476 -5.18847,0 q 0.007,0.902344 0.5332,1.34668 0.52637,0.444336 1.57226,0.444336 0.69043,0 1.36036,-0.198242 0.66992,-0.198242 1.40136,-0.628906 l 0,1.838867 z m -1.69531,-4.306641 q -0.0137,-0.792969 -0.41016,-1.196289 -0.38964,-0.410156 -1.15527,-0.410156 -0.69043,0 -1.10058,0.423828 -0.41016,0.416992 -0.48536,1.189453 l 3.15137,-0.0068 z"
           style="font-weight:bold;font-size:14px;font-family:monospace;stroke:none"
           id="path5902" />
        <path
           d="m 128.66992,43.437473 q 0.22559,-0.485351 0.57422,-0.717773 0.34863,-0.232422 0.85449,-0.232422 0.99121,0 1.36719,0.683594 0.38281,0.683593 0.38281,2.84375 l 0,4.313476 -1.64062,0 0,-4.915039 q 0,-0.854492 -0.12989,-1.141601 -0.12988,-0.28711 -0.47167,-0.28711 -0.3418,0 -0.47852,0.293946 -0.13672,0.293945 -0.13672,1.134765 l 0,4.915039 -1.62012,0 0,-4.915039 q 0,-0.84082 -0.13671,-1.134765 -0.13672,-0.293946 -0.47852,-0.293946 -0.3418,0 -0.47168,0.28711 -0.12988,0.287109 -0.12988,1.141601 l 0,4.915039 -1.64063,0 0,-7.65625 1.45606,0 0,0.792969 q 0.1709,-0.451172 0.54687,-0.710937 0.37598,-0.266602 0.84082,-0.266602 0.46485,0 0.84766,0.280273 0.38281,0.273438 0.46484,0.669922 z"
           style="font-weight:bold;font-size:14px;font-family:monospace;stroke:none"
           id="path5904" />
        <path
           d="m 139.9082,49.952122 q -0.69726,0.287109 -1.42187,0.430664 -0.72461,0.143554 -1.53125,0.143554 -1.9209,0 -2.93946,-1.02539 -1.01171,-1.032227 -1.01171,-2.966797 0,-1.873047 0.97754,-2.959961 0.97753,-1.086914 2.66601,-1.086914 1.70215,0 2.63867,1.011719 0.94336,1.004883 0.94336,2.836914 l 0,0.813476 -5.18847,0 q 0.007,0.902344 0.5332,1.34668 0.52637,0.444336 1.57226,0.444336 0.69043,0 1.36036,-0.198242 0.66992,-0.198242 1.40136,-0.628906 l 0,1.838867 z m -1.69531,-4.306641 q -0.0137,-0.792969 -0.41016,-1.196289 -0.38964,-0.410156 -1.15527,-0.410156 -0.69043,0 -1.10059,0.423828 -0.41015,0.416992 -0.48535,1.189453 l 3.15137,-0.0068 z"
           style="font-weight:bold;font-size:14px;font-family:monospace;stroke:none"
           id="path5906" />
        <path
           d="m 148.11816,45.358372 0,4.969726 -1.98925,0 0,-4.662109 q 0,-0.833984 -0.23926,-1.189453 -0.23242,-0.362305 -0.76563,-0.362305 -0.54004,0 -0.85449,0.485352 -0.30762,0.485351 -0.30762,1.346679 l 0,4.381836 -1.98925,0 0,-7.65625 1.98925,0 0,1.148438 q 0.21192,-0.635742 0.72461,-0.984375 0.5127,-0.348633 1.23731,-0.348633 1.08691,0 1.64062,0.724609 0.55371,0.717774 0.55371,2.146485 z"
           style="font-weight:bold;font-size:14px;font-family:monospace;stroke:none"
           id="path5908" />
        <path
           d="m 153.93555,40.49802 0,2.173828 2.61816,0 0,1.538086 -2.61816,0 0,3.623047 q 0,0.512695 0.24609,0.738281 0.25293,0.21875 0.83398,0.21875 l 1.53809,0 0,1.538086 -1.68164,0 q -1.72266,0 -2.33105,-0.546875 -0.6084,-0.553711 -0.6084,-2.043945 l 0,-3.527344 -1.95508,0 0,-1.538086 1.95508,0 0,-2.173828 2.00293,0 z"
           style="font-weight:bold;font-size:14px;font-family:monospace;stroke:none"
           id="path5910" />
        <path
           d="m 167.57324,42.671848 3.96485,0 0,6.118164 2.48828,0 0,1.538086 -6.98633,0 0,-1.538086 2.49512,0 0,-4.580078 -1.96192,0 0,-1.538086 z m 1.96192,-3.725586 2.00293,0 0,2.337891 -2.00293,0 0,-2.337891 z"
           style="font-weight:bold;font-size:14px;font-family:monospace;stroke:none"
           id="path5912" />
        <path
           d="m 181.80566,45.358372 0,4.969726 -1.98925,0 0,-4.662109 q 0,-0.833984 -0.23926,-1.189453 -0.23242,-0.362305 -0.76563,-0.362305 -0.54004,0 -0.85449,0.485352 -0.30762,0.485351 -0.30762,1.346679 l 0,4.381836 -1.98925,0 0,-7.65625 1.98925,0 0,1.148438 q 0.21192,-0.635742 0.72461,-0.984375 0.5127,-0.348633 1.23731,-0.348633 1.08691,0 1.64062,0.724609 0.55371,0.717774 0.55371,2.146485 z"
           style="font-weight:bold;font-size:14px;font-family:monospace;stroke:none"
           id="path5914" />
        <path
           d="m 187.62305,40.49802 0,2.173828 2.61816,0 0,1.538086 -2.61816,0 0,3.623047 q 0,0.512695 0.24609,0.738281 0.25293,0.21875 0.83398,0.21875 l 1.53809,0 0,1.538086 -1.68164,0 q -1.72266,0 -2.33105,-0.546875 -0.6084,-0.553711 -0.6084,-2.043945 l 0,-3.527344 -1.95508,0 0,-1.538086 1.95508,0 0,-2.173828 2.00293,0 z"
           style="font-weight:bold;font-size:14px;font-family:monospace;stroke:none"
           id="path5916" />
        <path
           d="m 198.86133,49.952122 q -0.69727,0.287109 -1.42188,0.430664 -0.72461,0.143554 -1.53125,0.143554 -1.9209,0 -2.93945,-1.02539 -1.01172,-1.032227 -1.01172,-2.966797 0,-1.873047 0.97754,-2.959961 0.97754,-1.086914 2.66602,-1.086914 1.70214,0 2.63867,1.011719 0.94336,1.004883 0.94336,2.836914 l 0,0.813476 -5.18848,0 q 0.007,0.902344 0.5332,1.34668 0.52637,0.444336 1.57227,0.444336 0.69043,0 1.36035,-0.198242 0.66992,-0.198242 1.40137,-0.628906 l 0,1.838867 z m -1.69531,-4.306641 q -0.0137,-0.792969 -0.41016,-1.196289 -0.38965,-0.410156 -1.15527,-0.410156 -0.69043,0 -1.10059,0.423828 -0.41016,0.416992 -0.48535,1.189453 l 3.15137,-0.0068 z"
           style="font-weight:bold;font-size:14px;font-family:monospace;stroke:none"
           id="path5918" />
        <path
           d="m 207.61816,44.784153 q -0.32812,-0.300781 -0.77246,-0.451172 -0.4375,-0.150391 -0.96386,-0.150391 -0.63575,0 -1.11426,0.225586 -0.47168,0.21875 -0.73145,0.642579 -0.16406,0.259765 -0.23242,0.628906 -0.0615,0.36914 -0.0615,1.121094 l 0,3.527343 -2.00293,0 0,-7.65625 2.00293,0 0,1.189453 q 0.29394,-0.65625 0.90234,-1.011718 0.6084,-0.362305 1.42188,-0.362305 0.41015,0 0.7998,0.102539 0.39649,0.0957 0.75195,0.287109 l 0,1.907227 z"
           style="font-weight:bold;font-size:14px;font-family:monospace;stroke:none"
           id="path5920" />
        <path
           d="m 216.05371,42.671848 -2.43359,7.65625 -2.46778,0 -2.43359,-7.65625 2.03027,0 1.63379,5.97461 1.64063,-5.97461 2.03027,0 z"
           style="font-weight:bold;font-size:14px;font-family:monospace;stroke:none"
           id="path5922" />
        <path
           d="m 221.37891,46.732395 q -1.1211,0 -1.56543,0.28711 -0.44434,0.287109 -0.44434,0.984375 0,0.519531 0.30762,0.827148 0.30761,0.307617 0.83398,0.307617 0.79297,0 1.23047,-0.594726 0.4375,-0.601563 0.4375,-1.674805 l 0,-0.136719 -0.7998,0 z m 2.78906,-0.772461 0,4.368164 -1.98926,0 0,-0.854492 q -0.3623,0.505859 -0.92969,0.779297 -0.56738,0.273437 -1.25097,0.273437 -1.30567,0 -2.03711,-0.690429 -0.72461,-0.69043 -0.72461,-1.927735 0,-1.339843 0.86816,-1.975586 0.86817,-0.642578 2.68653,-0.642578 l 1.38769,0 0,-0.334961 q 0,-0.485351 -0.35547,-0.731445 -0.34863,-0.25293 -1.03222,-0.25293 -0.71778,0 -1.39454,0.184571 -0.66992,0.177734 -1.40136,0.574218 l 0,-1.708984 q 0.66308,-0.273437 1.34668,-0.40332 0.68359,-0.129883 1.44922,-0.129883 1.86621,0 2.61816,0.758789 0.75879,0.758789 0.75879,2.713867 z"
           style="font-weight:bold;font-size:14px;font-family:monospace;stroke:none"
           id="path5924" />
        <path
           d="m 227.66113,47.135715 0,-5.90625 -2.03027,0 0,-1.538085 4.0332,0 0,7.444335 q 0,0.902344 0.28028,1.278321 0.28027,0.375976 0.95019,0.375976 l 1.59961,0 0,1.538086 -2.16016,0 q -1.42871,0 -2.05078,-0.738281 -0.62207,-0.738281 -0.62207,-2.454102 z"
           style="font-weight:bold;font-size:14px;font-family:monospace;stroke:none"
           id="path5926" />
      </g>
    </g>
    <g
       transform="translate(380,300)"
       id="g5683">
      <path
         fill="none"
         d="M10.5 10.5 L40.5 50.5"
         clip-path="url(#clipPath5)"
         id="path5685" />
      <path
         fill="none"
         d="M12.055 23.4067 L10.5 10.5 L22.455 15.6067"
         clip-path="url(#clipPath5)"
         id="path5687" />
    </g>
    <g
       transform="translate(310,150)"
       id="g5689">
      <path
         fill="none"
         d="M10.5 60.5 L30.5 10.5"
         clip-path="url(#clipPath6)"
         id="path5691" />
      <path
         fill="none"
         d="M20.7163 52.4609 L10.5 60.5 L8.6461 47.6329"
         clip-path="url(#clipPath6)"
         id="path5693" />
    </g>
    <g
       font-family="monospace"
       font-size="14"
       transform="translate(520,200)"
       id="g5695">
      <path
         fill="none"
         d="M10.5 10.5 L10.5 50.5"
         clip-path="url(#clipPath7)"
         id="path5697" />
    </g>
    <g
       font-family="monospace"
       font-size="14"
       transform="translate(490,200)"
       id="g5699">
      <path
         fill="none"
         d="M10.5 10.5 L10.5 50.5"
         clip-path="url(#clipPath7)"
         id="path5701" />
    </g>
    <g
       font-family="monospace"
       font-size="14"
       transform="translate(460,200)"
       id="g5703">
      <path
         fill="none"
         d="M10.5 10.5 L10.5 50.5"
         clip-path="url(#clipPath7)"
         id="path5705" />
    </g>
    <g
       font-family="monospace"
       font-size="14"
       transform="translate(430,200)"
       id="g5707">
      <path
         fill="none"
         d="M10.5 10.5 L10.5 50.5"
         clip-path="url(#clipPath7)"
         id="path5709" />
    </g>
    <g
       font-family="monospace"
       font-size="14"
       transform="translate(400,200)"
       id="g5711">
      <path
         fill="none"
         d="M10.5 10.5 L10.5 50.5"
         clip-path="url(#clipPath7)"
         id="path5713" />
    </g>
    <g
       font-family="monospace"
       font-size="14"
       transform="translate(370,200)"
       id="g5715">
      <path
         fill="none"
         d="M10.5 10.5 L10.5 50.5"
         clip-path="url(#clipPath7)"
         id="path5717" />
    </g>
    <g
       font-family="monospace"
       font-size="14"
       transform="translate(340,200)"
       id="g5719">
      <path
         fill="none"
         d="M10.5 10.5 L10.5 50.5"
         clip-path="url(#clipPath7)"
         id="path5721" />
    </g>
    <g
       font-family="monospace"
       font-size="14"
       transform="translate(310,200)"
       id="g5723">
      <path
         fill="none"
         d="M10.5 10.5 L10.5 50.5"
         clip-path="url(#clipPath7)"
         id="path5725" />
    </g>
    <g
       font-family="monospace"
       font-size="14"
       transform="translate(280,200)"
       id="g5727">
      <path
         fill="none"
         d="M10.5 10.5 L10.5 50.5"
         clip-path="url(#clipPath7)"
         id="path5729" />
    </g>
    <g
       font-family="monospace"
       font-size="14"
       transform="translate(250,200)"
       id="g5731">
      <path
         fill="none"
         d="M10.5 10.5 L10.5 50.5"
         clip-path="url(#clipPath7)"
         id="path5733" />
    </g>
    <g
       font-family="monospace"
       font-size="14"
       transform="translate(220,200)"
       id="g5735">
      <path
         fill="none"
         d="M10.5 10.5 L10.5 50.5"
         clip-path="url(#clipPath7)"
         id="path5737" />
    </g>
    <g
       font-family="monospace"
       font-size="14"
       transform="translate(190,200)"
       id="g5739">
      <path
         fill="none"
         d="M10.5 10.5 L10.5 50.5"
         clip-path="url(#clipPath7)"
         id="path5741" />
    </g>
    <g
       font-family="monospace"
       font-size="14"
       transform="translate(160,200)"
       id="g5743">
      <path
         fill="none"
         d="M10.5 10.5 L10.5 50.5"
         clip-path="url(#clipPath7)"
         id="path5745" />
    </g>
    <g
       font-family="monospace"
       font-size="14"
       transform="translate(130,200)"
       id="g5747">
      <path
         fill="none"
         d="M10.5 10.5 L10.5 50.5"
         clip-path="url(#clipPath7)"
         id="path5749" />
    </g>
    <g
       font-family="monospace"
       font-size="14"
       transform="translate(100,200)"
       id="g5751">
      <path
         fill="none"
         d="M10.5 10.5 L10.5 50.5"
         clip-path="url(#clipPath7)"
         id="path5753" />
    </g>
    <g
       font-family="monospace"
       font-size="14"
       transform="translate(70,200)"
       id="g5755">
      <path
         fill="none"
         d="M10.5 10.5 L10.5 50.5"
         clip-path="url(#clipPath7)"
         id="path5757" />
    </g>
    <g
       font-family="monospace"
       font-size="14"
       transform="translate(40,200)"
       id="g5759">
      <path
         fill="none"
         d="M10.5 10.5 L10.5 50.5"
         clip-path="url(#clipPath7)"
         id="path5761" />
    </g>
    <g
       font-family="monospace"
       font-size="14"
       transform="translate(10,200)"
       id="g5763">
      <path
         fill="none"
         d="M10.5 10.5 L10.5 50.5"
         clip-path="url(#clipPath7)"
         id="path5765" />
    </g>
    <g
       font-family="monospace"
       font-size="14"
       transform="translate(0,210)"
       id="g5767">
      <path
         fill="none"
         d="M10.5 20.5 L540.5 20.5"
         clip-path="url(#clipPath8)"
         id="path5769" />
    </g>
  </g>
</svg>
