<?xml version="1.0" encoding="UTF-8" standalone="no"?>
<svg
   xmlns:dc="http://purl.org/dc/elements/1.1/"
   xmlns:cc="http://creativecommons.org/ns#"
   xmlns:rdf="http://www.w3.org/1999/02/22-rdf-syntax-ns#"
   xmlns:svg="http://www.w3.org/2000/svg"
   xmlns="http://www.w3.org/2000/svg"
   xmlns:sodipodi="http://sodipodi.sourceforge.net/DTD/sodipodi-0.dtd"
   xmlns:inkscape="http://www.inkscape.org/namespaces/inkscape"
   fill-opacity="1"
   color-rendering="auto"
   color-interpolation="auto"
   stroke="black"
   text-rendering="auto"
   stroke-linecap="square"
   width="750"
   stroke-miterlimit="10"
   stroke-opacity="1"
   shape-rendering="auto"
   fill="black"
   stroke-dasharray="none"
   font-weight="normal"
   stroke-width="1"
   viewBox="490 80 750 920"
   height="920"
   font-family="'Dialog'"
   font-style="normal"
   stroke-linejoin="miter"
   font-size="12"
   stroke-dashoffset="0"
   image-rendering="auto"
   id="svg12725"
   version="1.1"
   inkscape:version="0.91 r13725"
   sodipodi:docname="meas_overview.svg">
  <metadata
     id="metadata13024">
    <rdf:RDF>
      <cc:Work
         rdf:about="">
        <dc:format>image/svg+xml</dc:format>
        <dc:type
           rdf:resource="http://purl.org/dc/dcmitype/StillImage" />
      </cc:Work>
    </rdf:RDF>
  </metadata>
  <sodipodi:namedview
     pagecolor="#ffffff"
     bordercolor="#666666"
     borderopacity="1"
     objecttolerance="10"
     gridtolerance="10"
     guidetolerance="10"
     inkscape:pageopacity="0"
     inkscape:pageshadow="2"
     inkscape:window-width="1920"
     inkscape:window-height="1136"
     id="namedview13022"
     showgrid="false"
     inkscape:zoom="1.0217391"
     inkscape:cx="375"
     inkscape:cy="460"
     inkscape:window-x="0"
     inkscape:window-y="27"
     inkscape:window-maximized="1"
     inkscape:current-layer="svg12725" />
  <!--Generated by the Batik Graphics2D SVG Generator-->
  <defs
     id="genericDefs" />
  <g
     id="g12728">
    <defs
       id="defs1">
      <clipPath
         clipPathUnits="userSpaceOnUse"
         id="clipPath1">
        <path
           d="M0 0 L2147483647 0 L2147483647 2147483647 L0 2147483647 L0 0 Z"
           id="path12732" />
      </clipPath>
      <clipPath
         clipPathUnits="userSpaceOnUse"
         id="clipPath2">
        <path
           d="M0 0 L0 80 L180 80 L180 0 Z"
           id="path12735" />
      </clipPath>
      <clipPath
         clipPathUnits="userSpaceOnUse"
         id="clipPath3">
        <path
           d="M0 0 L0 590 L710 590 L710 0 Z"
           id="path12738" />
      </clipPath>
      <clipPath
         clipPathUnits="userSpaceOnUse"
         id="clipPath4">
        <path
           d="M0 0 L0 90 L150 90 L150 0 Z"
           id="path12741" />
      </clipPath>
      <clipPath
         clipPathUnits="userSpaceOnUse"
         id="clipPath5">
        <path
           d="M0 0 L0 90 L490 90 L490 0 Z"
           id="path12744" />
      </clipPath>
      <clipPath
         clipPathUnits="userSpaceOnUse"
         id="clipPath6">
        <path
           d="M0 0 L0 260 L30 260 L30 0 Z"
           id="path12747" />
      </clipPath>
      <clipPath
         clipPathUnits="userSpaceOnUse"
         id="clipPath7">
        <path
           d="M0 0 L0 120 L210 120 L210 0 Z"
           id="path12750" />
      </clipPath>
      <clipPath
         clipPathUnits="userSpaceOnUse"
         id="clipPath8">
        <path
           d="M0 0 L0 120 L30 120 L30 0 Z"
           id="path12753" />
      </clipPath>
      <clipPath
         clipPathUnits="userSpaceOnUse"
         id="clipPath9">
        <path
           d="M0 0 L0 120 L190 120 L190 0 Z"
           id="path12756" />
      </clipPath>
      <clipPath
         clipPathUnits="userSpaceOnUse"
         id="clipPath10">
        <path
           d="M0 0 L0 130 L30 130 L30 0 Z"
           id="path12759" />
      </clipPath>
      <clipPath
         clipPathUnits="userSpaceOnUse"
         id="clipPath11">
        <path
           d="M0 0 L0 70 L30 70 L30 0 Z"
           id="path12762" />
      </clipPath>
      <clipPath
         clipPathUnits="userSpaceOnUse"
         id="clipPath12">
        <path
           d="M0 0 L0 90 L30 90 L30 0 Z"
           id="path12765" />
      </clipPath>
      <clipPath
         clipPathUnits="userSpaceOnUse"
         id="clipPath13">
        <path
           d="M0 0 L0 100 L30 100 L30 0 Z"
           id="path12768" />
      </clipPath>
    </defs>
    <g
       fill="rgb(175,175,175)"
       fill-opacity="0.4902"
       transform="translate(620,100)"
       stroke-opacity="0.4902"
       stroke="rgb(175,175,175)"
       id="g12770">
      <path
         d="M0.5 10.5 L10.5 0.5 L179 0.5 L179 70.5 L170.5 79 L170.5 10.5 L0.5 10.5"
         clip-path="url(#clipPath2)"
         stroke="none"
         id="path12772" />
    </g>
    <g
       fill="rgb(255,255,255)"
       fill-opacity="0"
       transform="translate(620,100)"
       stroke-opacity="0"
       stroke="rgb(255,255,255)"
       id="g12774">
      <path
         fill="none"
         d="M0.5 10.5 L10.5 0.5 L179 0.5 L179 70.5 L170.5 79 L170.5 10.5 L0.5 10.5"
         clip-path="url(#clipPath2)"
         id="path12776" />
    </g>
    <g
       transform="translate(620,100)"
       id="g12778">
      <path
         fill="none"
         d="M0.5 10.5 L10.5 0.5 L179 0.5 L179 70.5 L170.5 79"
         clip-path="url(#clipPath2)"
         id="path12780" />
      <path
         fill="none"
         d="M170.5 10.5 L179 0.5"
         clip-path="url(#clipPath2)"
         id="path12782" />
    </g>
    <g
       fill="rgb(255,255,255)"
       fill-opacity="0"
       transform="translate(620,100)"
       stroke-opacity="0"
       stroke="rgb(255,255,255)"
       id="g12784">
      <path
         style="stroke:none"
         clip-path="url(#clipPath2)"
         d="m 0.5,10.5 170,0 0,68.5 -170,0 z"
         id="rect12786" />
    </g>
    <g
       transform="translate(620,100)"
       id="g12788">
      <path
         style="fill:none"
         clip-path="url(#clipPath2)"
         d="m 0.5,10.5 170,0 0,68.5 -170,0 z"
         id="rect12790" />
      <g
         clip-path="url(#clipPath2)"
         style="font-weight:bold;font-size:14px;font-family:monospace;stroke:none"
         id="text12792">
        <path
           d="m 60.189453,33.582081 2.00293,0 0,5.584961 2.40625,-2.604492 2.426758,0 -2.898438,2.857421 3.0625,4.798829 -2.214844,0 -2.098632,-3.582032 -0.683594,0.65625 0,2.925782 -2.00293,0 0,-10.636719 z"
           style="font-weight:bold;font-size:14px;font-family:monospace;stroke:none"
           id="path13029" />
        <path
           d="m 74.955078,43.842823 q -0.697266,0.287109 -1.421875,0.430664 -0.724609,0.143555 -1.53125,0.143555 -1.920898,0 -2.939453,-1.025391 -1.011719,-1.032226 -1.011719,-2.966797 0,-1.873047 0.977539,-2.959961 0.977539,-1.086914 2.666016,-1.086914 1.702148,0 2.638672,1.011719 0.943359,1.004883 0.943359,2.836914 l 0,0.813477 -5.188476,0 q 0.0068,0.902343 0.533203,1.346679 0.526367,0.444336 1.572265,0.444336 0.69043,0 1.360352,-0.198242 0.669922,-0.198242 1.401367,-0.628906 l 0,1.838867 z m -1.695312,-4.306641 q -0.01367,-0.792968 -0.410157,-1.196289 -0.389648,-0.410156 -1.155273,-0.410156 -0.69043,0 -1.100586,0.423828 -0.410156,0.416992 -0.485352,1.189453 l 3.151368,-0.0068 z"
           style="font-weight:bold;font-size:14px;font-family:monospace;stroke:none"
           id="path13031" />
        <path
           d="m 83.711914,38.674854 q -0.328125,-0.300781 -0.772461,-0.451172 -0.4375,-0.15039 -0.963867,-0.15039 -0.635742,0 -1.114258,0.225586 -0.47168,0.21875 -0.731445,0.642578 -0.164063,0.259765 -0.232422,0.628906 -0.06152,0.369141 -0.06152,1.121094 l 0,3.527344 -2.002929,0 0,-7.65625 2.002929,0 0,1.189453 q 0.293946,-0.65625 0.902344,-1.011719 0.608399,-0.362305 1.421875,-0.362305 0.410156,0 0.799805,0.102539 0.396484,0.0957 0.751953,0.28711 l 0,1.907226 z"
           style="font-weight:bold;font-size:14px;font-family:monospace;stroke:none"
           id="path13033" />
        <path
           d="m 91.586914,39.249073 0,4.969727 -1.989258,0 0,-4.66211 q 0,-0.833984 -0.239258,-1.189453 -0.232421,-0.362305 -0.765625,-0.362305 -0.540039,0 -0.854492,0.485352 -0.307617,0.485352 -0.307617,1.34668 l 0,4.381836 -1.989258,0 0,-7.65625 1.989258,0 0,1.148437 q 0.211914,-0.635742 0.724609,-0.984375 0.512696,-0.348633 1.237305,-0.348633 1.086914,0 1.640625,0.72461 0.553711,0.717773 0.553711,2.146484 z"
           style="font-weight:bold;font-size:14px;font-family:monospace;stroke:none"
           id="path13035" />
        <path
           d="m 100.2207,43.842823 q -0.697263,0.287109 -1.421872,0.430664 -0.724609,0.143555 -1.53125,0.143555 -1.920898,0 -2.939453,-1.025391 -1.011719,-1.032226 -1.011719,-2.966797 0,-1.873047 0.977539,-2.959961 0.977539,-1.086914 2.666016,-1.086914 1.702148,0 2.638672,1.011719 0.943357,1.004883 0.943357,2.836914 l 0,0.813477 -5.188474,0 q 0.0068,0.902343 0.533203,1.346679 0.526367,0.444336 1.572265,0.444336 0.69043,0 1.360352,-0.198242 0.669922,-0.198242 1.401364,-0.628906 l 0,1.838867 z m -1.695309,-4.306641 q -0.01367,-0.792968 -0.410157,-1.196289 -0.389648,-0.410156 -1.155273,-0.410156 -0.69043,0 -1.100586,0.423828 -0.410156,0.416992 -0.485352,1.189453 l 3.151368,-0.0068 z"
           style="font-weight:bold;font-size:14px;font-family:monospace;stroke:none"
           id="path13037" />
        <path
           d="m 103.75488,41.026417 0,-5.90625 -2.03027,0 0,-1.538086 4.0332,0 0,7.444336 q 0,0.902344 0.28028,1.27832 0.28027,0.375977 0.95019,0.375977 l 1.59961,0 0,1.538086 -2.16016,0 q -1.42871,0 -2.05078,-0.738282 -0.62207,-0.738281 -0.62207,-2.454101 z"
           style="font-weight:bold;font-size:14px;font-family:monospace;stroke:none"
           id="path13039" />
      </g>
      <g
         clip-path="url(#clipPath2)"
         style="font-weight:bold;font-size:14px;font-family:monospace;stroke:none"
         id="text12794">
        <path
           d="m 67.716797,50.49802 0,2.173828 2.618164,0 0,1.538086 -2.618164,0 0,3.623047 q 0,0.512695 0.246094,0.738281 0.252929,0.21875 0.833984,0.21875 l 1.538086,0 0,1.538086 -1.681641,0 q -1.722656,0 -2.331054,-0.546875 -0.608399,-0.553711 -0.608399,-2.043945 l 0,-3.527344 -1.955078,0 0,-1.538086 1.955078,0 0,-2.173828 2.00293,0 z"
           style="font-weight:bold;font-size:14px;font-family:monospace;stroke:none"
           id="path13042" />
        <path
           d="m 72.932617,52.671848 3.964844,0 0,6.118164 2.488281,0 0,1.538086 -6.986328,0 0,-1.538086 2.495117,0 0,-4.580078 -1.961914,0 0,-1.538086 z m 1.961914,-3.725586 2.00293,0 0,2.337891 -2.00293,0 0,-2.337891 z"
           style="font-weight:bold;font-size:14px;font-family:monospace;stroke:none"
           id="path13044" />
        <path
           d="m 84.560547,53.437473 q 0.225586,-0.485351 0.574219,-0.717773 0.348632,-0.232422 0.854492,-0.232422 0.991211,0 1.367187,0.683594 0.382813,0.683593 0.382813,2.84375 l 0,4.313476 -1.640625,0 0,-4.915039 q 0,-0.854492 -0.129883,-1.141601 -0.129883,-0.28711 -0.47168,-0.28711 -0.341797,0 -0.478515,0.293946 -0.136719,0.293945 -0.136719,1.134765 l 0,4.915039 -1.620117,0 0,-4.915039 q 0,-0.84082 -0.136719,-1.134765 -0.136719,-0.293946 -0.478516,-0.293946 -0.341797,0 -0.471679,0.28711 -0.129883,0.287109 -0.129883,1.141601 l 0,4.915039 -1.640625,0 0,-7.65625 1.456055,0 0,0.792969 q 0.170898,-0.451172 0.546875,-0.710937 0.375976,-0.266602 0.84082,-0.266602 0.464844,0 0.847656,0.280273 0.382813,0.273438 0.464844,0.669922 z"
           style="font-weight:bold;font-size:14px;font-family:monospace;stroke:none"
           id="path13046" />
        <path
           d="m 95.798828,59.952122 q -0.697266,0.287109 -1.421875,0.430664 -0.724609,0.143554 -1.53125,0.143554 -1.920898,0 -2.939453,-1.02539 -1.011719,-1.032227 -1.011719,-2.966797 0,-1.873047 0.977539,-2.959961 0.977539,-1.086914 2.666016,-1.086914 1.702148,0 2.638672,1.011719 0.943359,1.004883 0.943359,2.836914 l 0,0.813476 -5.188476,0 q 0.0068,0.902344 0.533203,1.34668 0.526367,0.444336 1.572265,0.444336 0.69043,0 1.360352,-0.198242 0.669922,-0.198242 1.401367,-0.628906 l 0,1.838867 z m -1.695312,-4.306641 q -0.01367,-0.792969 -0.410157,-1.196289 -0.389648,-0.410156 -1.155273,-0.410156 -0.69043,0 -1.100586,0.423828 -0.410156,0.416992 -0.485352,1.189453 l 3.151368,-0.0068 z"
           style="font-weight:bold;font-size:14px;font-family:monospace;stroke:none"
           id="path13048" />
        <path
           d="m 104.55566,54.784153 q -0.32812,-0.300781 -0.77246,-0.451172 -0.4375,-0.150391 -0.96386,-0.150391 -0.63575,0 -1.11426,0.225586 -0.47168,0.21875 -0.73145,0.642579 -0.16406,0.259765 -0.23242,0.628906 -0.0615,0.36914 -0.0615,1.121094 l 0,3.527343 -2.002932,0 0,-7.65625 2.002932,0 0,1.189453 q 0.29394,-0.65625 0.90234,-1.011718 0.6084,-0.362305 1.42188,-0.362305 0.41015,0 0.7998,0.102539 0.39649,0.0957 0.75195,0.287109 l 0,1.907227 z"
           style="font-weight:bold;font-size:14px;font-family:monospace;stroke:none"
           id="path13050" />
      </g>
    </g>
    <g
       fill="rgb(255,255,255)"
       fill-opacity="0"
       transform="translate(510,250)"
       stroke-opacity="0"
       stroke="rgb(255,255,255)"
       id="g12796">
      <path
         style="stroke:none"
         clip-path="url(#clipPath3)"
         d="M 0.5,0.5 709,0.5 709,589 0.5,589 Z"
         id="rect12798" />
    </g>
    <g
       transform="translate(510,250)"
       id="g12800">
      <path
         style="fill:none"
         clip-path="url(#clipPath3)"
         d="M 0.5,0.5 709,0.5 709,589 0.5,589 Z"
         id="rect12802" />
      <g
         clip-path="url(#clipPath3)"
         style="font-weight:bold;font-size:14px;font-family:monospace;stroke:none"
         id="text12804">
        <path
           d="m 9.7167969,11.218775 q 0.2255859,-0.485352 0.5742191,-0.717774 0.348632,-0.232422 0.854492,-0.232422 0.991211,0 1.367187,0.683594 0.382813,0.683594 0.382813,2.84375 l 0,4.313477 -1.640625,0 0,-4.915039 q 0,-0.854492 -0.129883,-1.141602 -0.129883,-0.287109 -0.47168,-0.287109 -0.341797,0 -0.478515,0.293945 -0.136719,0.293945 -0.136719,1.134766 l 0,4.915039 -1.6201172,0 0,-4.915039 q 0,-0.840821 -0.1367188,-1.134766 -0.1367187,-0.293945 -0.4785156,-0.293945 -0.3417969,0 -0.4716797,0.287109 -0.1298828,0.28711 -0.1298828,1.141602 l 0,4.915039 -1.640625,0 0,-7.65625 1.4560547,0 0,0.792969 q 0.1708984,-0.451172 0.546875,-0.710938 0.3759765,-0.266602 0.8408203,-0.266602 0.4648437,0 0.8476562,0.280274 0.3828125,0.273437 0.4648438,0.669922 z"
           style="font-weight:bold;font-size:14px;font-family:monospace;stroke:none"
           id="path13055" />
        <path
           d="m 20.955078,17.733423 q -0.697266,0.28711 -1.421875,0.430664 -0.724609,0.143555 -1.53125,0.143555 -1.920898,0 -2.939453,-1.025391 -1.011719,-1.032226 -1.011719,-2.966797 0,-1.873046 0.977539,-2.95996 0.977539,-1.086915 2.666016,-1.086915 1.702148,0 2.638672,1.011719 0.943359,1.004883 0.943359,2.836914 l 0,0.813477 -5.188476,0 q 0.0068,0.902344 0.533203,1.34668 0.526367,0.444335 1.572265,0.444335 0.69043,0 1.360352,-0.198242 0.669922,-0.198242 1.401367,-0.628906 l 0,1.838867 z m -1.695312,-4.30664 q -0.01367,-0.792969 -0.410157,-1.196289 -0.389648,-0.410157 -1.155273,-0.410157 -0.69043,0 -1.100586,0.423828 -0.410156,0.416993 -0.485352,1.189454 l 3.151368,-0.0068 z"
           style="font-weight:bold;font-size:14px;font-family:monospace;stroke:none"
           id="path13057" />
        <path
           d="m 26.628906,14.513697 q -1.121094,0 -1.565429,0.287109 -0.444336,0.287109 -0.444336,0.984375 0,0.519531 0.307617,0.827148 0.307617,0.307618 0.833984,0.307618 0.792969,0 1.230469,-0.594727 0.4375,-0.601562 0.4375,-1.674805 l 0,-0.136718 -0.799805,0 z m 2.789063,-0.772461 0,4.368164 -1.989258,0 0,-0.854492 q -0.362305,0.505859 -0.929688,0.779296 -0.567382,0.273438 -1.250976,0.273438 -1.305664,0 -2.03711,-0.69043 -0.724609,-0.690429 -0.724609,-1.927734 0,-1.339844 0.868164,-1.975586 0.868164,-0.642578 2.686524,-0.642578 l 1.387695,0 0,-0.334961 q 0,-0.485352 -0.355469,-0.731445 -0.348633,-0.25293 -1.032226,-0.25293 -0.717774,0 -1.394532,0.18457 -0.669922,0.177735 -1.401367,0.574219 l 0,-1.708984 q 0.663086,-0.273438 1.34668,-0.403321 0.683594,-0.129883 1.449219,-0.129883 1.866211,0 2.618164,0.75879 0.758789,0.758789 0.758789,2.713867 z"
           style="font-weight:bold;font-size:14px;font-family:monospace;stroke:none"
           id="path13059" />
        <path
           d="m 37.040039,10.692408 0,1.75 q -0.553711,-0.355469 -1.155273,-0.533204 -0.594727,-0.18457 -1.196289,-0.18457 -0.669922,0 -1.011719,0.198242 -0.341797,0.191407 -0.341797,0.574219 0,0.546875 1.462891,0.888672 l 0.0752,0.02051 0.574219,0.136719 q 1.09375,0.259765 1.599609,0.84082 0.512695,0.574219 0.512695,1.558594 0,1.182617 -0.779297,1.777343 -0.772461,0.587891 -2.331054,0.587891 -0.69043,0 -1.415039,-0.123047 -0.72461,-0.116211 -1.469727,-0.355469 l 0,-1.75 q 0.663086,0.375977 1.34668,0.574219 0.690429,0.198242 1.333008,0.198242 0.704101,0 1.066406,-0.205078 0.362305,-0.205078 0.362305,-0.594726 0,-0.382813 -0.259766,-0.587891 -0.25293,-0.205078 -1.216797,-0.4375 l -0.553711,-0.123047 q -1.148437,-0.259766 -1.674805,-0.813476 -0.526367,-0.553711 -0.526367,-1.483399 0,-1.107422 0.799805,-1.722656 0.799805,-0.615235 2.249023,-0.615235 0.649414,0 1.291993,0.109375 0.649414,0.10254 1.257812,0.314454 z"
           style="font-weight:bold;font-size:14px;font-family:monospace;stroke:none"
           id="path13061" />
        <path
           d="m 51.894531,14.513697 q -1.121094,0 -1.565429,0.287109 -0.444336,0.287109 -0.444336,0.984375 0,0.519531 0.307617,0.827148 0.307617,0.307618 0.833984,0.307618 0.792969,0 1.230469,-0.594727 0.4375,-0.601562 0.4375,-1.674805 l 0,-0.136718 -0.799805,0 z m 2.789063,-0.772461 0,4.368164 -1.989258,0 0,-0.854492 q -0.362305,0.505859 -0.929688,0.779296 -0.567382,0.273438 -1.250976,0.273438 -1.305664,0 -2.03711,-0.69043 -0.724609,-0.690429 -0.724609,-1.927734 0,-1.339844 0.868164,-1.975586 0.868164,-0.642578 2.686524,-0.642578 l 1.387695,0 0,-0.334961 q 0,-0.485352 -0.355469,-0.731445 -0.348633,-0.25293 -1.032226,-0.25293 -0.717774,0 -1.394532,0.18457 -0.669922,0.177735 -1.401367,0.574219 l 0,-1.708984 q 0.663086,-0.273438 1.34668,-0.403321 0.683594,-0.129883 1.449219,-0.129883 1.866211,0 2.618164,0.75879 0.758789,0.758789 0.758789,2.713867 z"
           style="font-weight:bold;font-size:14px;font-family:monospace;stroke:none"
           id="path13063" />
        <path
           d="m 58.552734,17.029322 0,3.992187 -1.996093,0 0,-10.568359 1.996093,0 0,1.148437 q 0.314453,-0.663086 0.827149,-0.998047 0.512695,-0.334961 1.203125,-0.334961 1.3125,0 2.037109,1.052735 0.72461,1.052734 0.72461,2.966797 0,1.941406 -0.738282,2.980468 -0.731445,1.039063 -2.091797,1.039063 -0.615234,0 -1.107421,-0.314453 -0.485352,-0.321289 -0.854493,-0.963867 z m 2.789063,-2.754883 q 0,-1.107422 -0.369141,-1.736328 -0.36914,-0.628907 -1.018554,-0.628907 -0.649415,0 -1.025391,0.628907 -0.375977,0.628906 -0.375977,1.736328 0,1.107422 0.375977,1.736328 0.375976,0.628906 1.025391,0.628906 0.649414,0 1.018554,-0.628906 0.369141,-0.628906 0.369141,-1.736328 z"
           style="font-weight:bold;font-size:14px;font-family:monospace;stroke:none"
           id="path13065" />
        <path
           d="m 66.974609,17.029322 0,3.992187 -1.996093,0 0,-10.568359 1.996093,0 0,1.148437 q 0.314453,-0.663086 0.827149,-0.998047 0.512695,-0.334961 1.203125,-0.334961 1.3125,0 2.037109,1.052735 0.72461,1.052734 0.72461,2.966797 0,1.941406 -0.738282,2.980468 -0.731445,1.039063 -2.091797,1.039063 -0.615234,0 -1.107421,-0.314453 Q 67.34375,17.6719 66.974609,17.029322 Z m 2.789063,-2.754883 q 0,-1.107422 -0.369141,-1.736328 -0.36914,-0.628907 -1.018554,-0.628907 -0.649415,0 -1.025391,0.628907 -0.375977,0.628906 -0.375977,1.736328 0,1.107422 0.375977,1.736328 0.375976,0.628906 1.025391,0.628906 0.649414,0 1.018554,-0.628906 0.369141,-0.628906 0.369141,-1.736328 z"
           style="font-weight:bold;font-size:14px;font-family:monospace;stroke:none"
           id="path13067" />
        <path
           d="m 75.020508,14.917017 0,-5.90625 -2.030274,0 0,-1.538086 4.033203,0 0,7.444336 q 0,0.902344 0.280274,1.27832 0.280273,0.375977 0.950195,0.375977 l 1.59961,0 0,1.538086 -2.160157,0 q -1.428711,0 -2.050781,-0.738281 -0.62207,-0.738282 -0.62207,-2.454102 z"
           style="font-weight:bold;font-size:14px;font-family:monospace;stroke:none"
           id="path13069" />
        <path
           d="m 82.307617,10.45315 3.964844,0 0,6.118164 2.488281,0 0,1.538086 -6.986328,0 0,-1.538086 2.495117,0 0,-4.580078 -1.961914,0 0,-1.538086 z m 1.961914,-3.7255861 2.00293,0 0,2.3378906 -2.00293,0 0,-2.3378906 z"
           style="font-weight:bold;font-size:14px;font-family:monospace;stroke:none"
           id="path13071" />
        <path
           d="m 96.47168,17.719751 q -0.50586,0.293946 -1.086914,0.4375 -0.581055,0.150391 -1.250977,0.150391 -1.770508,0 -2.768555,-1.066406 -0.998047,-1.066407 -0.998047,-2.953125 0,-1.893555 1.004883,-2.959961 1.004883,-1.073242 2.775391,-1.073242 0.615234,0 1.182617,0.143554 0.574219,0.143555 1.141602,0.444336 l 0,1.832031 q -0.4375,-0.375976 -0.963868,-0.574218 -0.519531,-0.205078 -1.080078,-0.205078 -0.977539,0 -1.503906,0.62207 -0.526367,0.62207 -0.526367,1.770508 0,1.148437 0.526367,1.763672 0.526367,0.615234 1.503906,0.615234 0.581055,0 1.086914,-0.191406 0.50586,-0.198242 0.957032,-0.594727 l 0,1.838867 z"
           style="font-weight:bold;font-size:14px;font-family:monospace;stroke:none"
           id="path13073" />
        <path
           d="m 102.42578,14.513697 q -1.12109,0 -1.56543,0.287109 -0.44433,0.287109 -0.44433,0.984375 0,0.519531 0.30761,0.827148 0.30762,0.307618 0.83399,0.307618 0.79297,0 1.23047,-0.594727 0.4375,-0.601562 0.4375,-1.674805 l 0,-0.136718 -0.79981,0 z m 2.78906,-0.772461 0,4.368164 -1.98925,0 0,-0.854492 q -0.36231,0.505859 -0.92969,0.779296 -0.56738,0.273438 -1.25098,0.273438 -1.305662,0 -2.037108,-0.69043 -0.724609,-0.690429 -0.724609,-1.927734 0,-1.339844 0.868164,-1.975586 0.868163,-0.642578 2.686523,-0.642578 l 1.3877,0 0,-0.334961 q 0,-0.485352 -0.35547,-0.731445 -0.34864,-0.25293 -1.03223,-0.25293 -0.71777,0 -1.39453,0.18457 -0.669923,0.177735 -1.401368,0.574219 l 0,-1.708984 q 0.663086,-0.273438 1.346678,-0.403321 0.6836,-0.129883 1.44922,-0.129883 1.86621,0 2.61816,0.75879 0.75879,0.758789 0.75879,2.713867 z"
           style="font-weight:bold;font-size:14px;font-family:monospace;stroke:none"
           id="path13075" />
        <path
           d="m 110.7793,8.2793217 0,2.1738283 2.61816,0 0,1.538086 -2.61816,0 0,3.623047 q 0,0.512695 0.24609,0.738281 0.25293,0.21875 0.83399,0.21875 l 1.53808,0 0,1.538086 -1.68164,0 q -1.72266,0 -2.33105,-0.546875 -0.6084,-0.553711 -0.6084,-2.043946 l 0,-3.527343 -1.95508,0 0,-1.538086 1.95508,0 0,-2.1738283 2.00293,0 z"
           style="font-weight:bold;font-size:14px;font-family:monospace;stroke:none"
           id="path13077" />
        <path
           d="m 115.99512,10.45315 3.96484,0 0,6.118164 2.48828,0 0,1.538086 -6.98633,0 0,-1.538086 2.49512,0 0,-4.580078 -1.96191,0 0,-1.538086 z m 1.96191,-3.7255861 2.00293,0 0,2.3378906 -2.00293,0 0,-2.3378906 z"
           style="font-weight:bold;font-size:14px;font-family:monospace;stroke:none"
           id="path13079" />
        <path
           d="m 127.11719,11.895533 q -0.71778,0 -1.12793,0.635742 -0.41016,0.628906 -0.41016,1.756836 0,1.127929 0.41016,1.763672 0.41015,0.628906 1.12793,0.628906 0.72461,0 1.13476,-0.628906 0.41016,-0.635743 0.41016,-1.763672 0,-1.12793 -0.41016,-1.756836 -0.41015,-0.635742 -1.13476,-0.635742 z m -3.54102,2.392578 q 0,-1.852539 0.95703,-2.932617 0.96387,-1.086915 2.58399,-1.086915 1.62695,0 2.58398,1.086915 0.96387,1.080078 0.96387,2.932617 0,1.852539 -0.96387,2.939453 -0.95703,1.080078 -2.58398,1.080078 -1.62012,0 -2.58399,-1.080078 -0.95703,-1.086914 -0.95703,-2.939453 z"
           style="font-weight:bold;font-size:14px;font-family:monospace;stroke:none"
           id="path13081" />
        <path
           d="m 138.64941,13.139673 0,4.969727 -1.98925,0 0,-4.66211 q 0,-0.833984 -0.23926,-1.189453 -0.23242,-0.362304 -0.76563,-0.362304 -0.54004,0 -0.85449,0.485351 -0.30762,0.485352 -0.30762,1.34668 l 0,4.381836 -1.98925,0 0,-7.65625 1.98925,0 0,1.148437 q 0.21192,-0.635742 0.72461,-0.984375 0.5127,-0.348633 1.23731,-0.348633 1.08691,0 1.64062,0.72461 0.55371,0.717773 0.55371,2.146484 z"
           style="font-weight:bold;font-size:14px;font-family:monospace;stroke:none"
           id="path13083" />
      </g>
    </g>
    <g
       fill="rgb(175,175,175)"
       fill-opacity="0.4902"
       transform="translate(1000,900)"
       stroke-opacity="0.4902"
       stroke="rgb(175,175,175)"
       id="g12806">
      <path
         d="M0.5 10.5 L10.5 0.5 L179 0.5 L179 70.5 L170.5 79 L170.5 10.5 L0.5 10.5"
         clip-path="url(#clipPath2)"
         stroke="none"
         id="path12808" />
    </g>
    <g
       fill="rgb(255,255,255)"
       fill-opacity="0"
       transform="translate(1000,900)"
       stroke-opacity="0"
       stroke="rgb(255,255,255)"
       id="g12810">
      <path
         fill="none"
         d="M0.5 10.5 L10.5 0.5 L179 0.5 L179 70.5 L170.5 79 L170.5 10.5 L0.5 10.5"
         clip-path="url(#clipPath2)"
         id="path12812" />
    </g>
    <g
       transform="translate(1000,900)"
       id="g12814">
      <path
         fill="none"
         d="M0.5 10.5 L10.5 0.5 L179 0.5 L179 70.5 L170.5 79"
         clip-path="url(#clipPath2)"
         id="path12816" />
      <path
         fill="none"
         d="M170.5 10.5 L179 0.5"
         clip-path="url(#clipPath2)"
         id="path12818" />
    </g>
    <g
       fill="rgb(255,255,255)"
       fill-opacity="0"
       transform="translate(1000,900)"
       stroke-opacity="0"
       stroke="rgb(255,255,255)"
       id="g12820">
      <path
         style="stroke:none"
         clip-path="url(#clipPath2)"
         d="m 0.5,10.5 170,0 0,68.5 -170,0 z"
         id="rect12822" />
    </g>
    <g
       transform="translate(1000,900)"
       id="g12824">
      <path
         style="fill:none"
         clip-path="url(#clipPath2)"
         d="m 0.5,10.5 170,0 0,68.5 -170,0 z"
         id="rect12826" />
      <g
         clip-path="url(#clipPath2)"
         style="font-weight:bold;font-size:14px;font-family:monospace;stroke:none"
         id="text12828">
        <path
           d="m 75.069336,41.710011 2.276367,0 0,2.508789 -2.276367,0 0,-2.508789 z"
           style="font-weight:bold;font-size:14px;font-family:monospace;stroke:none"
           id="path13088" />
        <path
           d="m 83.491211,41.710011 2.276367,0 0,2.508789 -2.276367,0 0,-2.508789 z"
           style="font-weight:bold;font-size:14px;font-family:monospace;stroke:none"
           id="path13090" />
        <path
           d="m 91.913086,41.710011 2.276367,0 0,2.508789 -2.276367,0 0,-2.508789 z"
           style="font-weight:bold;font-size:14px;font-family:monospace;stroke:none"
           id="path13092" />
      </g>
    </g>
    <g
       fill="rgb(175,175,175)"
       fill-opacity="0.4902"
       transform="translate(780,900)"
       stroke-opacity="0.4902"
       stroke="rgb(175,175,175)"
       id="g12830">
      <path
         d="M0.5 10.5 L10.5 0.5 L179 0.5 L179 70.5 L170.5 79 L170.5 10.5 L0.5 10.5"
         clip-path="url(#clipPath2)"
         stroke="none"
         id="path12832" />
    </g>
    <g
       fill="rgb(255,255,255)"
       fill-opacity="0"
       transform="translate(780,900)"
       stroke-opacity="0"
       stroke="rgb(255,255,255)"
       id="g12834">
      <path
         fill="none"
         d="M0.5 10.5 L10.5 0.5 L179 0.5 L179 70.5 L170.5 79 L170.5 10.5 L0.5 10.5"
         clip-path="url(#clipPath2)"
         id="path12836" />
    </g>
    <g
       transform="translate(780,900)"
       id="g12838">
      <path
         fill="none"
         d="M0.5 10.5 L10.5 0.5 L179 0.5 L179 70.5 L170.5 79"
         clip-path="url(#clipPath2)"
         id="path12840" />
      <path
         fill="none"
         d="M170.5 10.5 L179 0.5"
         clip-path="url(#clipPath2)"
         id="path12842" />
    </g>
    <g
       fill="rgb(255,255,255)"
       fill-opacity="0"
       transform="translate(780,900)"
       stroke-opacity="0"
       stroke="rgb(255,255,255)"
       id="g12844">
      <path
         style="stroke:none"
         clip-path="url(#clipPath2)"
         d="m 0.5,10.5 170,0 0,68.5 -170,0 z"
         id="rect12846" />
    </g>
    <g
       transform="translate(780,900)"
       id="g12848">
      <path
         style="fill:none"
         clip-path="url(#clipPath2)"
         d="m 0.5,10.5 170,0 0,68.5 -170,0 z"
         id="rect12850" />
      <g
         clip-path="url(#clipPath2)"
         style="font-weight:bold;font-size:14px;font-family:monospace;stroke:none"
         id="text12852">
        <path
           d="m 73.051758,35.892628 0,0.669922 2.351562,0 0,1.538086 -2.351562,0 0,6.118164 -2.00293,0 0,-6.118164 -1.859375,0 0,-1.538086 1.859375,0 0,-0.533204 q 0,-1.380859 0.574219,-1.914062 0.574219,-0.533203 2.132812,-0.533203 l 1.647461,0 0,1.538086 -1.565429,0 q -0.451172,0 -0.615235,0.164062 -0.157226,0.164063 -0.170898,0.608399 z"
           style="font-weight:bold;font-size:14px;font-family:monospace;stroke:none"
           id="path13097" />
        <path
           d="m 77.932617,36.56255 3.964844,0 0,6.118164 2.488281,0 0,1.538086 -6.986328,0 0,-1.538086 2.495117,0 0,-4.580078 -1.961914,0 0,-1.538086 z m 1.961914,-3.725586 2.00293,0 0,2.33789 -2.00293,0 0,-2.33789 z"
           style="font-weight:bold;font-size:14px;font-family:monospace;stroke:none"
           id="path13099" />
        <path
           d="m 87.489258,41.026417 0,-5.90625 -2.030274,0 0,-1.538086 4.033203,0 0,7.444336 q 0,0.902344 0.280274,1.27832 0.280273,0.375977 0.950195,0.375977 l 1.59961,0 0,1.538086 -2.160157,0 q -1.428711,0 -2.050781,-0.738282 -0.62207,-0.738281 -0.62207,-2.454101 z"
           style="font-weight:bold;font-size:14px;font-family:monospace;stroke:none"
           id="path13101" />
        <path
           d="m 100.79883,43.842823 q -0.69727,0.287109 -1.421877,0.430664 -0.724609,0.143555 -1.53125,0.143555 -1.920898,0 -2.939453,-1.025391 -1.011719,-1.032226 -1.011719,-2.966797 0,-1.873047 0.977539,-2.959961 0.977539,-1.086914 2.666016,-1.086914 1.702148,0 2.638674,1.011719 0.94336,1.004883 0.94336,2.836914 l 0,0.813477 -5.188479,0 q 0.0068,0.902343 0.533203,1.346679 0.526367,0.444336 1.572265,0.444336 0.69043,0 1.360352,-0.198242 0.669919,-0.198242 1.401369,-0.628906 l 0,1.838867 z m -1.695314,-4.306641 q -0.01367,-0.792968 -0.410157,-1.196289 -0.389648,-0.410156 -1.155273,-0.410156 -0.69043,0 -1.100586,0.423828 -0.410156,0.416992 -0.485352,1.189453 l 3.151368,-0.0068 z"
           style="font-weight:bold;font-size:14px;font-family:monospace;stroke:none"
           id="path13103" />
      </g>
    </g>
    <g
       fill="rgb(175,175,175)"
       fill-opacity="0.4902"
       transform="translate(560,900)"
       stroke-opacity="0.4902"
       stroke="rgb(175,175,175)"
       id="g12854">
      <path
         d="M0.5 10.5 L10.5 0.5 L179 0.5 L179 70.5 L170.5 79 L170.5 10.5 L0.5 10.5"
         clip-path="url(#clipPath2)"
         stroke="none"
         id="path12856" />
    </g>
    <g
       fill="rgb(255,255,255)"
       fill-opacity="0"
       transform="translate(560,900)"
       stroke-opacity="0"
       stroke="rgb(255,255,255)"
       id="g12858">
      <path
         fill="none"
         d="M0.5 10.5 L10.5 0.5 L179 0.5 L179 70.5 L170.5 79 L170.5 10.5 L0.5 10.5"
         clip-path="url(#clipPath2)"
         id="path12860" />
    </g>
    <g
       transform="translate(560,900)"
       id="g12862">
      <path
         fill="none"
         d="M0.5 10.5 L10.5 0.5 L179 0.5 L179 70.5 L170.5 79"
         clip-path="url(#clipPath2)"
         id="path12864" />
      <path
         fill="none"
         d="M170.5 10.5 L179 0.5"
         clip-path="url(#clipPath2)"
         id="path12866" />
    </g>
    <g
       fill="rgb(255,255,255)"
       fill-opacity="0"
       transform="translate(560,900)"
       stroke-opacity="0"
       stroke="rgb(255,255,255)"
       id="g12868">
      <path
         style="stroke:none"
         clip-path="url(#clipPath2)"
         d="m 0.5,10.5 170,0 0,68.5 -170,0 z"
         id="rect12870" />
    </g>
    <g
       transform="translate(560,900)"
       id="g12872">
      <path
         style="fill:none"
         clip-path="url(#clipPath2)"
         d="m 0.5,10.5 170,0 0,68.5 -170,0 z"
         id="rect12874" />
      <g
         clip-path="url(#clipPath2)"
         style="font-weight:bold;font-size:14px;font-family:monospace;stroke:none"
         id="text12876">
        <path
           d="m 65.774414,36.801807 0,1.75 q -0.553711,-0.355468 -1.155273,-0.533203 -0.594727,-0.18457 -1.196289,-0.18457 -0.669922,0 -1.011719,0.198242 -0.341797,0.191406 -0.341797,0.574219 0,0.546875 1.462891,0.888672 l 0.0752,0.02051 0.574219,0.136718 q 1.09375,0.259766 1.599609,0.840821 0.512695,0.574218 0.512695,1.558593 0,1.182618 -0.779297,1.777344 -0.772461,0.587891 -2.331054,0.587891 -0.69043,0 -1.415039,-0.123047 -0.72461,-0.116211 -1.469727,-0.355469 l 0,-1.75 q 0.663086,0.375977 1.34668,0.574219 0.690429,0.198242 1.333008,0.198242 0.704101,0 1.066406,-0.205078 0.362305,-0.205078 0.362305,-0.594727 0,-0.382812 -0.259766,-0.58789 -0.25293,-0.205078 -1.216797,-0.4375 l -0.553711,-0.123047 q -1.148437,-0.259766 -1.674805,-0.813477 -0.526367,-0.553711 -0.526367,-1.483398 0,-1.107422 0.799805,-1.722656 0.799805,-0.615235 2.249023,-0.615235 0.649414,0 1.291993,0.109375 0.649414,0.102539 1.257812,0.314453 z"
           style="font-weight:bold;font-size:14px;font-family:monospace;stroke:none"
           id="path13108" />
        <path
           d="m 72.138672,34.388721 0,2.173829 2.618164,0 0,1.538086 -2.618164,0 0,3.623046 q 0,0.512696 0.246094,0.738282 0.252929,0.21875 0.833984,0.21875 l 1.538086,0 0,1.538086 -1.681641,0 q -1.722656,0 -2.331054,-0.546875 -0.608399,-0.553711 -0.608399,-2.043946 l 0,-3.527343 -1.955078,0 0,-1.538086 1.955078,0 0,-2.173829 2.00293,0 z"
           style="font-weight:bold;font-size:14px;font-family:monospace;stroke:none"
           id="path13110" />
        <path
           d="m 81.250977,37.649464 0,-4.067383 1.996093,0 0,10.636719 -1.996093,0 0,-1.134766 q -0.32129,0.663086 -0.833985,0.998047 -0.505859,0.334961 -1.196289,0.334961 -1.3125,0 -2.037109,-1.052735 -0.72461,-1.052734 -0.72461,-2.966796 0,-1.941407 0.731446,-2.980469 0.738281,-1.039063 2.098632,-1.039063 0.615235,0 1.100586,0.321289 0.492188,0.314453 0.861329,0.950196 z m -2.789063,2.761718 q 0,1.107422 0.369141,1.736329 0.36914,0.628906 1.018554,0.628906 0.649414,0 1.025391,-0.628906 0.375977,-0.628907 0.375977,-1.736329 0,-1.107421 -0.375977,-1.736328 -0.375977,-0.628906 -1.025391,-0.628906 -0.649414,0 -1.018554,0.628906 -0.369141,0.628907 -0.369141,1.736328 z"
           style="font-weight:bold;font-size:14px;font-family:monospace;stroke:none"
           id="path13112" />
        <path
           d="m 88.476562,38.004932 q -0.717773,0 -1.127929,0.635743 -0.410156,0.628906 -0.410156,1.756836 0,1.127929 0.410156,1.763671 0.410156,0.628907 1.127929,0.628907 0.72461,0 1.134766,-0.628907 0.410156,-0.635742 0.410156,-1.763671 0,-1.12793 -0.410156,-1.756836 -0.410156,-0.635743 -1.134766,-0.635743 z m -3.541015,2.392579 q 0,-1.85254 0.957031,-2.932618 0.963867,-1.086914 2.583984,-1.086914 1.626954,0 2.583985,1.086914 0.963867,1.080078 0.963867,2.932618 0,1.852539 -0.963867,2.939453 -0.957031,1.080078 -2.583985,1.080078 -1.620117,0 -2.583984,-1.080078 -0.957031,-1.086914 -0.957031,-2.939453 z"
           style="font-weight:bold;font-size:14px;font-family:monospace;stroke:none"
           id="path13114" />
        <path
           d="m 93.78125,41.545948 0,-4.983398 2.00293,0 0,4.675781 q 0,0.827148 0.232422,1.182617 0.232421,0.355469 0.77246,0.355469 0.54004,0 0.840821,-0.478516 0.307617,-0.478515 0.307617,-1.339844 l 0,-4.395507 2.00293,0 0,7.65625 -2.00293,0 0,-1.134766 q -0.211914,0.635742 -0.724609,0.984375 -0.50586,0.348633 -1.223633,0.348633 -1.09375,0 -1.654297,-0.72461 -0.553711,-0.724609 -0.553711,-2.146484 z"
           style="font-weight:bold;font-size:14px;font-family:monospace;stroke:none"
           id="path13116" />
        <path
           d="m 105.82617,34.388721 0,2.173829 2.61817,0 0,1.538086 -2.61817,0 0,3.623046 q 0,0.512696 0.2461,0.738282 0.25293,0.21875 0.83398,0.21875 l 1.53809,0 0,1.538086 -1.68164,0 q -1.72266,0 -2.33106,-0.546875 -0.6084,-0.553711 -0.6084,-2.043946 l 0,-3.527343 -1.95508,0 0,-1.538086 1.95508,0 0,-2.173829 2.00293,0 z"
           style="font-weight:bold;font-size:14px;font-family:monospace;stroke:none"
           id="path13118" />
      </g>
    </g>
    <g
       fill="rgb(175,175,175)"
       fill-opacity="0.4902"
       transform="translate(950,100)"
       stroke-opacity="0.4902"
       stroke="rgb(175,175,175)"
       id="g12878">
      <path
         d="M0.5 10.5 L10.5 0.5 L179 0.5 L179 70.5 L170.5 79 L170.5 10.5 L0.5 10.5"
         clip-path="url(#clipPath2)"
         stroke="none"
         id="path12880" />
    </g>
    <g
       fill="rgb(255,255,255)"
       fill-opacity="0"
       transform="translate(950,100)"
       stroke-opacity="0"
       stroke="rgb(255,255,255)"
       id="g12882">
      <path
         fill="none"
         d="M0.5 10.5 L10.5 0.5 L179 0.5 L179 70.5 L170.5 79 L170.5 10.5 L0.5 10.5"
         clip-path="url(#clipPath2)"
         id="path12884" />
    </g>
    <g
       transform="translate(950,100)"
       id="g12886">
      <path
         fill="none"
         d="M0.5 10.5 L10.5 0.5 L179 0.5 L179 70.5 L170.5 79"
         clip-path="url(#clipPath2)"
         id="path12888" />
      <path
         fill="none"
         d="M170.5 10.5 L179 0.5"
         clip-path="url(#clipPath2)"
         id="path12890" />
    </g>
    <g
       fill="rgb(255,255,255)"
       fill-opacity="0"
       transform="translate(950,100)"
       stroke-opacity="0"
       stroke="rgb(255,255,255)"
       id="g12892">
      <path
         style="stroke:none"
         clip-path="url(#clipPath2)"
         d="m 0.5,10.5 170,0 0,68.5 -170,0 z"
         id="rect12894" />
    </g>
    <g
       transform="translate(950,100)"
       id="g12896">
      <path
         style="fill:none"
         clip-path="url(#clipPath2)"
         d="m 0.5,10.5 170,0 0,68.5 -170,0 z"
         id="rect12898" />
      <g
         clip-path="url(#clipPath2)"
         style="font-weight:bold;font-size:14px;font-family:monospace;stroke:none"
         id="text12900">
        <path
           d="m 69.145508,34.012745 1.510742,0 -5.373047,11.504883 -1.510742,0 5.373047,-11.504883 z"
           style="font-weight:bold;font-size:14px;font-family:monospace;stroke:none"
           id="path13123" />
        <path
           d="m 74.443359,43.138721 0,3.992188 -1.996093,0 0,-10.568359 1.996093,0 0,1.148437 q 0.314453,-0.663086 0.827149,-0.998047 0.512695,-0.334961 1.203125,-0.334961 1.3125,0 2.037109,1.052735 0.72461,1.052734 0.72461,2.966797 0,1.941406 -0.738282,2.980468 -0.731445,1.039063 -2.091797,1.039063 -0.615234,0 -1.107421,-0.314453 Q 74.8125,43.7813 74.443359,43.138721 Z m 2.789063,-2.754882 q 0,-1.107422 -0.369141,-1.736328 -0.36914,-0.628907 -1.018554,-0.628907 -0.649415,0 -1.025391,0.628907 -0.375977,0.628906 -0.375977,1.736328 0,1.107422 0.375977,1.736328 0.375976,0.628906 1.025391,0.628906 0.649414,0 1.018554,-0.628906 0.369141,-0.628906 0.369141,-1.736328 z"
           style="font-weight:bold;font-size:14px;font-family:monospace;stroke:none"
           id="path13125" />
        <path
           d="m 87.711914,38.674854 q -0.328125,-0.300781 -0.772461,-0.451172 -0.4375,-0.15039 -0.963867,-0.15039 -0.635742,0 -1.114258,0.225586 -0.47168,0.21875 -0.731445,0.642578 -0.164063,0.259765 -0.232422,0.628906 -0.06152,0.369141 -0.06152,1.121094 l 0,3.527344 -2.002929,0 0,-7.65625 2.002929,0 0,1.189453 q 0.293946,-0.65625 0.902344,-1.011719 0.608399,-0.362305 1.421875,-0.362305 0.410156,0 0.799805,0.102539 0.396484,0.0957 0.751953,0.28711 l 0,1.907226 z"
           style="font-weight:bold;font-size:14px;font-family:monospace;stroke:none"
           id="path13127" />
        <path
           d="m 92.476562,38.004932 q -0.717773,0 -1.127929,0.635743 -0.410156,0.628906 -0.410156,1.756836 0,1.127929 0.410156,1.763671 0.410156,0.628907 1.127929,0.628907 0.72461,0 1.134766,-0.628907 0.410156,-0.635742 0.410156,-1.763671 0,-1.12793 -0.410156,-1.756836 -0.410156,-0.635743 -1.134766,-0.635743 z m -3.541015,2.392579 q 0,-1.85254 0.957031,-2.932618 0.963867,-1.086914 2.583984,-1.086914 1.626954,0 2.583985,1.086914 0.963867,1.080078 0.963867,2.932618 0,1.852539 -0.963867,2.939453 -0.957031,1.080078 -2.583985,1.080078 -1.620117,0 -2.583984,-1.080078 -0.957031,-1.086914 -0.957031,-2.939453 z"
           style="font-weight:bold;font-size:14px;font-family:monospace;stroke:none"
           id="path13129" />
        <path
           d="m 103.94043,43.829151 q -0.50586,0.293945 -1.08691,0.4375 -0.58106,0.150391 -1.25098,0.150391 -1.770509,0 -2.768556,-1.066406 -0.998047,-1.066407 -0.998047,-2.953125 0,-1.893555 1.004883,-2.959961 1.004883,-1.073243 2.77539,-1.073243 0.61524,0 1.18262,0.143555 0.57422,0.143555 1.1416,0.444336 l 0,1.832031 q -0.4375,-0.375976 -0.96387,-0.574218 -0.51953,-0.205079 -1.08008,-0.205079 -0.97753,0 -1.5039,0.622071 -0.526369,0.62207 -0.526369,1.770508 0,1.148437 0.526369,1.763671 0.52637,0.615235 1.5039,0.615235 0.58106,0 1.08692,-0.191406 0.50586,-0.198243 0.95703,-0.594727 l 0,1.838867 z"
           style="font-weight:bold;font-size:14px;font-family:monospace;stroke:none"
           id="path13131" />
      </g>
    </g>
    <g
       fill="rgb(255,255,255)"
       fill-opacity="0"
       transform="translate(620,410)"
       stroke-opacity="0"
       stroke="rgb(255,255,255)"
       id="g12902">
      <path
         style="stroke:none"
         clip-path="url(#clipPath4)"
         d="M 0.5,0.5 149,0.5 149,89 0.5,89 Z"
         id="rect12904" />
    </g>
    <g
       transform="translate(620,410)"
       id="g12906">
      <path
         style="fill:none"
         clip-path="url(#clipPath4)"
         d="M 0.5,0.5 149,0.5 149,89 0.5,89 Z"
         id="rect12908" />
      <g
         clip-path="url(#clipPath4)"
         style="font-weight:bold;font-size:14px;font-family:monospace;stroke:none"
         id="text12910">
        <path
           d="m 57.716797,40.49802 0,2.173828 2.618164,0 0,1.538086 -2.618164,0 0,3.623047 q 0,0.512695 0.246094,0.738281 0.252929,0.21875 0.833984,0.21875 l 1.538086,0 0,1.538086 -1.681641,0 q -1.722656,0 -2.331054,-0.546875 -0.608399,-0.553711 -0.608399,-2.043945 l 0,-3.527344 -1.955078,0 0,-1.538086 1.955078,0 0,-2.173828 2.00293,0 z"
           style="font-weight:bold;font-size:14px;font-family:monospace;stroke:none"
           id="path13136" />
        <path
           d="m 62.932617,42.671848 3.964844,0 0,6.118164 2.488281,0 0,1.538086 -6.986328,0 0,-1.538086 2.495117,0 0,-4.580078 -1.961914,0 0,-1.538086 z m 1.961914,-3.725586 2.00293,0 0,2.337891 -2.00293,0 0,-2.337891 z"
           style="font-weight:bold;font-size:14px;font-family:monospace;stroke:none"
           id="path13138" />
        <path
           d="m 74.560547,43.437473 q 0.225586,-0.485351 0.574219,-0.717773 0.348632,-0.232422 0.854492,-0.232422 0.991211,0 1.367187,0.683594 0.382813,0.683593 0.382813,2.84375 l 0,4.313476 -1.640625,0 0,-4.915039 q 0,-0.854492 -0.129883,-1.141601 -0.129883,-0.28711 -0.47168,-0.28711 -0.341797,0 -0.478515,0.293946 -0.136719,0.293945 -0.136719,1.134765 l 0,4.915039 -1.620117,0 0,-4.915039 q 0,-0.84082 -0.136719,-1.134765 -0.136719,-0.293946 -0.478516,-0.293946 -0.341797,0 -0.471679,0.28711 -0.129883,0.287109 -0.129883,1.141601 l 0,4.915039 -1.640625,0 0,-7.65625 1.456055,0 0,0.792969 q 0.170898,-0.451172 0.546875,-0.710937 0.375976,-0.266602 0.84082,-0.266602 0.464844,0 0.847656,0.280273 0.382813,0.273438 0.464844,0.669922 z"
           style="font-weight:bold;font-size:14px;font-family:monospace;stroke:none"
           id="path13140" />
        <path
           d="m 85.798828,49.952122 q -0.697266,0.287109 -1.421875,0.430664 -0.724609,0.143554 -1.53125,0.143554 -1.920898,0 -2.939453,-1.02539 -1.011719,-1.032227 -1.011719,-2.966797 0,-1.873047 0.977539,-2.959961 0.977539,-1.086914 2.666016,-1.086914 1.702148,0 2.638672,1.011719 0.943359,1.004883 0.943359,2.836914 l 0,0.813476 -5.188476,0 q 0.0068,0.902344 0.533203,1.34668 0.526367,0.444336 1.572265,0.444336 0.69043,0 1.360352,-0.198242 0.669922,-0.198242 1.401367,-0.628906 l 0,1.838867 z m -1.695312,-4.306641 q -0.01367,-0.792969 -0.410157,-1.196289 -0.389648,-0.410156 -1.155273,-0.410156 -0.69043,0 -1.100586,0.423828 -0.410156,0.416992 -0.485352,1.189453 l 3.151368,-0.0068 z"
           style="font-weight:bold;font-size:14px;font-family:monospace;stroke:none"
           id="path13142" />
        <path
           d="m 94.555664,44.784153 q -0.328125,-0.300781 -0.772461,-0.451172 -0.4375,-0.150391 -0.963867,-0.150391 -0.635742,0 -1.114258,0.225586 -0.47168,0.21875 -0.731445,0.642579 -0.164063,0.259765 -0.232422,0.628906 -0.06152,0.36914 -0.06152,1.121094 l 0,3.527343 -2.002929,0 0,-7.65625 2.002929,0 0,1.189453 q 0.293946,-0.65625 0.902344,-1.011718 0.608399,-0.362305 1.421875,-0.362305 0.410156,0 0.799805,0.102539 0.396484,0.0957 0.751953,0.287109 l 0,1.907227 z"
           style="font-weight:bold;font-size:14px;font-family:monospace;stroke:none"
           id="path13144" />
      </g>
    </g>
    <g
       fill="rgb(255,255,255)"
       fill-opacity="0"
       transform="translate(620,570)"
       stroke-opacity="0"
       stroke="rgb(255,255,255)"
       id="g12912">
      <path
         style="stroke:none"
         clip-path="url(#clipPath5)"
         d="M 0.5,0.5 489,0.5 489,89 0.5,89 Z"
         id="rect12914" />
    </g>
    <g
       transform="translate(620,570)"
       id="g12916">
      <path
         style="fill:none"
         clip-path="url(#clipPath5)"
         d="M 0.5,0.5 489,0.5 489,89 0.5,89 Z"
         id="rect12918" />
      <g
         clip-path="url(#clipPath5)"
         style="font-weight:bold;font-size:14px;font-family:monospace;stroke:none"
         id="text12920">
        <path
           d="m 232.7168,43.437473 q 0.22558,-0.485351 0.57422,-0.717773 0.34863,-0.232422 0.85449,-0.232422 0.99121,0 1.36719,0.683594 0.38281,0.683593 0.38281,2.84375 l 0,4.313476 -1.64063,0 0,-4.915039 q 0,-0.854492 -0.12988,-1.141601 -0.12988,-0.28711 -0.47168,-0.28711 -0.3418,0 -0.47852,0.293946 -0.13671,0.293945 -0.13671,1.134765 l 0,4.915039 -1.62012,0 0,-4.915039 q 0,-0.84082 -0.13672,-1.134765 -0.13672,-0.293946 -0.47852,-0.293946 -0.34179,0 -0.47168,0.28711 -0.12988,0.287109 -0.12988,1.141601 l 0,4.915039 -1.64062,0 0,-7.65625 1.45605,0 0,0.792969 q 0.1709,-0.451172 0.54688,-0.710937 0.37597,-0.266602 0.84082,-0.266602 0.46484,0 0.84765,0.280273 0.38282,0.273438 0.46485,0.669922 z"
           style="font-weight:bold;font-size:14px;font-family:monospace;stroke:none"
           id="path13149" />
        <path
           d="m 243.95508,49.952122 q -0.69727,0.287109 -1.42188,0.430664 -0.72461,0.143554 -1.53125,0.143554 -1.9209,0 -2.93945,-1.02539 -1.01172,-1.032227 -1.01172,-2.966797 0,-1.873047 0.97754,-2.959961 0.97754,-1.086914 2.66602,-1.086914 1.70214,0 2.63867,1.011719 0.94336,1.004883 0.94336,2.836914 l 0,0.813476 -5.18848,0 q 0.007,0.902344 0.5332,1.34668 0.52637,0.444336 1.57227,0.444336 0.69043,0 1.36035,-0.198242 0.66992,-0.198242 1.40137,-0.628906 l 0,1.838867 z m -1.69531,-4.306641 q -0.0137,-0.792969 -0.41016,-1.196289 -0.38965,-0.410156 -1.15527,-0.410156 -0.69043,0 -1.10059,0.423828 -0.41016,0.416992 -0.48535,1.189453 l 3.15137,-0.0068 z"
           style="font-weight:bold;font-size:14px;font-family:monospace;stroke:none"
           id="path13151" />
        <path
           d="m 249.62891,46.732395 q -1.1211,0 -1.56543,0.28711 -0.44434,0.287109 -0.44434,0.984375 0,0.519531 0.30762,0.827148 0.30761,0.307617 0.83398,0.307617 0.79297,0 1.23047,-0.594726 0.4375,-0.601563 0.4375,-1.674805 l 0,-0.136719 -0.7998,0 z m 2.78906,-0.772461 0,4.368164 -1.98926,0 0,-0.854492 q -0.3623,0.505859 -0.92969,0.779297 -0.56738,0.273437 -1.25097,0.273437 -1.30567,0 -2.03711,-0.690429 -0.72461,-0.69043 -0.72461,-1.927735 0,-1.339843 0.86816,-1.975586 0.86817,-0.642578 2.68653,-0.642578 l 1.38769,0 0,-0.334961 q 0,-0.485351 -0.35547,-0.731445 -0.34863,-0.25293 -1.03222,-0.25293 -0.71778,0 -1.39454,0.184571 -0.66992,0.177734 -1.40136,0.574218 l 0,-1.708984 q 0.66308,-0.273437 1.34668,-0.40332 0.68359,-0.129883 1.44922,-0.129883 1.86621,0 2.61816,0.758789 0.75879,0.758789 0.75879,2.713867 z"
           style="font-weight:bold;font-size:14px;font-family:monospace;stroke:none"
           id="path13153" />
        <path
           d="m 260.04004,42.911106 0,1.75 q -0.55371,-0.355469 -1.15527,-0.533203 -0.59473,-0.18457 -1.19629,-0.18457 -0.66993,0 -1.01172,0.198242 -0.3418,0.191406 -0.3418,0.574219 0,0.546875 1.46289,0.888671 l 0.0752,0.02051 0.57422,0.136719 q 1.09375,0.259766 1.5996,0.84082 0.5127,0.574219 0.5127,1.558594 0,1.182617 -0.7793,1.777344 -0.77246,0.58789 -2.33105,0.58789 -0.69043,0 -1.41504,-0.123046 -0.72461,-0.116211 -1.46973,-0.355469 l 0,-1.75 q 0.66309,0.375976 1.34668,0.574219 0.69043,0.198242 1.33301,0.198242 0.7041,0 1.06641,-0.205078 0.3623,-0.205078 0.3623,-0.594727 0,-0.382812 -0.25976,-0.587891 -0.25293,-0.205078 -1.2168,-0.4375 l -0.55371,-0.123046 q -1.14844,-0.259766 -1.67481,-0.813477 -0.52636,-0.553711 -0.52636,-1.483398 0,-1.107422 0.7998,-1.722657 0.79981,-0.615234 2.24902,-0.615234 0.64942,0 1.292,0.109375 0.64941,0.102539 1.25781,0.314453 z"
           style="font-weight:bold;font-size:14px;font-family:monospace;stroke:none"
           id="path13155" />
      </g>
    </g>
    <g
       fill="rgb(255,255,255)"
       fill-opacity="0"
       transform="translate(790,720)"
       stroke-opacity="0"
       stroke="rgb(255,255,255)"
       id="g12922">
      <path
         style="stroke:none"
         clip-path="url(#clipPath4)"
         d="M 0.5,0.5 149,0.5 149,89 0.5,89 Z"
         id="rect12924" />
    </g>
    <g
       transform="translate(790,720)"
       id="g12926">
      <path
         style="fill:none"
         clip-path="url(#clipPath4)"
         d="M 0.5,0.5 149,0.5 149,89 0.5,89 Z"
         id="rect12928" />
      <g
         clip-path="url(#clipPath4)"
         style="font-weight:bold;font-size:14px;font-family:monospace;stroke:none"
         id="text12930">
        <path
           d="m 56.021484,49.24802 0,3.992188 -1.996093,0 0,-10.56836 1.996093,0 0,1.148438 q 0.314453,-0.663086 0.827149,-0.998047 0.512695,-0.334961 1.203125,-0.334961 1.3125,0 2.037109,1.052734 0.72461,1.052735 0.72461,2.966797 0,1.941406 -0.738282,2.980469 -0.731445,1.039062 -2.091797,1.039062 -0.615234,0 -1.107421,-0.314453 -0.485352,-0.321289 -0.854493,-0.963867 z m 2.789063,-2.754883 q 0,-1.107422 -0.369141,-1.736328 -0.36914,-0.628906 -1.018554,-0.628906 -0.649415,0 -1.025391,0.628906 -0.375977,0.628906 -0.375977,1.736328 0,1.107422 0.375977,1.736328 0.375976,0.628907 1.025391,0.628907 0.649414,0 1.018554,-0.628907 0.369141,-0.628906 0.369141,-1.736328 z"
           style="font-weight:bold;font-size:14px;font-family:monospace;stroke:none"
           id="path13160" />
        <path
           d="m 69.290039,44.784153 q -0.328125,-0.300781 -0.772461,-0.451172 -0.4375,-0.150391 -0.963867,-0.150391 -0.635742,0 -1.114258,0.225586 -0.47168,0.21875 -0.731445,0.642579 -0.164063,0.259765 -0.232422,0.628906 -0.06152,0.36914 -0.06152,1.121094 l 0,3.527343 -2.002929,0 0,-7.65625 2.002929,0 0,1.189453 q 0.293946,-0.65625 0.902344,-1.011718 0.608399,-0.362305 1.421875,-0.362305 0.410156,0 0.799805,0.102539 0.396484,0.0957 0.751953,0.287109 l 0,1.907227 z"
           style="font-weight:bold;font-size:14px;font-family:monospace;stroke:none"
           id="path13162" />
        <path
           d="m 71.354492,42.671848 3.964844,0 0,6.118164 2.488281,0 0,1.538086 -6.986328,0 0,-1.538086 2.495117,0 0,-4.580078 -1.961914,0 0,-1.538086 z m 1.961914,-3.725586 2.00293,0 0,2.337891 -2.00293,0 0,-2.337891 z"
           style="font-weight:bold;font-size:14px;font-family:monospace;stroke:none"
           id="path13164" />
        <path
           d="m 85.586914,45.358372 0,4.969726 -1.989258,0 0,-4.662109 q 0,-0.833984 -0.239258,-1.189453 -0.232421,-0.362305 -0.765625,-0.362305 -0.540039,0 -0.854492,0.485352 -0.307617,0.485351 -0.307617,1.346679 l 0,4.381836 -1.989258,0 0,-7.65625 1.989258,0 0,1.148438 q 0.211914,-0.635742 0.724609,-0.984375 0.512696,-0.348633 1.237305,-0.348633 1.086914,0 1.640625,0.724609 0.553711,0.717774 0.553711,2.146485 z"
           style="font-weight:bold;font-size:14px;font-family:monospace;stroke:none"
           id="path13166" />
        <path
           d="m 91.404297,40.49802 0,2.173828 2.618164,0 0,1.538086 -2.618164,0 0,3.623047 q 0,0.512695 0.246094,0.738281 0.252929,0.21875 0.833984,0.21875 l 1.538086,0 0,1.538086 -1.681641,0 q -1.722656,0 -2.331054,-0.546875 -0.608399,-0.553711 -0.608399,-2.043945 l 0,-3.527344 -1.955078,0 0,-1.538086 1.955078,0 0,-2.173828 2.00293,0 z"
           style="font-weight:bold;font-size:14px;font-family:monospace;stroke:none"
           id="path13168" />
      </g>
    </g>
    <g
       fill="rgb(255,255,255)"
       fill-opacity="0"
       transform="translate(790,410)"
       stroke-opacity="0"
       stroke="rgb(255,255,255)"
       id="g12932">
      <path
         style="stroke:none"
         clip-path="url(#clipPath4)"
         d="M 0.5,0.5 149,0.5 149,89 0.5,89 Z"
         id="rect12934" />
    </g>
    <g
       transform="translate(790,410)"
       id="g12936">
      <path
         style="fill:none"
         clip-path="url(#clipPath4)"
         d="M 0.5,0.5 149,0.5 149,89 0.5,89 Z"
         id="rect12938" />
      <g
         clip-path="url(#clipPath4)"
         style="font-weight:bold;font-size:14px;font-family:monospace;stroke:none"
         id="text12940">
        <path
           d="m 48.533203,49.952122 q -0.697266,0.287109 -1.421875,0.430664 -0.724609,0.143554 -1.53125,0.143554 -1.920898,0 -2.939453,-1.02539 -1.011719,-1.032227 -1.011719,-2.966797 0,-1.873047 0.977539,-2.959961 0.977539,-1.086914 2.666016,-1.086914 1.702148,0 2.638672,1.011719 0.943359,1.004883 0.943359,2.836914 l 0,0.813476 -5.188476,0 q 0.0068,0.902344 0.533203,1.34668 0.526367,0.444336 1.572265,0.444336 0.69043,0 1.360352,-0.198242 0.669922,-0.198242 1.401367,-0.628906 l 0,1.838867 z m -1.695312,-4.306641 q -0.01367,-0.792969 -0.410157,-1.196289 -0.389648,-0.410156 -1.155273,-0.410156 -0.69043,0 -1.100586,0.423828 -0.410156,0.416992 -0.485352,1.189453 l 3.151368,-0.0068 z"
           style="font-weight:bold;font-size:14px;font-family:monospace;stroke:none"
           id="path13173" />
        <path
           d="m 57.303711,42.671848 -2.433594,7.65625 -2.467773,0 -2.433594,-7.65625 2.030273,0 1.633789,5.97461 1.640625,-5.97461 2.030274,0 z"
           style="font-weight:bold;font-size:14px;font-family:monospace;stroke:none"
           id="path13175" />
        <path
           d="m 62.628906,46.732395 q -1.121094,0 -1.565429,0.28711 -0.444336,0.287109 -0.444336,0.984375 0,0.519531 0.307617,0.827148 0.307617,0.307617 0.833984,0.307617 0.792969,0 1.230469,-0.594726 0.4375,-0.601563 0.4375,-1.674805 l 0,-0.136719 -0.799805,0 z m 2.789063,-0.772461 0,4.368164 -1.989258,0 0,-0.854492 q -0.362305,0.505859 -0.929688,0.779297 -0.567382,0.273437 -1.250976,0.273437 -1.305664,0 -2.03711,-0.690429 -0.724609,-0.69043 -0.724609,-1.927735 0,-1.339843 0.868164,-1.975586 0.868164,-0.642578 2.686524,-0.642578 l 1.387695,0 0,-0.334961 q 0,-0.485351 -0.355469,-0.731445 -0.348633,-0.25293 -1.032226,-0.25293 -0.717774,0 -1.394532,0.184571 -0.669922,0.177734 -1.401367,0.574218 l 0,-1.708984 q 0.663086,-0.273437 1.34668,-0.40332 0.683594,-0.129883 1.449219,-0.129883 1.866211,0 2.618164,0.758789 0.758789,0.758789 0.758789,2.713867 z"
           style="font-weight:bold;font-size:14px;font-family:monospace;stroke:none"
           id="path13177" />
        <path
           d="m 68.911133,47.135715 0,-5.90625 -2.030274,0 0,-1.538085 4.033203,0 0,7.444335 q 0,0.902344 0.280274,1.278321 0.280273,0.375976 0.950195,0.375976 l 1.59961,0 0,1.538086 -2.160157,0 q -1.428711,0 -2.050781,-0.738281 -0.62207,-0.738281 -0.62207,-2.454102 z"
           style="font-weight:bold;font-size:14px;font-family:monospace;stroke:none"
           id="path13179" />
        <path
           d="m 75.78125,47.655247 0,-4.983399 2.00293,0 0,4.675782 q 0,0.827148 0.232422,1.182617 0.232421,0.355468 0.77246,0.355468 0.54004,0 0.840821,-0.478515 0.307617,-0.478516 0.307617,-1.339844 l 0,-4.395508 2.00293,0 0,7.65625 -2.00293,0 0,-1.134765 q -0.211914,0.635742 -0.724609,0.984375 -0.50586,0.348632 -1.223633,0.348632 -1.09375,0 -1.654297,-0.724609 -0.553711,-0.724609 -0.553711,-2.146484 z"
           style="font-weight:bold;font-size:14px;font-family:monospace;stroke:none"
           id="path13181" />
        <path
           d="m 87.894531,46.732395 q -1.121094,0 -1.565429,0.28711 -0.444336,0.287109 -0.444336,0.984375 0,0.519531 0.307617,0.827148 0.307617,0.307617 0.833984,0.307617 0.792969,0 1.230469,-0.594726 0.4375,-0.601563 0.4375,-1.674805 l 0,-0.136719 -0.799805,0 z m 2.789063,-0.772461 0,4.368164 -1.989258,0 0,-0.854492 q -0.362305,0.505859 -0.929688,0.779297 -0.567382,0.273437 -1.250976,0.273437 -1.305664,0 -2.03711,-0.690429 -0.724609,-0.69043 -0.724609,-1.927735 0,-1.339843 0.868164,-1.975586 0.868164,-0.642578 2.686524,-0.642578 l 1.387695,0 0,-0.334961 q 0,-0.485351 -0.355469,-0.731445 -0.348633,-0.25293 -1.032226,-0.25293 -0.717774,0 -1.394532,0.184571 -0.669922,0.177734 -1.401367,0.574218 l 0,-1.708984 q 0.663086,-0.273437 1.34668,-0.40332 0.683594,-0.129883 1.449219,-0.129883 1.866211,0 2.618164,0.758789 0.758789,0.758789 0.758789,2.713867 z"
           style="font-weight:bold;font-size:14px;font-family:monospace;stroke:none"
           id="path13183" />
        <path
           d="m 96.248047,40.49802 0,2.173828 2.618164,0 0,1.538086 -2.618164,0 0,3.623047 q 0,0.512695 0.246094,0.738281 0.252929,0.21875 0.833984,0.21875 l 1.538086,0 0,1.538086 -1.681641,0 q -1.722656,0 -2.331054,-0.546875 -0.608399,-0.553711 -0.608399,-2.043945 l 0,-3.527344 -1.955078,0 0,-1.538086 1.955078,0 0,-2.173828 2.00293,0 z"
           style="font-weight:bold;font-size:14px;font-family:monospace;stroke:none"
           id="path13185" />
        <path
           d="m 107.48633,49.952122 q -0.69727,0.287109 -1.42188,0.430664 -0.72461,0.143554 -1.53125,0.143554 -1.9209,0 -2.93945,-1.02539 -1.01172,-1.032227 -1.01172,-2.966797 0,-1.873047 0.97754,-2.959961 0.97754,-1.086914 2.66602,-1.086914 1.70214,0 2.63867,1.011719 0.94336,1.004883 0.94336,2.836914 l 0,0.813476 -5.18848,0 q 0.007,0.902344 0.5332,1.34668 0.52637,0.444336 1.57227,0.444336 0.69043,0 1.36035,-0.198242 0.66992,-0.198242 1.40137,-0.628906 l 0,1.838867 z m -1.69531,-4.306641 q -0.0137,-0.792969 -0.41016,-1.196289 -0.38965,-0.410156 -1.15527,-0.410156 -0.69043,0 -1.10059,0.423828 -0.41016,0.416992 -0.48535,1.189453 l 3.15137,-0.0068 z"
           style="font-weight:bold;font-size:14px;font-family:monospace;stroke:none"
           id="path13187" />
      </g>
    </g>
    <g
       fill="rgb(255,255,255)"
       fill-opacity="0"
       transform="translate(960,410)"
       stroke-opacity="0"
       stroke="rgb(255,255,255)"
       id="g12942">
      <path
         style="stroke:none"
         clip-path="url(#clipPath4)"
         d="M 0.5,0.5 149,0.5 149,89 0.5,89 Z"
         id="rect12944" />
    </g>
    <g
       transform="translate(960,410)"
       id="g12946">
      <path
         style="fill:none"
         clip-path="url(#clipPath4)"
         d="M 0.5,0.5 149,0.5 149,89 0.5,89 Z"
         id="rect12948" />
      <g
         clip-path="url(#clipPath4)"
         style="font-weight:bold;font-size:14px;font-family:monospace;stroke:none"
         id="text12950">
        <path
           d="m 52.25293,49.93845 q -0.50586,0.293945 -1.086914,0.4375 -0.581055,0.15039 -1.250977,0.15039 -1.770508,0 -2.768555,-1.066406 -0.998047,-1.066406 -0.998047,-2.953125 0,-1.893554 1.004883,-2.959961 1.004883,-1.073242 2.775391,-1.073242 0.615234,0 1.182617,0.143555 0.574219,0.143554 1.141602,0.444336 l 0,1.832031 q -0.4375,-0.375977 -0.963868,-0.574219 -0.519531,-0.205078 -1.080078,-0.205078 -0.977539,0 -1.503906,0.62207 -0.526367,0.622071 -0.526367,1.770508 0,1.148438 0.526367,1.763672 0.526367,0.615234 1.503906,0.615234 0.581055,0 1.086914,-0.191406 0.50586,-0.198242 0.957032,-0.594726 l 0,1.838867 z"
           style="font-weight:bold;font-size:14px;font-family:monospace;stroke:none"
           id="path13192" />
        <path
           d="m 57.632812,44.114231 q -0.717773,0 -1.127929,0.635742 -0.410156,0.628907 -0.410156,1.756836 0,1.12793 0.410156,1.763672 0.410156,0.628906 1.127929,0.628906 0.72461,0 1.134766,-0.628906 0.410156,-0.635742 0.410156,-1.763672 0,-1.127929 -0.410156,-1.756836 -0.410156,-0.635742 -1.134766,-0.635742 z m -3.541015,2.392578 q 0,-1.852539 0.957031,-2.932617 0.963867,-1.086914 2.583984,-1.086914 1.626954,0 2.583985,1.086914 0.963867,1.080078 0.963867,2.932617 0,1.852539 -0.963867,2.939453 -0.957031,1.080078 -2.583985,1.080078 -1.620117,0 -2.583984,-1.080078 -0.957031,-1.086914 -0.957031,-2.939453 z"
           style="font-weight:bold;font-size:14px;font-family:monospace;stroke:none"
           id="path13194" />
        <path
           d="m 64.489258,47.135715 0,-5.90625 -2.030274,0 0,-1.538085 4.033203,0 0,7.444335 q 0,0.902344 0.280274,1.278321 0.280273,0.375976 0.950195,0.375976 l 1.59961,0 0,1.538086 -2.160157,0 q -1.428711,0 -2.050781,-0.738281 -0.62207,-0.738281 -0.62207,-2.454102 z"
           style="font-weight:bold;font-size:14px;font-family:monospace;stroke:none"
           id="path13196" />
        <path
           d="m 72.911133,47.135715 0,-5.90625 -2.030274,0 0,-1.538085 4.033203,0 0,7.444335 q 0,0.902344 0.280274,1.278321 0.280273,0.375976 0.950195,0.375976 l 1.59961,0 0,1.538086 -2.160157,0 q -1.428711,0 -2.050781,-0.738281 -0.62207,-0.738281 -0.62207,-2.454102 z"
           style="font-weight:bold;font-size:14px;font-family:monospace;stroke:none"
           id="path13198" />
        <path
           d="m 86.220703,49.952122 q -0.697266,0.287109 -1.421875,0.430664 -0.724609,0.143554 -1.53125,0.143554 -1.920898,0 -2.939453,-1.02539 -1.011719,-1.032227 -1.011719,-2.966797 0,-1.873047 0.977539,-2.959961 0.977539,-1.086914 2.666016,-1.086914 1.702148,0 2.638672,1.011719 0.943359,1.004883 0.943359,2.836914 l 0,0.813476 -5.188476,0 q 0.0068,0.902344 0.533203,1.34668 0.526367,0.444336 1.572265,0.444336 0.69043,0 1.360352,-0.198242 0.669922,-0.198242 1.401367,-0.628906 l 0,1.838867 z m -1.695312,-4.306641 q -0.01367,-0.792969 -0.410157,-1.196289 -0.389648,-0.410156 -1.155273,-0.410156 -0.69043,0 -1.100586,0.423828 -0.410156,0.416992 -0.485352,1.189453 l 3.151368,-0.0068 z"
           style="font-weight:bold;font-size:14px;font-family:monospace;stroke:none"
           id="path13200" />
        <path
           d="m 94.362305,49.93845 q -0.50586,0.293945 -1.086914,0.4375 -0.581055,0.15039 -1.250977,0.15039 -1.770508,0 -2.768555,-1.066406 -0.998047,-1.066406 -0.998047,-2.953125 0,-1.893554 1.004883,-2.959961 1.004883,-1.073242 2.775391,-1.073242 0.615234,0 1.182617,0.143555 0.574219,0.143554 1.141602,0.444336 l 0,1.832031 q -0.4375,-0.375977 -0.963868,-0.574219 -0.519531,-0.205078 -1.080078,-0.205078 -0.977539,0 -1.503906,0.62207 -0.526367,0.622071 -0.526367,1.770508 0,1.148438 0.526367,1.763672 0.526367,0.615234 1.503906,0.615234 0.581055,0 1.086914,-0.191406 0.50586,-0.198242 0.957032,-0.594726 l 0,1.838867 z"
           style="font-weight:bold;font-size:14px;font-family:monospace;stroke:none"
           id="path13202" />
        <path
           d="m 100.24805,40.49802 0,2.173828 2.61816,0 0,1.538086 -2.61816,0 0,3.623047 q 0,0.512695 0.24609,0.738281 0.25293,0.21875 0.83399,0.21875 l 1.53808,0 0,1.538086 -1.68164,0 q -1.722656,0 -2.331054,-0.546875 -0.608399,-0.553711 -0.608399,-2.043945 l 0,-3.527344 -1.955078,0 0,-1.538086 1.955078,0 0,-2.173828 2.002933,0 z"
           style="font-weight:bold;font-size:14px;font-family:monospace;stroke:none"
           id="path13204" />
      </g>
    </g>
    <g
       fill="rgb(255,255,255)"
       fill-opacity="0"
       transform="translate(960,280)"
       stroke-opacity="0"
       stroke="rgb(255,255,255)"
       id="g12952">
      <path
         style="stroke:none"
         clip-path="url(#clipPath4)"
         d="M 0.5,0.5 149,0.5 149,89 0.5,89 Z"
         id="rect12954" />
    </g>
    <g
       transform="translate(960,280)"
       id="g12956">
      <path
         style="fill:none"
         clip-path="url(#clipPath4)"
         d="M 0.5,0.5 149,0.5 149,89 0.5,89 Z"
         id="rect12958" />
      <g
         clip-path="url(#clipPath4)"
         style="font-weight:bold;font-size:14px;font-family:monospace;stroke:none"
         id="text12960">
        <path
           d="m 57.785156,46.732395 q -1.121094,0 -1.565429,0.28711 -0.444336,0.287109 -0.444336,0.984375 0,0.519531 0.307617,0.827148 0.307617,0.307617 0.833984,0.307617 0.792969,0 1.230469,-0.594726 0.4375,-0.601563 0.4375,-1.674805 l 0,-0.136719 -0.799805,0 z m 2.789063,-0.772461 0,4.368164 -1.989258,0 0,-0.854492 q -0.362305,0.505859 -0.929688,0.779297 -0.567382,0.273437 -1.250976,0.273437 -1.305664,0 -2.03711,-0.690429 -0.724609,-0.69043 -0.724609,-1.927735 0,-1.339843 0.868164,-1.975586 0.868164,-0.642578 2.686524,-0.642578 l 1.387695,0 0,-0.334961 q 0,-0.485351 -0.355469,-0.731445 -0.348633,-0.25293 -1.032226,-0.25293 -0.717774,0 -1.394532,0.184571 -0.669922,0.177734 -1.401367,0.574218 l 0,-1.708984 q 0.663086,-0.273437 1.34668,-0.40332 0.683594,-0.129883 1.449219,-0.129883 1.866211,0 2.618164,0.758789 0.758789,0.758789 0.758789,2.713867 z"
           style="font-weight:bold;font-size:14px;font-family:monospace;stroke:none"
           id="path13209" />
        <path
           d="m 66.138672,40.49802 0,2.173828 2.618164,0 0,1.538086 -2.618164,0 0,3.623047 q 0,0.512695 0.246094,0.738281 0.252929,0.21875 0.833984,0.21875 l 1.538086,0 0,1.538086 -1.681641,0 q -1.722656,0 -2.331054,-0.546875 -0.608399,-0.553711 -0.608399,-2.043945 l 0,-3.527344 -1.955078,0 0,-1.538086 1.955078,0 0,-2.173828 2.00293,0 z"
           style="font-weight:bold;font-size:14px;font-family:monospace;stroke:none"
           id="path13211" />
        <path
           d="m 74.560547,40.49802 0,2.173828 2.618164,0 0,1.538086 -2.618164,0 0,3.623047 q 0,0.512695 0.246094,0.738281 0.252929,0.21875 0.833984,0.21875 l 1.538086,0 0,1.538086 -1.681641,0 q -1.722656,0 -2.331054,-0.546875 -0.608399,-0.553711 -0.608399,-2.043945 l 0,-3.527344 -1.955078,0 0,-1.538086 1.955078,0 0,-2.173828 2.00293,0 z"
           style="font-weight:bold;font-size:14px;font-family:monospace;stroke:none"
           id="path13213" />
        <path
           d="m 86.133789,44.784153 q -0.328125,-0.300781 -0.772461,-0.451172 -0.4375,-0.150391 -0.963867,-0.150391 -0.635742,0 -1.114258,0.225586 -0.47168,0.21875 -0.731445,0.642579 -0.164063,0.259765 -0.232422,0.628906 -0.06152,0.36914 -0.06152,1.121094 l 0,3.527343 -2.002929,0 0,-7.65625 2.002929,0 0,1.189453 q 0.293946,-0.65625 0.902344,-1.011718 0.608399,-0.362305 1.421875,-0.362305 0.410156,0 0.799805,0.102539 0.396484,0.0957 0.751953,0.287109 l 0,1.907227 z"
           style="font-weight:bold;font-size:14px;font-family:monospace;stroke:none"
           id="path13215" />
        <path
           d="m 93.461914,42.911106 0,1.75 q -0.553711,-0.355469 -1.155273,-0.533203 -0.594727,-0.18457 -1.196289,-0.18457 -0.669922,0 -1.011719,0.198242 -0.341797,0.191406 -0.341797,0.574219 0,0.546875 1.462891,0.888671 l 0.07519,0.02051 0.574219,0.136719 q 1.09375,0.259766 1.599609,0.84082 0.512695,0.574219 0.512695,1.558594 0,1.182617 -0.779297,1.777344 -0.772461,0.58789 -2.331054,0.58789 -0.69043,0 -1.415039,-0.123046 -0.72461,-0.116211 -1.469727,-0.355469 l 0,-1.75 q 0.663086,0.375976 1.34668,0.574219 0.690429,0.198242 1.333008,0.198242 0.704101,0 1.066406,-0.205078 0.362305,-0.205078 0.362305,-0.594727 0,-0.382812 -0.259766,-0.587891 -0.25293,-0.205078 -1.216797,-0.4375 l -0.553711,-0.123046 q -1.148437,-0.259766 -1.674805,-0.813477 -0.526367,-0.553711 -0.526367,-1.483398 0,-1.107422 0.799805,-1.722657 0.799805,-0.615234 2.249023,-0.615234 0.649414,0 1.291993,0.109375 0.649414,0.102539 1.257812,0.314453 z"
           style="font-weight:bold;font-size:14px;font-family:monospace;stroke:none"
           id="path13217" />
      </g>
    </g>
    <g
       stroke-dasharray="8,5"
       stroke-miterlimit="5"
       transform="translate(690,170)"
       stroke-linecap="butt"
       id="g12962">
      <path
         fill="none"
         d="M10.5 10.5 L10.5 240.5"
         clip-path="url(#clipPath6)"
         id="path12964" />
      <path
         fill="none"
         stroke-dasharray="none"
         d="M4 21.7583 L10.5 10.5 L17 21.7583"
         stroke-miterlimit="10"
         clip-path="url(#clipPath6)"
         stroke-linecap="square"
         id="path12966" />
    </g>
    <g
       stroke-dasharray="8,5"
       stroke-miterlimit="5"
       transform="translate(900,800)"
       stroke-linecap="butt"
       id="g12968">
      <path
         fill="none"
         d="M190.5 100.5 L10.5 10.5"
         clip-path="url(#clipPath7)"
         id="path12970" />
      <path
         fill="none"
         stroke-dasharray="none"
         d="M183.3371 89.6513 L190.5 100.5 L177.5234 101.2789"
         stroke-miterlimit="10"
         clip-path="url(#clipPath7)"
         stroke-linecap="square"
         id="path12972" />
    </g>
    <g
       stroke-dasharray="8,5"
       stroke-miterlimit="5"
       transform="translate(850,800)"
       stroke-linecap="butt"
       id="g12974">
      <path
         fill="none"
         d="M10.5 100.5 L10.5 10.5"
         clip-path="url(#clipPath8)"
         id="path12976" />
      <path
         fill="none"
         stroke-dasharray="none"
         d="M17 89.2417 L10.5 100.5 L4 89.2417"
         stroke-miterlimit="10"
         clip-path="url(#clipPath8)"
         stroke-linecap="square"
         id="path12978" />
    </g>
    <g
       stroke-dasharray="8,5"
       stroke-miterlimit="5"
       transform="translate(640,800)"
       stroke-linecap="butt"
       id="g12980">
      <path
         fill="none"
         d="M10.5 100.5 L170.5 10.5"
         clip-path="url(#clipPath9)"
         id="path12982" />
      <path
         fill="none"
         stroke-dasharray="none"
         d="M23.4992 100.6457 L10.5 100.5 L17.1258 89.3152"
         stroke-miterlimit="10"
         clip-path="url(#clipPath9)"
         stroke-linecap="square"
         id="path12984" />
    </g>
    <g
       stroke-dasharray="8,5"
       stroke-miterlimit="5"
       transform="translate(1020,170)"
       stroke-linecap="butt"
       id="g12986">
      <path
         fill="none"
         d="M10.5 10.5 L10.5 110.5"
         clip-path="url(#clipPath10)"
         id="path12988" />
      <path
         fill="none"
         stroke-dasharray="none"
         d="M4 21.7583 L10.5 10.5 L17 21.7583"
         stroke-miterlimit="10"
         clip-path="url(#clipPath10)"
         stroke-linecap="square"
         id="path12990" />
    </g>
    <g
       transform="translate(1020,360)"
       id="g12992">
      <path
         fill="none"
         d="M10.5 10.5 L10.5 50.5"
         clip-path="url(#clipPath11)"
         id="path12994" />
      <path
         fill="none"
         d="M4 21.7583 L10.5 10.5 L17 21.7583"
         clip-path="url(#clipPath11)"
         id="path12996" />
    </g>
    <g
       transform="translate(850,650)"
       id="g12998">
      <path
         fill="none"
         d="M10.5 70.5 L10.5 10.5"
         clip-path="url(#clipPath12)"
         id="path13000" />
      <path
         fill="none"
         d="M17 59.2417 L10.5 70.5 L4 59.2417"
         clip-path="url(#clipPath12)"
         id="path13002" />
    </g>
    <g
       transform="translate(1020,490)"
       id="g13004">
      <path
         fill="none"
         d="M10.5 10.5 L10.5 80.5"
         clip-path="url(#clipPath13)"
         id="path13006" />
      <path
         fill="none"
         d="M4 21.7583 L10.5 10.5 L17 21.7583"
         clip-path="url(#clipPath13)"
         id="path13008" />
    </g>
    <g
       transform="translate(850,490)"
       id="g13010">
      <path
         fill="none"
         d="M10.5 10.5 L10.5 80.5"
         clip-path="url(#clipPath13)"
         id="path13012" />
      <path
         fill="none"
         d="M4 21.7583 L10.5 10.5 L17 21.7583"
         clip-path="url(#clipPath13)"
         id="path13014" />
    </g>
    <g
       transform="translate(690,490)"
       id="g13016">
      <path
         fill="none"
         d="M10.5 10.5 L10.5 80.5"
         clip-path="url(#clipPath13)"
         id="path13018" />
      <path
         fill="none"
         d="M4 21.7583 L10.5 10.5 L17 21.7583"
         clip-path="url(#clipPath13)"
         id="path13020" />
    </g>
  </g>
</svg>
