<?xml version="1.0" encoding="UTF-8" standalone="no"?>
<svg
   xmlns:dc="http://purl.org/dc/elements/1.1/"
   xmlns:cc="http://creativecommons.org/ns#"
   xmlns:rdf="http://www.w3.org/1999/02/22-rdf-syntax-ns#"
   xmlns:svg="http://www.w3.org/2000/svg"
   xmlns="http://www.w3.org/2000/svg"
   xmlns:sodipodi="http://sodipodi.sourceforge.net/DTD/sodipodi-0.dtd"
   xmlns:inkscape="http://www.inkscape.org/namespaces/inkscape"
   fill-opacity="1"
   color-rendering="auto"
   color-interpolation="auto"
   stroke="black"
   text-rendering="auto"
   stroke-linecap="square"
   width="570"
   stroke-miterlimit="10"
   stroke-opacity="1"
   shape-rendering="auto"
   fill="black"
   stroke-dasharray="none"
   font-weight="normal"
   stroke-width="1"
   viewBox="90 120 570 300"
   height="300"
   font-family="'Dialog'"
   font-style="normal"
   stroke-linejoin="miter"
   font-size="12"
   stroke-dashoffset="0"
   image-rendering="auto"
   id="svg5659"
   version="1.1"
   inkscape:version="0.91 r13725"
   sodipodi:docname="meas_read_times_1.svg">
  <metadata
     id="metadata5839">
    <rdf:RDF>
      <cc:Work
         rdf:about="">
        <dc:format>image/svg+xml</dc:format>
        <dc:type
           rdf:resource="http://purl.org/dc/dcmitype/StillImage" />
      </cc:Work>
    </rdf:RDF>
  </metadata>
  <sodipodi:namedview
     pagecolor="#ffffff"
     bordercolor="#666666"
     borderopacity="1"
     objecttolerance="10"
     gridtolerance="10"
     guidetolerance="10"
     inkscape:pageopacity="0"
     inkscape:pageshadow="2"
     inkscape:window-width="1280"
     inkscape:window-height="736"
     id="namedview5837"
     showgrid="false"
     inkscape:zoom="1.8"
     inkscape:cx="285"
     inkscape:cy="150"
     inkscape:window-x="0"
     inkscape:window-y="27"
     inkscape:window-maximized="1"
     inkscape:current-layer="svg5659" />
  <!--Generated by the Batik Graphics2D SVG Generator-->
  <defs
     id="genericDefs" />
  <g
     id="g5662">
    <defs
       id="defs1">
      <clipPath
         clipPathUnits="userSpaceOnUse"
         id="clipPath1">
        <path
           d="M0 0 L2147483647 0 L2147483647 2147483647 L0 2147483647 L0 0 Z"
           id="path5666" />
      </clipPath>
      <clipPath
         clipPathUnits="userSpaceOnUse"
         id="clipPath2">
        <path
           d="M0 0 L0 110 L120 110 L120 0 Z"
           id="path5669" />
      </clipPath>
      <clipPath
         clipPathUnits="userSpaceOnUse"
         id="clipPath3">
        <path
           d="M0 0 L0 60 L170 60 L170 0 Z"
           id="path5672" />
      </clipPath>
      <clipPath
         clipPathUnits="userSpaceOnUse"
         id="clipPath4">
        <path
           d="M0 0 L0 30 L80 30 L80 0 Z"
           id="path5675" />
      </clipPath>
      <clipPath
         clipPathUnits="userSpaceOnUse"
         id="clipPath5">
        <path
           d="M0 0 L0 20 L190 20 L190 0 Z"
           id="path5678" />
      </clipPath>
      <clipPath
         clipPathUnits="userSpaceOnUse"
         id="clipPath6">
        <path
           d="M0 0 L0 30 L120 30 L120 0 Z"
           id="path5681" />
      </clipPath>
      <clipPath
         clipPathUnits="userSpaceOnUse"
         id="clipPath7">
        <path
           d="M0 0 L0 20 L120 20 L120 0 Z"
           id="path5684" />
      </clipPath>
      <clipPath
         clipPathUnits="userSpaceOnUse"
         id="clipPath8">
        <path
           d="M0 0 L0 70 L30 70 L30 0 Z"
           id="path5687" />
      </clipPath>
      <clipPath
         clipPathUnits="userSpaceOnUse"
         id="clipPath9">
        <path
           d="M0 0 L0 40 L220 40 L220 0 Z"
           id="path5690" />
      </clipPath>
      <clipPath
         clipPathUnits="userSpaceOnUse"
         id="clipPath10">
        <path
           d="M0 0 L0 100 L30 100 L30 0 Z"
           id="path5693" />
      </clipPath>
      <clipPath
         clipPathUnits="userSpaceOnUse"
         id="clipPath11">
        <path
           d="M0 0 L0 40 L150 40 L150 0 Z"
           id="path5696" />
      </clipPath>
      <clipPath
         clipPathUnits="userSpaceOnUse"
         id="clipPath12">
        <path
           d="M0 0 L0 30 L500 30 L500 0 Z"
           id="path5699" />
      </clipPath>
    </defs>
    <g
       fill="rgb(255,255,255)"
       fill-opacity="0.4902"
       transform="translate(150,140)"
       stroke-opacity="0.4902"
       stroke="rgb(255,255,255)"
       id="g5701">
      <path
         d="M0.5 0.5 L108.5 0.5 L119 12.5 L119 109 L0.5 109 L0.5 0.5"
         clip-path="url(#clipPath2)"
         stroke="none"
         id="path5703" />
    </g>
    <g
       transform="translate(150,140)"
       id="g5705">
      <path
         fill="none"
         d="M0.5 0.5 L108.5 0.5 L119 12.5 L119 109 L0.5 109 L0.5 0.5"
         clip-path="url(#clipPath2)"
         id="path5707" />
      <path
         fill="none"
         d="M108.5 0.5 L108.5 12.5 L119 12.5"
         clip-path="url(#clipPath2)"
         id="path5709" />
      <g
         clip-path="url(#clipPath2)"
         style="font-size:14px;font-family:monospace;stroke:none"
         id="text5711">
        <path
           d="m 9.1972656,8.2793217 0,2.1738283 2.8574224,0 0,0.977539 -2.8574224,0 0,4.15625 q 0,0.847656 0.3212891,1.182617 0.3212891,0.334961 1.1210933,0.334961 l 1.41504,0 0,1.004883 -1.538086,0 q -1.4150395,0 -1.9960942,-0.567383 -0.5810547,-0.567383 -0.5810547,-1.955078 l 0,-4.15625 -2.0439453,0 0,-0.977539 2.0439453,0 0,-2.1738283 1.2578125,0 z"
           style="font-size:14px;font-family:monospace;stroke:none"
           id="path6576" />
        <path
           d="m 15.171875,10.45315 3.219727,0 0,6.678711 2.495117,0 0,0.977539 -6.248047,0 0,-0.977539 2.495117,0 0,-5.701172 -1.961914,0 0,-0.977539 z m 1.961914,-2.980469 1.257813,0 0,1.5927735 -1.257813,0 0,-1.5927735 z"
           style="font-size:14px;font-family:monospace;stroke:none"
           id="path6578" />
        <path
           d="m 26.464844,11.232447 q 0.232422,-0.492188 0.58789,-0.72461 0.362305,-0.239258 0.868164,-0.239258 0.922852,0 1.298829,0.717774 0.382812,0.710937 0.382812,2.686523 l 0,4.436524 -1.148437,0 0,-4.381836 q 0,-1.620117 -0.184571,-2.009766 -0.177734,-0.396484 -0.65625,-0.396484 -0.546875,0 -0.751953,0.423828 -0.198242,0.416992 -0.198242,1.982422 l 0,4.381836 -1.148438,0 0,-4.381836 q 0,-1.640625 -0.198242,-2.023438 -0.191406,-0.382812 -0.697265,-0.382812 -0.499024,0 -0.697266,0.423828 -0.191406,0.416992 -0.191406,1.982422 l 0,4.381836 -1.141602,0 0,-7.65625 1.141602,0 0,0.65625 q 0.225586,-0.410156 0.560547,-0.622071 0.341796,-0.21875 0.772461,-0.21875 0.519531,0 0.861328,0.239258 0.348632,0.239258 0.540039,0.72461 z"
           style="font-size:14px;font-family:monospace;stroke:none"
           id="path6580" />
        <path
           d="m 37.867187,13.966822 0,0.615234 -5.448242,0 0,0.04102 q 0,1.250976 0.649414,1.93457 0.65625,0.683594 1.845703,0.683594 0.601563,0 1.257813,-0.191407 0.65625,-0.191406 1.401367,-0.581054 l 0,1.250976 q -0.717773,0.293946 -1.387695,0.4375 -0.663086,0.150391 -1.285156,0.150391 -1.78418,0 -2.789063,-1.066406 -1.004883,-1.073242 -1.004883,-2.953125 0,-1.832032 0.984375,-2.925782 0.984375,-1.09375 2.625,-1.09375 1.462891,0 2.303711,0.991211 0.847656,0.991211 0.847656,2.707032 z m -1.257812,-0.369141 q -0.02734,-1.107422 -0.526367,-1.681641 -0.492188,-0.581054 -1.421875,-0.581054 -0.90918,0 -1.497071,0.601562 -0.58789,0.601563 -0.697265,1.667969 l 4.142578,-0.0068 z"
           style="font-size:14px;font-family:monospace;stroke:none"
           id="path6582" />
        <path
           d="m 51.908203,14.260767 -0.416992,0 q -1.100586,0 -1.661133,0.389648 -0.553711,0.382813 -0.553711,1.148438 0,0.69043 0.416992,1.073242 0.416993,0.382813 1.155274,0.382813 1.039062,0 1.633789,-0.717774 0.594726,-0.724609 0.601562,-1.996094 l 0,-0.280273 -1.175781,0 z m 2.44043,-0.519531 0,4.368164 -1.264649,0 0,-1.134766 q -0.40332,0.683594 -1.018554,1.011719 -0.608399,0.321289 -1.483399,0.321289 -1.168945,0 -1.866211,-0.65625 -0.697265,-0.663086 -0.697265,-1.770508 0,-1.27832 0.854492,-1.941406 0.861328,-0.663086 2.522461,-0.663086 l 1.688476,0 0,-0.198242 q -0.0068,-0.916016 -0.464843,-1.326172 -0.458008,-0.416992 -1.462891,-0.416992 -0.642578,0 -1.298828,0.18457 -0.65625,0.18457 -1.27832,0.540039 l 0,-1.257812 q 0.697265,-0.266602 1.333007,-0.396485 0.642578,-0.136719 1.244141,-0.136719 0.950195,0 1.620117,0.280274 0.676758,0.280273 1.09375,0.84082 0.259766,0.341797 0.369141,0.847656 0.109375,0.499024 0.109375,1.503907 z"
           style="font-size:14px;font-family:monospace;stroke:none"
           id="path6584" />
        <path
           d="m 60.152344,11.232447 q 0.232422,-0.492188 0.58789,-0.72461 0.362305,-0.239258 0.868164,-0.239258 0.922852,0 1.298829,0.717774 0.382812,0.710937 0.382812,2.686523 l 0,4.436524 -1.148437,0 0,-4.381836 q 0,-1.620117 -0.184571,-2.009766 -0.177734,-0.396484 -0.65625,-0.396484 -0.546875,0 -0.751953,0.423828 -0.198242,0.416992 -0.198242,1.982422 l 0,4.381836 -1.148438,0 0,-4.381836 q 0,-1.640625 -0.198242,-2.023438 -0.191406,-0.382812 -0.697265,-0.382812 -0.499024,0 -0.697266,0.423828 -0.191406,0.416992 -0.191406,1.982422 l 0,4.381836 -1.141602,0 0,-7.65625 1.141602,0 0,0.65625 q 0.225586,-0.410156 0.560547,-0.622071 0.341796,-0.21875 0.772461,-0.21875 0.519531,0 0.861328,0.239258 0.348632,0.239258 0.540039,0.72461 z"
           style="font-size:14px;font-family:monospace;stroke:none"
           id="path6586" />
        <path
           d="m 68.164062,11.334986 q -0.957031,0 -1.449218,0.745117 -0.492188,0.745117 -0.492188,2.208008 0,1.456054 0.492188,2.208008 0.492187,0.745117 1.449218,0.745117 0.963868,0 1.456055,-0.745117 0.492188,-0.751954 0.492188,-2.208008 0,-1.462891 -0.492188,-2.208008 -0.492187,-0.745117 -1.456055,-0.745117 z m 0,-1.066407 q 1.592774,0 2.433594,1.032227 0.847656,1.032227 0.847656,2.987305 0,1.961914 -0.84082,2.99414 -0.84082,1.025391 -2.44043,1.025391 -1.592773,0 -2.433593,-1.025391 -0.840821,-1.032226 -0.840821,-2.99414 0,-1.955078 0.840821,-2.987305 0.84082,-1.032227 2.433593,-1.032227 z"
           style="font-size:14px;font-family:monospace;stroke:none"
           id="path6588" />
        <path
           d="m 73.708008,15.210962 0,-4.74414 1.257812,0 0,4.74414 q 0,1.032227 0.362305,1.517578 0.369141,0.485352 1.134766,0.485352 0.888671,0 1.360351,-0.62207 0.47168,-0.628907 0.47168,-1.797852 l 0,-4.327148 1.264648,0 0,7.642578 -1.264648,0 0,-1.148438 q -0.334961,0.663086 -0.916016,1.004883 -0.574219,0.341797 -1.346679,0.341797 -1.175782,0 -1.75,-0.765625 -0.574219,-0.772461 -0.574219,-2.331055 z"
           style="font-size:14px;font-family:monospace;stroke:none"
           id="path6590" />
        <path
           d="m 87.981445,13.365259 0,4.744141 -1.264648,0 0,-4.744141 q 0,-1.032226 -0.362305,-1.517578 -0.362305,-0.485352 -1.134765,-0.485352 -0.881836,0 -1.360352,0.628907 -0.47168,0.62207 -0.47168,1.791015 l 0,4.327149 -1.257812,0 0,-7.65625 1.257812,0 0,1.148437 q 0.334961,-0.65625 0.90918,-0.991211 0.574219,-0.341797 1.360352,-0.341797 1.168945,0 1.743164,0.772461 0.581054,0.765625 0.581054,2.324219 z"
           style="font-size:14px;font-family:monospace;stroke:none"
           id="path6592" />
        <path
           d="m 93.416016,8.2793217 0,2.1738283 2.857421,0 0,0.977539 -2.857421,0 0,4.15625 q 0,0.847656 0.321289,1.182617 0.321289,0.334961 1.121093,0.334961 l 1.415039,0 0,1.004883 -1.538085,0 q -1.41504,0 -1.996094,-0.567383 -0.581055,-0.567383 -0.581055,-1.955078 l 0,-4.15625 -2.043945,0 0,-0.977539 2.043945,0 0,-2.1738283 1.257813,0 z"
           style="font-size:14px;font-family:monospace;stroke:none"
           id="path6594" />
      </g>
      <g
         clip-path="url(#clipPath2)"
         style="font-size:14px;font-family:monospace;stroke:none"
         id="text5713">
        <path
           d="m 9.1972656,24.388721 0,2.173829 2.8574224,0 0,0.977539 -2.8574224,0 0,4.15625 q 0,0.847656 0.3212891,1.182617 0.3212891,0.334961 1.1210933,0.334961 l 1.41504,0 0,1.004883 -1.538086,0 q -1.4150395,0 -1.9960942,-0.567383 -0.5810547,-0.567383 -0.5810547,-1.955078 l 0,-4.15625 -2.0439453,0 0,-0.977539 2.0439453,0 0,-2.173829 1.2578125,0 z"
           style="font-size:14px;font-family:monospace;stroke:none"
           id="path6597" />
        <path
           d="m 17.632812,27.444386 q -0.957031,0 -1.449218,0.745117 -0.492188,0.745117 -0.492188,2.208008 0,1.456054 0.492188,2.208007 0.492187,0.745118 1.449218,0.745118 0.963868,0 1.456055,-0.745118 0.492188,-0.751953 0.492188,-2.208007 0,-1.462891 -0.492188,-2.208008 -0.492187,-0.745117 -1.456055,-0.745117 z m 0,-1.066407 q 1.592774,0 2.433594,1.032227 0.847656,1.032226 0.847656,2.987305 0,1.961914 -0.84082,2.99414 -0.84082,1.025391 -2.44043,1.025391 -1.592773,0 -2.433593,-1.025391 -0.840821,-1.032226 -0.840821,-2.99414 0,-1.955079 0.840821,-2.987305 0.84082,-1.032227 2.433593,-1.032227 z"
           style="font-size:14px;font-family:monospace;stroke:none"
           id="path6599" />
        <path
           d="m 38.161133,28.141651 q -0.403321,-0.314453 -0.820313,-0.458008 -0.416992,-0.143554 -0.916015,-0.143554 -1.175782,0 -1.797852,0.738281 -0.62207,0.738281 -0.62207,2.132812 l 0,3.807618 -1.264649,0 0,-7.65625 1.264649,0 0,1.49707 q 0.314453,-0.813477 0.963867,-1.244141 0.65625,-0.4375 1.551758,-0.4375 0.464844,0 0.868164,0.116211 0.40332,0.116211 0.772461,0.362305 l 0,1.285156 z"
           style="font-size:14px;font-family:monospace;stroke:none"
           id="path6601" />
        <path
           d="m 46.289062,30.076221 0,0.615235 -5.448242,0 0,0.04102 q 0,1.250977 0.649414,1.934571 0.65625,0.683594 1.845703,0.683594 0.601563,0 1.257813,-0.191407 0.65625,-0.191406 1.401367,-0.581054 l 0,1.250976 q -0.717773,0.293945 -1.387695,0.4375 -0.663086,0.150391 -1.285156,0.150391 -1.78418,0 -2.789063,-1.066406 -1.004883,-1.073243 -1.004883,-2.953125 0,-1.832032 0.984375,-2.925782 0.984375,-1.09375 2.625,-1.09375 1.462891,0 2.303711,0.991211 0.847656,0.991211 0.847656,2.707031 z m -1.257812,-0.36914 q -0.02734,-1.107422 -0.526367,-1.681641 -0.492188,-0.581054 -1.421875,-0.581054 -0.90918,0 -1.497071,0.601562 -0.58789,0.601563 -0.697265,1.667969 l 4.142578,-0.0068 z"
           style="font-size:14px;font-family:monospace;stroke:none"
           id="path6603" />
        <path
           d="m 51.908203,30.370167 -0.416992,0 q -1.100586,0 -1.661133,0.389648 -0.553711,0.382813 -0.553711,1.148438 0,0.690429 0.416992,1.073242 0.416993,0.382812 1.155274,0.382812 1.039062,0 1.633789,-0.717773 0.594726,-0.724609 0.601562,-1.996094 l 0,-0.280273 -1.175781,0 z m 2.44043,-0.519531 0,4.368164 -1.264649,0 0,-1.134766 q -0.40332,0.683594 -1.018554,1.011719 -0.608399,0.321289 -1.483399,0.321289 -1.168945,0 -1.866211,-0.65625 -0.697265,-0.663086 -0.697265,-1.770508 0,-1.27832 0.854492,-1.941406 0.861328,-0.663086 2.522461,-0.663086 l 1.688476,0 0,-0.198242 q -0.0068,-0.916016 -0.464843,-1.326172 -0.458008,-0.416992 -1.462891,-0.416992 -0.642578,0 -1.298828,0.18457 -0.65625,0.18457 -1.27832,0.540039 l 0,-1.257813 q 0.697265,-0.266601 1.333007,-0.396484 0.642578,-0.136719 1.244141,-0.136719 0.950195,0 1.620117,0.280274 0.676758,0.280273 1.09375,0.84082 0.259766,0.341797 0.369141,0.847656 0.109375,0.499024 0.109375,1.503907 z"
           style="font-size:14px;font-family:monospace;stroke:none"
           id="path6605" />
        <path
           d="m 61.396484,27.540089 0,-3.958008 1.257813,0 0,10.636719 -1.257813,0 0,-0.963868 q -0.314453,0.567383 -0.84082,0.868164 -0.519531,0.293946 -1.203125,0.293946 -1.387695,0 -2.1875,-1.073242 -0.792969,-1.080079 -0.792969,-2.973633 0,-1.866211 0.799805,-2.925781 0.799805,-1.066407 2.180664,-1.066407 0.69043,0 1.216797,0.300782 0.526367,0.293945 0.827148,0.861328 z m -3.698242,2.857422 q 0,1.46289 0.464844,2.208007 0.464844,0.745118 1.374023,0.745118 0.90918,0 1.38086,-0.751954 0.478515,-0.751953 0.478515,-2.201171 0,-1.456055 -0.478515,-2.201172 -0.47168,-0.751953 -1.38086,-0.751953 -0.909179,0 -1.374023,0.745117 -0.464844,0.745117 -0.464844,2.208008 z"
           style="font-size:14px;font-family:monospace;stroke:none"
           id="path6607" />
        <path
           d="m 78.240234,27.540089 0,-3.958008 1.257813,0 0,10.636719 -1.257813,0 0,-0.963868 q -0.314453,0.567383 -0.84082,0.868164 -0.519531,0.293946 -1.203125,0.293946 -1.387695,0 -2.1875,-1.073242 -0.792969,-1.080079 -0.792969,-2.973633 0,-1.866211 0.799805,-2.925781 0.799805,-1.066407 2.180664,-1.066407 0.69043,0 1.216797,0.300782 0.526367,0.293945 0.827148,0.861328 z m -3.698242,2.857422 q 0,1.46289 0.464844,2.208007 0.464844,0.745118 1.374023,0.745118 0.90918,0 1.38086,-0.751954 0.478515,-0.751953 0.478515,-2.201171 0,-1.456055 -0.478515,-2.201172 -0.47168,-0.751953 -1.38086,-0.751953 -0.909179,0 -1.374023,0.745117 -0.464844,0.745117 -0.464844,2.208008 z"
           style="font-size:14px;font-family:monospace;stroke:none"
           id="path6609" />
        <path
           d="m 85.595703,30.370167 -0.416992,0 q -1.100586,0 -1.661133,0.389648 -0.553711,0.382813 -0.553711,1.148438 0,0.690429 0.416992,1.073242 0.416993,0.382812 1.155274,0.382812 1.039062,0 1.633789,-0.717773 0.594726,-0.724609 0.601562,-1.996094 l 0,-0.280273 -1.175781,0 z m 2.44043,-0.519531 0,4.368164 -1.264649,0 0,-1.134766 q -0.40332,0.683594 -1.018554,1.011719 -0.608399,0.321289 -1.483399,0.321289 -1.168945,0 -1.866211,-0.65625 -0.697265,-0.663086 -0.697265,-1.770508 0,-1.27832 0.854492,-1.941406 0.861328,-0.663086 2.522461,-0.663086 l 1.688476,0 0,-0.198242 q -0.0068,-0.916016 -0.464843,-1.326172 -0.458008,-0.416992 -1.462891,-0.416992 -0.642578,0 -1.298828,0.18457 -0.65625,0.18457 -1.27832,0.540039 l 0,-1.257813 q 0.697265,-0.266601 1.333007,-0.396484 0.642578,-0.136719 1.244141,-0.136719 0.950195,0 1.620117,0.280274 0.676758,0.280273 1.09375,0.84082 0.259766,0.341797 0.369141,0.847656 0.109375,0.499024 0.109375,1.503907 z"
           style="font-size:14px;font-family:monospace;stroke:none"
           id="path6611" />
        <path
           d="m 93.416016,24.388721 0,2.173829 2.857421,0 0,0.977539 -2.857421,0 0,4.15625 q 0,0.847656 0.321289,1.182617 0.321289,0.334961 1.121093,0.334961 l 1.415039,0 0,1.004883 -1.538085,0 q -1.41504,0 -1.996094,-0.567383 -0.581055,-0.567383 -0.581055,-1.955078 l 0,-4.15625 -2.043945,0 0,-0.977539 2.043945,0 0,-2.173829 1.257813,0 z"
           style="font-size:14px;font-family:monospace;stroke:none"
           id="path6613" />
        <path
           d="m 102.43945,30.370167 -0.41699,0 q -1.10058,0 -1.66113,0.389648 -0.553713,0.382813 -0.553713,1.148438 0,0.690429 0.416993,1.073242 0.41699,0.382812 1.15527,0.382812 1.03907,0 1.63379,-0.717773 0.59473,-0.724609 0.60156,-1.996094 l 0,-0.280273 -1.17578,0 z m 2.44043,-0.519531 0,4.368164 -1.26465,0 0,-1.134766 q -0.40332,0.683594 -1.01855,1.011719 -0.6084,0.321289 -1.4834,0.321289 -1.168944,0 -1.86621,-0.65625 -0.697265,-0.663086 -0.697265,-1.770508 0,-1.27832 0.854492,-1.941406 0.861333,-0.663086 2.522463,-0.663086 l 1.68847,0 0,-0.198242 q -0.007,-0.916016 -0.46484,-1.326172 -0.45801,-0.416992 -1.46289,-0.416992 -0.64258,0 -1.29883,0.18457 -0.656248,0.18457 -1.278318,0.540039 l 0,-1.257813 q 0.697265,-0.266601 1.333008,-0.396484 0.64258,-0.136719 1.24414,-0.136719 0.9502,0 1.62012,0.280274 0.67676,0.280273 1.09375,0.84082 0.25976,0.341797 0.36914,0.847656 0.10937,0.499024 0.10937,1.503907 z"
           style="font-size:14px;font-family:monospace;stroke:none"
           id="path6615" />
      </g>
      <g
         clip-path="url(#clipPath2)"
         style="font-size:14px;font-family:monospace;stroke:none"
         id="text5715">
        <path
           d="m 12.266602,39.69138 0,1.045898 -1.428711,0 q -0.676758,0 -0.9433597,0.280273 -0.2597657,0.273438 -0.2597657,0.977539 l 0,0.676758 2.6318364,0 0,0.977539 -2.6318364,0 0,6.678711 -1.2578125,0 0,-6.678711 -2.0439453,0 0,-0.977539 2.0439453,0 0,-0.533203 q 0,-1.257812 0.5742188,-1.852539 0.5810547,-0.594726 1.8046871,-0.594726 l 1.510743,0 z"
           style="font-size:14px;font-family:monospace;stroke:none"
           id="path6618" />
        <path
           d="m 21.317383,44.25095 q -0.403321,-0.314453 -0.820313,-0.458008 -0.416992,-0.143555 -0.916015,-0.143555 -1.175782,0 -1.797852,0.738282 -0.62207,0.738281 -0.62207,2.132812 l 0,3.807617 -1.264649,0 0,-7.65625 1.264649,0 0,1.497071 q 0.314453,-0.813477 0.963867,-1.244141 0.65625,-0.4375 1.551758,-0.4375 0.464844,0 0.868164,0.116211 0.40332,0.116211 0.772461,0.362305 l 0,1.285156 z"
           style="font-size:14px;font-family:monospace;stroke:none"
           id="path6620" />
        <path
           d="m 26.054687,43.553684 q -0.957031,0 -1.449218,0.745117 -0.492188,0.745118 -0.492188,2.208008 0,1.456055 0.492188,2.208008 0.492187,0.745117 1.449218,0.745117 0.963868,0 1.456055,-0.745117 0.492188,-0.751953 0.492188,-2.208008 0,-1.46289 -0.492188,-2.208008 -0.492187,-0.745117 -1.456055,-0.745117 z m 0,-1.066406 q 1.592774,0 2.433594,1.032227 0.847656,1.032226 0.847656,2.987304 0,1.961914 -0.84082,2.994141 -0.84082,1.02539 -2.44043,1.02539 -1.592773,0 -2.433593,-1.02539 -0.840821,-1.032227 -0.840821,-2.994141 0,-1.955078 0.840821,-2.987304 0.84082,-1.032227 2.433593,-1.032227 z"
           style="font-size:14px;font-family:monospace;stroke:none"
           id="path6622" />
        <path
           d="m 34.886719,43.451145 q 0.232422,-0.492187 0.58789,-0.724609 0.362305,-0.239258 0.868164,-0.239258 0.922852,0 1.298829,0.717773 0.382812,0.710938 0.382812,2.686524 l 0,4.436523 -1.148437,0 0,-4.381836 q 0,-1.620117 -0.184571,-2.009765 -0.177734,-0.396485 -0.65625,-0.396485 -0.546875,0 -0.751953,0.423828 -0.198242,0.416993 -0.198242,1.982422 l 0,4.381836 -1.148438,0 0,-4.381836 q 0,-1.640625 -0.198242,-2.023437 -0.191406,-0.382813 -0.697265,-0.382813 -0.499024,0 -0.697266,0.423828 -0.191406,0.416993 -0.191406,1.982422 l 0,4.381836 -1.141602,0 0,-7.65625 1.141602,0 0,0.65625 q 0.225586,-0.410156 0.560547,-0.62207 0.341796,-0.21875 0.772461,-0.21875 0.519531,0 0.861328,0.239258 0.348632,0.239258 0.540039,0.724609 z"
           style="font-size:14px;font-family:monospace;stroke:none"
           id="path6624" />
        <path
           d="m 53.186523,40.122044 1.298829,0 -5.373047,11.504882 -1.305664,0 5.379882,-11.504882 z"
           style="font-size:14px;font-family:monospace;stroke:none"
           id="path6626" />
        <path
           d="m 58.094727,49.364231 0,3.875977 -1.264649,0 0,-10.56836 1.264649,0 0,0.977539 q 0.314453,-0.567382 0.833984,-0.861328 0.526367,-0.300781 1.209961,-0.300781 1.387695,0 2.173828,1.073242 0.792969,1.073242 0.792969,2.973633 0,1.866211 -0.792969,2.932617 -0.792969,1.05957 -2.173828,1.05957 -0.697266,0 -1.223633,-0.293945 -0.519531,-0.300781 -0.820312,-0.868164 z m 3.691406,-2.857422 q 0,-1.46289 -0.464844,-2.208008 -0.458008,-0.745117 -1.367187,-0.745117 -0.916016,0 -1.387696,0.751953 -0.471679,0.745118 -0.471679,2.201172 0,1.449219 0.471679,2.201172 0.47168,0.751953 1.387696,0.751953 0.909179,0 1.367187,-0.745117 0.464844,-0.745117 0.464844,-2.208008 z"
           style="font-size:14px;font-family:monospace;stroke:none"
           id="path6628" />
        <path
           d="m 71.848633,44.25095 q -0.403321,-0.314453 -0.820313,-0.458008 -0.416992,-0.143555 -0.916015,-0.143555 -1.175782,0 -1.797852,0.738282 -0.62207,0.738281 -0.62207,2.132812 l 0,3.807617 -1.264649,0 0,-7.65625 1.264649,0 0,1.497071 q 0.314453,-0.813477 0.963867,-1.244141 0.65625,-0.4375 1.551758,-0.4375 0.464844,0 0.868164,0.116211 0.40332,0.116211 0.772461,0.362305 l 0,1.285156 z"
           style="font-size:14px;font-family:monospace;stroke:none"
           id="path6630" />
        <path
           d="m 76.585937,43.553684 q -0.957031,0 -1.449218,0.745117 -0.492188,0.745118 -0.492188,2.208008 0,1.456055 0.492188,2.208008 0.492187,0.745117 1.449218,0.745117 0.963868,0 1.456055,-0.745117 0.492188,-0.751953 0.492188,-2.208008 0,-1.46289 -0.492188,-2.208008 -0.492187,-0.745117 -1.456055,-0.745117 z m 0,-1.066406 q 1.592774,0 2.433594,1.032227 0.847656,1.032226 0.847656,2.987304 0,1.961914 -0.84082,2.994141 -0.84082,1.02539 -2.44043,1.02539 -1.592773,0 -2.433593,-1.02539 -0.840821,-1.032227 -0.840821,-2.994141 0,-1.955078 0.840821,-2.987304 0.84082,-1.032227 2.433593,-1.032227 z"
           style="font-size:14px;font-family:monospace;stroke:none"
           id="path6632" />
        <path
           d="m 88.049805,49.93845 q -0.50586,0.293945 -1.045899,0.4375 -0.533203,0.15039 -1.09375,0.15039 -1.777344,0 -2.782226,-1.066406 -0.998047,-1.066406 -0.998047,-2.953125 0,-1.886719 0.998047,-2.953125 1.004882,-1.066406 2.782226,-1.066406 0.553711,0 1.080078,0.143555 0.526368,0.143554 1.059571,0.444336 l 0,1.319336 q -0.499024,-0.444336 -1.004883,-0.642579 -0.499024,-0.198242 -1.134766,-0.198242 -1.182617,0 -1.818359,0.765625 -0.635742,0.765625 -0.635742,2.1875 0,1.415039 0.635742,2.1875 0.642578,0.765625 1.818359,0.765625 0.65625,0 1.175781,-0.198242 0.519532,-0.205078 0.963868,-0.628906 l 0,1.305664 z"
           style="font-size:14px;font-family:monospace;stroke:none"
           id="path6634" />
        <path
           d="m 92.650391,48.256809 1.722656,0 0,1.415039 -1.34668,2.618164 -1.052734,0 0.676758,-2.618164 0,-1.415039 z"
           style="font-size:14px;font-family:monospace;stroke:none"
           id="path6636" />
      </g>
      <g
         clip-path="url(#clipPath2)"
         style="font-size:14px;font-family:monospace;stroke:none"
         id="text5717">
        <path
           d="m 55.004883,60.360352 q -0.403321,-0.314454 -0.820313,-0.458008 -0.416992,-0.143555 -0.916015,-0.143555 -1.175782,0 -1.797852,0.738281 -0.62207,0.738282 -0.62207,2.132813 l 0,3.807617 -1.264649,0 0,-7.65625 1.264649,0 0,1.49707 q 0.314453,-0.813476 0.963867,-1.24414 0.65625,-0.4375 1.551758,-0.4375 0.464844,0 0.868164,0.116211 0.40332,0.116211 0.772461,0.362304 l 0,1.285157 z"
           style="font-size:14px;font-family:monospace;stroke:none"
           id="path6639" />
        <path
           d="m 59.728516,56.607422 0,2.173828 2.857421,0 0,0.977539 -2.857421,0 0,4.15625 q 0,0.847656 0.321289,1.182617 0.321289,0.334961 1.121093,0.334961 l 1.415039,0 0,1.004883 -1.538085,0 q -1.41504,0 -1.996094,-0.567383 -0.581055,-0.567383 -0.581055,-1.955078 l 0,-4.15625 -2.043945,0 0,-0.977539 2.043945,0 0,-2.173828 1.257813,0 z"
           style="font-size:14px;font-family:monospace;stroke:none"
           id="path6641" />
      </g>
      <g
         clip-path="url(#clipPath2)"
         style="font-size:14px;font-family:monospace;stroke:none"
         id="text5719" />
      <g
         clip-path="url(#clipPath2)"
         style="font-size:14px;font-family:monospace;stroke:none"
         id="text5721">
        <path
           d="m 21.249023,93.324165 0,1.189453 q -0.512695,0.403321 -1.004882,0.594727 -0.485352,0.18457 -1.025391,0.18457 -0.615234,0 -1.387695,-0.348632 -0.150391,-0.06836 -0.225586,-0.0957 -0.526367,-0.225586 -0.881836,-0.307617 -0.348633,-0.08203 -0.697266,-0.08203 -0.540039,0 -1.02539,0.205078 -0.478516,0.198242 -0.977539,0.628906 l 0,-1.189453 q 0.533203,-0.410156 1.032226,-0.594726 0.499024,-0.184571 1.066406,-0.184571 0.362305,0 0.704102,0.0752 0.341797,0.0752 0.847656,0.287109 0.08203,0.03418 0.225586,0.102539 0.792969,0.375977 1.428711,0.375977 0.478516,0 0.943359,-0.205078 0.47168,-0.211915 0.977539,-0.635743 z"
           style="font-size:14px;font-family:monospace;stroke:none"
           id="path6645" />
        <path
           d="m 31.21582,88.450142 6.425782,0 0,0.587891 -3.650391,9.618164 -1.442383,0 3.554688,-9.043946 -4.887696,0 0,-1.162109 z"
           style="font-size:14px;font-family:monospace;stroke:none"
           id="path6647" />
        <path
           d="m 41.989258,93.529243 q 0,-0.375976 0.259765,-0.649414 0.266602,-0.273437 0.635743,-0.273437 0.382812,0 0.65625,0.273437 0.273437,0.273438 0.273437,0.649414 0,0.382813 -0.273437,0.649415 -0.266602,0.266601 -0.65625,0.266601 -0.382813,0 -0.642579,-0.259766 -0.252929,-0.259765 -0.252929,-0.65625 z m 0.909179,-4.169921 q -0.963867,0 -1.442382,1.039062 -0.47168,1.039063 -0.47168,3.165039 0,2.119141 0.47168,3.158203 0.478515,1.039063 1.442382,1.039063 0.970704,0 1.442383,-1.039063 0.478516,-1.039062 0.478516,-3.158203 0,-2.125976 -0.478516,-3.165039 -0.471679,-1.039062 -1.442383,-1.039062 z m 0,-1.09375 q 1.63379,0 2.467774,1.339843 0.84082,1.339844 0.84082,3.958008 0,2.611328 -0.84082,3.951172 -0.833984,1.339844 -2.467774,1.339844 -1.633789,0 -2.467773,-1.339844 -0.833984,-1.339844 -0.833984,-3.951172 0,-2.618164 0.833984,-3.958008 0.833984,-1.339843 2.467773,-1.339843 z"
           style="font-size:14px;font-family:monospace;stroke:none"
           id="path6649" />
        <path
           d="m 50.411133,93.529243 q 0,-0.375976 0.259765,-0.649414 0.266602,-0.273437 0.635743,-0.273437 0.382812,0 0.65625,0.273437 0.273437,0.273438 0.273437,0.649414 0,0.382813 -0.273437,0.649415 -0.266602,0.266601 -0.65625,0.266601 -0.382813,0 -0.642579,-0.259766 -0.252929,-0.259765 -0.252929,-0.65625 z m 0.909179,-4.169921 q -0.963867,0 -1.442382,1.039062 -0.47168,1.039063 -0.47168,3.165039 0,2.119141 0.47168,3.158203 0.478515,1.039063 1.442382,1.039063 0.970704,0 1.442383,-1.039063 0.478516,-1.039062 0.478516,-3.158203 0,-2.125976 -0.478516,-3.165039 -0.471679,-1.039062 -1.442383,-1.039062 z m 0,-1.09375 q 1.63379,0 2.467774,1.339843 0.84082,1.339844 0.84082,3.958008 0,2.611328 -0.84082,3.951172 -0.833984,1.339844 -2.467774,1.339844 -1.633789,0 -2.467773,-1.339844 -0.833984,-1.339844 -0.833984,-3.951172 0,-2.618164 0.833984,-3.958008 0.833984,-1.339843 2.467773,-1.339843 z"
           style="font-size:14px;font-family:monospace;stroke:none"
           id="path6651" />
        <path
           d="m 58.833008,93.529243 q 0,-0.375976 0.259765,-0.649414 0.266602,-0.273437 0.635743,-0.273437 0.382812,0 0.65625,0.273437 0.273437,0.273438 0.273437,0.649414 0,0.382813 -0.273437,0.649415 -0.266602,0.266601 -0.65625,0.266601 -0.382813,0 -0.642579,-0.259766 -0.252929,-0.259765 -0.252929,-0.65625 z m 0.909179,-4.169921 q -0.963867,0 -1.442382,1.039062 -0.47168,1.039063 -0.47168,3.165039 0,2.119141 0.47168,3.158203 0.478515,1.039063 1.442382,1.039063 0.970704,0 1.442383,-1.039063 0.478516,-1.039062 0.478516,-3.158203 0,-2.125976 -0.478516,-3.165039 -0.471679,-1.039062 -1.442383,-1.039062 z m 0,-1.09375 q 1.63379,0 2.467774,1.339843 0.84082,1.339844 0.84082,3.958008 0,2.611328 -0.84082,3.951172 -0.833984,1.339844 -2.467774,1.339844 -1.633789,0 -2.467773,-1.339844 -0.833984,-1.339844 -0.833984,-3.951172 0,-2.618164 0.833984,-3.958008 0.833984,-1.339843 2.467773,-1.339843 z"
           style="font-size:14px;font-family:monospace;stroke:none"
           id="path6653" />
        <path
           d="m 73.708008,95.757759 0,-4.744141 1.257812,0 0,4.744141 q 0,1.032227 0.362305,1.517578 0.369141,0.485352 1.134766,0.485352 0.888671,0 1.360351,-0.622071 0.47168,-0.628906 0.47168,-1.797851 l 0,-4.327149 1.264648,0 0,7.642579 -1.264648,0 0,-1.148438 q -0.334961,0.663086 -0.916016,1.004883 -0.574219,0.341797 -1.346679,0.341797 -1.175782,0 -1.75,-0.765625 -0.574219,-0.772461 -0.574219,-2.331055 z"
           style="font-size:14px;font-family:monospace;stroke:none"
           id="path6655" />
        <path
           d="m 87.448242,91.266548 0,1.230469 q -0.540039,-0.314453 -1.086914,-0.47168 -0.546875,-0.157226 -1.114258,-0.157226 -0.854492,0 -1.27832,0.280273 -0.416992,0.273438 -0.416992,0.84082 0,0.512696 0.314453,0.765625 0.314453,0.25293 1.56543,0.492188 l 0.505859,0.0957 q 0.936523,0.177734 1.415039,0.710938 0.485352,0.533203 0.485352,1.387695 0,1.134765 -0.806641,1.777344 -0.806641,0.635742 -2.242188,0.635742 -0.567382,0 -1.189453,-0.123047 -0.62207,-0.116211 -1.346679,-0.355469 l 0,-1.298828 q 0.704101,0.362305 1.346679,0.546875 0.642578,0.177734 1.216797,0.177734 0.833985,0 1.291992,-0.334961 0.458008,-0.341796 0.458008,-0.950195 0,-0.875 -1.674804,-1.209961 l -0.05469,-0.01367 -0.47168,-0.0957 q -1.086914,-0.211914 -1.585937,-0.710937 -0.499024,-0.50586 -0.499024,-1.374024 0,-1.100586 0.745118,-1.695312 0.745117,-0.601563 2.125976,-0.601563 0.615235,0 1.182617,0.116211 0.567383,0.109375 1.114258,0.334961 z"
           style="font-size:14px;font-family:monospace;stroke:none"
           id="path6657" />
      </g>
    </g>
    <g
       fill="rgb(255,255,255)"
       fill-opacity="0.4902"
       transform="translate(300,190)"
       stroke-opacity="0.4902"
       stroke="rgb(255,255,255)"
       id="g5723">
      <path
         d="M0.5 0.5 L158.5 0.5 L169 12.5 L169 59 L0.5 59 L0.5 0.5"
         clip-path="url(#clipPath3)"
         stroke="none"
         id="path5725" />
    </g>
    <g
       transform="translate(300,190)"
       id="g5727">
      <path
         fill="none"
         d="M0.5 0.5 L158.5 0.5 L169 12.5 L169 59 L0.5 59 L0.5 0.5"
         clip-path="url(#clipPath3)"
         id="path5729" />
      <path
         fill="none"
         d="M158.5 0.5 L158.5 12.5 L169 12.5"
         clip-path="url(#clipPath3)"
         id="path5731" />
      <g
         clip-path="url(#clipPath3)"
         style="font-size:14px;font-family:monospace;stroke:none"
         id="text5733">
        <path
           d="m 6.3330078,15.210962 0,-4.74414 1.2578125,0 0,4.74414 q 0,1.032227 0.3623047,1.517578 0.3691406,0.485352 1.1347656,0.485352 0.8886719,0 1.3603514,-0.62207 0.47168,-0.628907 0.47168,-1.797852 l 0,-4.327148 1.264648,0 0,7.642578 -1.264648,0 0,-1.148438 q -0.334961,0.663086 -0.916016,1.004883 -0.5742185,0.341797 -1.3466794,0.341797 -1.1757813,0 -1.75,-0.765625 -0.5742188,-0.772461 -0.5742188,-2.331055 z"
           style="font-size:14px;font-family:monospace;stroke:none"
           id="path6660" />
        <path
           d="m 20.073242,10.719751 0,1.230469 q -0.540039,-0.314453 -1.086914,-0.47168 -0.546875,-0.157226 -1.114258,-0.157226 -0.854492,0 -1.27832,0.280273 -0.416992,0.273438 -0.416992,0.840821 0,0.512695 0.314453,0.765625 0.314453,0.252929 1.56543,0.492187 l 0.505859,0.0957 q 0.936523,0.177735 1.415039,0.710938 0.485352,0.533203 0.485352,1.387695 0,1.134766 -0.806641,1.777344 -0.806641,0.635742 -2.242188,0.635742 -0.567382,0 -1.189453,-0.123047 -0.62207,-0.116211 -1.346679,-0.355469 l 0,-1.298828 q 0.704101,0.362305 1.346679,0.546875 0.642578,0.177735 1.216797,0.177735 0.833985,0 1.291992,-0.334961 0.458008,-0.341797 0.458008,-0.950196 0,-0.875 -1.674804,-1.209961 l -0.05469,-0.01367 -0.47168,-0.0957 q -1.086914,-0.211914 -1.585937,-0.710937 -0.499024,-0.505859 -0.499024,-1.374024 0,-1.100585 0.745118,-1.695312 0.745117,-0.601563 2.125976,-0.601563 0.615235,0 1.182617,0.116211 0.567383,0.109375 1.114258,0.334961 z"
           style="font-size:14px;font-family:monospace;stroke:none"
           id="path6662" />
        <path
           d="m 26.211914,15.334009 q 0,0.847656 0.307617,1.27832 0.314453,0.430665 0.922852,0.430665 l 1.469726,0 0,1.066406 -1.592773,0 q -1.12793,0 -1.75,-0.72461 -0.615234,-0.724609 -0.615234,-2.050781 l 0,-6.9521483 -2.016602,0 0,-0.984375 3.274414,0 0,7.9365233 z"
           style="font-size:14px;font-family:monospace;stroke:none"
           id="path6664" />
        <path
           d="m 37.867187,13.966822 0,0.615234 -5.448242,0 0,0.04102 q 0,1.250976 0.649414,1.93457 0.65625,0.683594 1.845703,0.683594 0.601563,0 1.257813,-0.191407 0.65625,-0.191406 1.401367,-0.581054 l 0,1.250976 q -0.717773,0.293946 -1.387695,0.4375 -0.663086,0.150391 -1.285156,0.150391 -1.78418,0 -2.789063,-1.066406 -1.004883,-1.073242 -1.004883,-2.953125 0,-1.832032 0.984375,-2.925782 0.984375,-1.09375 2.625,-1.09375 1.462891,0 2.303711,0.991211 0.847656,0.991211 0.847656,2.707032 z m -1.257812,-0.369141 q -0.02734,-1.107422 -0.526367,-1.681641 -0.492188,-0.581054 -1.421875,-0.581054 -0.90918,0 -1.497071,0.601562 -0.58789,0.601563 -0.697265,1.667969 l 4.142578,-0.0068 z"
           style="font-size:14px;font-family:monospace;stroke:none"
           id="path6666" />
        <path
           d="m 46.289062,13.966822 0,0.615234 -5.448242,0 0,0.04102 q 0,1.250976 0.649414,1.93457 0.65625,0.683594 1.845703,0.683594 0.601563,0 1.257813,-0.191407 0.65625,-0.191406 1.401367,-0.581054 l 0,1.250976 q -0.717773,0.293946 -1.387695,0.4375 -0.663086,0.150391 -1.285156,0.150391 -1.78418,0 -2.789063,-1.066406 -1.004883,-1.073242 -1.004883,-2.953125 0,-1.832032 0.984375,-2.925782 0.984375,-1.09375 2.625,-1.09375 1.462891,0 2.303711,0.991211 0.847656,0.991211 0.847656,2.707032 z M 45.03125,13.597681 q -0.02734,-1.107422 -0.526367,-1.681641 -0.492188,-0.581054 -1.421875,-0.581054 -0.90918,0 -1.497071,0.601562 -0.58789,0.601563 -0.697265,1.667969 l 4.142578,-0.0068 z"
           style="font-size:14px;font-family:monospace;stroke:none"
           id="path6668" />
        <path
           d="m 49.672852,17.145533 0,3.875976 -1.264649,0 0,-10.568359 1.264649,0 0,0.977539 q 0.314453,-0.567383 0.833984,-0.861328 0.526367,-0.300782 1.209961,-0.300782 1.387695,0 2.173828,1.073243 0.792969,1.073242 0.792969,2.973632 0,1.866211 -0.792969,2.932618 -0.792969,1.05957 -2.173828,1.05957 -0.697266,0 -1.223633,-0.293945 -0.519531,-0.300782 -0.820312,-0.868164 z m 3.691406,-2.857422 q 0,-1.462891 -0.464844,-2.208008 -0.458008,-0.745117 -1.367187,-0.745117 -0.916016,0 -1.387696,0.751953 -0.471679,0.745117 -0.471679,2.201172 0,1.449218 0.471679,2.201172 0.47168,0.751953 1.387696,0.751953 0.909179,0 1.367187,-0.745117 0.464844,-0.745118 0.464844,-2.208008 z"
           style="font-size:14px;font-family:monospace;stroke:none"
           id="path6670" />
        <path
           d="m 61.581055,7.4863529 q -0.90918,1.5585938 -1.360352,3.1103511 -0.444336,1.544922 -0.444336,3.117188 0,1.56543 0.444336,3.117187 0.451172,1.551758 1.360352,3.124024 l -1.09375,0 q -1.032227,-1.626953 -1.538086,-3.165039 -0.50586,-1.544922 -0.50586,-3.076172 0,-1.524414 0.50586,-3.069336 0.505859,-1.5449218 1.538086,-3.1582031 l 1.09375,0 z"
           style="font-size:14px;font-family:monospace;stroke:none"
           id="path6672" />
        <path
           d="m 65.798828,16.94729 2.146484,0 0,-7.7998043 -2.310546,0.5195313 0,-1.2578125 2.296875,-0.5058594 1.380859,0 0,9.0439449 2.119141,0 0,1.16211 -5.632813,0 0,-1.16211 z"
           style="font-size:14px;font-family:monospace;stroke:none"
           id="path6674" />
        <path
           d="m 75.676758,12.982447 q 0,-0.375977 0.259765,-0.649414 0.266602,-0.273438 0.635743,-0.273438 0.382812,0 0.65625,0.273438 0.273437,0.273437 0.273437,0.649414 0,0.382812 -0.273437,0.649414 -0.266602,0.266601 -0.65625,0.266601 -0.382813,0 -0.642579,-0.259765 -0.252929,-0.259766 -0.252929,-0.65625 z m 0.909179,-4.1699222 q -0.963867,0 -1.442382,1.0390625 -0.47168,1.0390627 -0.47168,3.1650387 0,2.119141 0.47168,3.158203 0.478515,1.039063 1.442382,1.039063 0.970704,0 1.442383,-1.039063 0.478516,-1.039062 0.478516,-3.158203 0,-2.125976 -0.478516,-3.1650387 -0.471679,-1.0390625 -1.442383,-1.0390625 z m 0,-1.09375 q 1.63379,0 2.467774,1.3398437 0.84082,1.3398435 0.84082,3.9580075 0,2.611328 -0.84082,3.951172 -0.833984,1.339844 -2.467774,1.339844 -1.633789,0 -2.467773,-1.339844 -0.833984,-1.339844 -0.833984,-3.951172 0,-2.618164 0.833984,-3.9580075 0.833984,-1.3398437 2.467773,-1.3398437 z"
           style="font-size:14px;font-family:monospace;stroke:none"
           id="path6676" />
        <path
           d="m 84.098633,12.982447 q 0,-0.375977 0.259765,-0.649414 0.266602,-0.273438 0.635743,-0.273438 0.382812,0 0.65625,0.273438 0.273437,0.273437 0.273437,0.649414 0,0.382812 -0.273437,0.649414 -0.266602,0.266601 -0.65625,0.266601 -0.382813,0 -0.642579,-0.259765 -0.252929,-0.259766 -0.252929,-0.65625 z m 0.909179,-4.1699222 q -0.963867,0 -1.442382,1.0390625 -0.47168,1.0390627 -0.47168,3.1650387 0,2.119141 0.47168,3.158203 0.478515,1.039063 1.442382,1.039063 0.970704,0 1.442383,-1.039063 0.478516,-1.039062 0.478516,-3.158203 0,-2.125976 -0.478516,-3.1650387 -0.471679,-1.0390625 -1.442383,-1.0390625 z m 0,-1.09375 q 1.63379,0 2.467774,1.3398437 0.84082,1.3398435 0.84082,3.9580075 0,2.611328 -0.84082,3.951172 -0.833984,1.339844 -2.467774,1.339844 -1.633789,0 -2.467773,-1.339844 -0.833984,-1.339844 -0.833984,-3.951172 0,-2.618164 0.833984,-3.9580075 0.833984,-1.3398437 2.467773,-1.3398437 z"
           style="font-size:14px;font-family:monospace;stroke:none"
           id="path6678" />
        <path
           d="m 92.520508,12.982447 q 0,-0.375977 0.259765,-0.649414 0.266602,-0.273438 0.635743,-0.273438 0.382812,0 0.65625,0.273438 0.273437,0.273437 0.273437,0.649414 0,0.382812 -0.273437,0.649414 -0.266602,0.266601 -0.65625,0.266601 -0.382813,0 -0.642579,-0.259765 -0.252929,-0.259766 -0.252929,-0.65625 z m 0.909179,-4.1699222 q -0.963867,0 -1.442382,1.0390625 -0.47168,1.0390627 -0.47168,3.1650387 0,2.119141 0.47168,3.158203 0.478515,1.039063 1.442382,1.039063 0.970704,0 1.442383,-1.039063 0.478516,-1.039062 0.478516,-3.158203 0,-2.125976 -0.478516,-3.1650387 -0.471679,-1.0390625 -1.442383,-1.0390625 z m 0,-1.09375 q 1.63379,0 2.467774,1.3398437 0.84082,1.3398435 0.84082,3.9580075 0,2.611328 -0.84082,3.951172 -0.833984,1.339844 -2.467774,1.339844 -1.633789,0 -2.467773,-1.339844 -0.833984,-1.339844 -0.833984,-3.951172 0,-2.618164 0.833984,-3.9580075 0.833984,-1.3398437 2.467773,-1.3398437 z"
           style="font-size:14px;font-family:monospace;stroke:none"
           id="path6680" />
        <path
           d="m 100.94238,12.982447 q 0,-0.375977 0.25977,-0.649414 0.2666,-0.273438 0.63574,-0.273438 0.38281,0 0.65625,0.273438 0.27344,0.273437 0.27344,0.649414 0,0.382812 -0.27344,0.649414 -0.2666,0.266601 -0.65625,0.266601 -0.38281,0 -0.64258,-0.259765 -0.25293,-0.259766 -0.25293,-0.65625 z m 0.90918,-4.1699222 q -0.96386,0 -1.44238,1.0390625 -0.47168,1.0390627 -0.47168,3.1650387 0,2.119141 0.47168,3.158203 0.47852,1.039063 1.44238,1.039063 0.97071,0 1.44239,-1.039063 0.47851,-1.039062 0.47851,-3.158203 0,-2.125976 -0.47851,-3.1650387 -0.47168,-1.0390625 -1.44239,-1.0390625 z m 0,-1.09375 q 1.63379,0 2.46778,1.3398437 0.84082,1.3398435 0.84082,3.9580075 0,2.611328 -0.84082,3.951172 -0.83399,1.339844 -2.46778,1.339844 -1.63379,0 -2.467771,-1.339844 -0.833984,-1.339844 -0.833984,-3.951172 0,-2.618164 0.833984,-3.9580075 0.833981,-1.3398437 2.467771,-1.3398437 z"
           style="font-size:14px;font-family:monospace;stroke:none"
           id="path6682" />
        <path
           d="m 109.36426,12.982447 q 0,-0.375977 0.25976,-0.649414 0.26661,-0.273438 0.63575,-0.273438 0.38281,0 0.65625,0.273438 0.27343,0.273437 0.27343,0.649414 0,0.382812 -0.27343,0.649414 -0.26661,0.266601 -0.65625,0.266601 -0.38282,0 -0.64258,-0.259765 -0.25293,-0.259766 -0.25293,-0.65625 z m 0.90918,-4.1699222 q -0.96387,0 -1.44239,1.0390625 -0.47167,1.0390627 -0.47167,3.1650387 0,2.119141 0.47167,3.158203 0.47852,1.039063 1.44239,1.039063 0.9707,0 1.44238,-1.039063 0.47852,-1.039062 0.47852,-3.158203 0,-2.125976 -0.47852,-3.1650387 -0.47168,-1.0390625 -1.44238,-1.0390625 z m 0,-1.09375 q 1.63379,0 2.46777,1.3398437 0.84082,1.3398435 0.84082,3.9580075 0,2.611328 -0.84082,3.951172 -0.83398,1.339844 -2.46777,1.339844 -1.63379,0 -2.46778,-1.339844 -0.83398,-1.339844 -0.83398,-3.951172 0,-2.618164 0.83398,-3.9580075 0.83399,-1.3398437 2.46778,-1.3398437 z"
           style="font-size:14px;font-family:monospace;stroke:none"
           id="path6684" />
        <path
           d="m 117.78613,12.982447 q 0,-0.375977 0.25977,-0.649414 0.2666,-0.273438 0.63574,-0.273438 0.38281,0 0.65625,0.273438 0.27344,0.273437 0.27344,0.649414 0,0.382812 -0.27344,0.649414 -0.2666,0.266601 -0.65625,0.266601 -0.38281,0 -0.64258,-0.259765 -0.25293,-0.259766 -0.25293,-0.65625 z m 0.90918,-4.1699222 q -0.96386,0 -1.44238,1.0390625 -0.47168,1.0390627 -0.47168,3.1650387 0,2.119141 0.47168,3.158203 0.47852,1.039063 1.44238,1.039063 0.97071,0 1.44239,-1.039063 0.47851,-1.039062 0.47851,-3.158203 0,-2.125976 -0.47851,-3.1650387 -0.47168,-1.0390625 -1.44239,-1.0390625 z m 0,-1.09375 q 1.63379,0 2.46778,1.3398437 0.84082,1.3398435 0.84082,3.9580075 0,2.611328 -0.84082,3.951172 -0.83399,1.339844 -2.46778,1.339844 -1.63379,0 -2.46777,-1.339844 -0.83399,-1.339844 -0.83399,-3.951172 0,-2.618164 0.83399,-3.9580075 0.83398,-1.3398437 2.46777,-1.3398437 z"
           style="font-size:14px;font-family:monospace;stroke:none"
           id="path6686" />
        <path
           d="m 125.33984,13.713892 3.56153,0 0,1.121094 -3.56153,0 0,-1.121094 z"
           style="font-size:14px;font-family:monospace;stroke:none"
           id="path6688" />
        <path
           d="m 139.22363,12.032251 q -0.40332,-0.314453 -0.82031,-0.458007 -0.41699,-0.143555 -0.91602,-0.143555 -1.17578,0 -1.79785,0.738281 -0.62207,0.738281 -0.62207,2.132813 l 0,3.807617 -1.26465,0 0,-7.65625 1.26465,0 0,1.49707 q 0.31446,-0.813476 0.96387,-1.244141 0.65625,-0.4375 1.55176,-0.4375 0.46484,0 0.86816,0.116211 0.40332,0.116211 0.77246,0.362305 l 0,1.285156 z"
           style="font-size:14px;font-family:monospace;stroke:none"
           id="path6690" />
        <path
           d="m 143.94727,8.2793217 0,2.1738283 2.85742,0 0,0.977539 -2.85742,0 0,4.15625 q 0,0.847656 0.32128,1.182617 0.32129,0.334961 1.1211,0.334961 l 1.41504,0 0,1.004883 -1.53809,0 q -1.41504,0 -1.99609,-0.567383 -0.58106,-0.567383 -0.58106,-1.955078 l 0,-4.15625 -2.04394,0 0,-0.977539 2.04394,0 0,-2.1738283 1.25782,0 z"
           style="font-size:14px;font-family:monospace;stroke:none"
           id="path6692" />
        <path
           d="m 150.55078,7.4863529 1.09375,0 q 1.03223,1.6132813 1.53809,3.1582031 0.50586,1.544922 0.50586,3.069336 0,1.538086 -0.50586,3.083008 -0.50586,1.544922 -1.53809,3.158203 l -1.09375,0 q 0.90918,-1.585938 1.35352,-3.137695 0.45117,-1.551758 0.45117,-3.103516 0,-1.558594 -0.45117,-3.110352 -0.44434,-1.5517574 -1.35352,-3.1171871 z"
           style="font-size:14px;font-family:monospace;stroke:none"
           id="path6694" />
      </g>
      <g
         clip-path="url(#clipPath3)"
         style="font-size:14px;font-family:monospace;stroke:none"
         id="text5735">
        <path
           d="m 12.827148,44.996067 0,1.189453 q -0.512695,0.40332 -1.004882,0.594727 -0.485352,0.18457 -1.025391,0.18457 -0.615234,0 -1.3876953,-0.348633 -0.1503906,-0.06836 -0.2255859,-0.0957 -0.5263672,-0.225586 -0.881836,-0.307617 -0.3486328,-0.08203 -0.6972656,-0.08203 -0.5400391,0 -1.0253906,0.205078 -0.4785157,0.198242 -0.9775391,0.628906 l 0,-1.189453 q 0.5332031,-0.410156 1.0322266,-0.594727 0.4990234,-0.18457 1.0664062,-0.18457 0.3623047,0 0.7041016,0.0752 0.3417969,0.0752 0.8476562,0.28711 0.082031,0.03418 0.225586,0.102539 0.7929689,0.375976 1.4287109,0.375976 0.478516,0 0.943359,-0.205078 0.47168,-0.211914 0.977539,-0.635742 z"
           style="font-size:14px;font-family:monospace;stroke:none"
           id="path6697" />
        <path
           d="m 25.917969,45.802708 q 0.881836,0 1.380859,-0.635743 0.505859,-0.635742 0.505859,-1.756835 0,-1.121094 -0.505859,-1.756836 -0.499023,-0.635743 -1.380859,-0.635743 -0.916016,0 -1.38086,0.608399 -0.464843,0.601562 -0.464843,1.78418 0,1.189453 0.458007,1.791015 0.464844,0.601563 1.387696,0.601563 z m -2.460938,4.313476 0,-1.271484 q 0.430664,0.25293 0.916016,0.389648 0.485351,0.129883 1.011719,0.129883 1.3125,0 1.982421,-0.984375 0.676758,-0.991211 0.676758,-2.912109 -0.321289,0.683593 -0.902343,1.052734 -0.581055,0.362305 -1.333008,0.362305 -1.476563,0 -2.290039,-0.90918 -0.806641,-0.90918 -0.806641,-2.577148 0,-1.647461 0.827148,-2.549805 0.833985,-0.90918 2.351563,-0.90918 1.777344,0 2.604492,1.278321 0.827149,1.27832 0.827149,4.019531 0,2.577148 -0.998047,3.9375 -0.991211,1.353515 -2.884766,1.353515 -0.499023,0 -1.004883,-0.109375 -0.505859,-0.102539 -0.977539,-0.300781 z"
           style="font-size:14px;font-family:monospace;stroke:none"
           id="path6699" />
        <path
           d="m 34.339844,45.802708 q 0.881836,0 1.380859,-0.635743 0.505859,-0.635742 0.505859,-1.756835 0,-1.121094 -0.505859,-1.756836 -0.499023,-0.635743 -1.380859,-0.635743 -0.916016,0 -1.38086,0.608399 -0.464843,0.601562 -0.464843,1.78418 0,1.189453 0.458007,1.791015 0.464844,0.601563 1.387696,0.601563 z m -2.460938,4.313476 0,-1.271484 q 0.430664,0.25293 0.916016,0.389648 0.485351,0.129883 1.011719,0.129883 1.3125,0 1.982421,-0.984375 0.676758,-0.991211 0.676758,-2.912109 -0.321289,0.683593 -0.902343,1.052734 -0.581055,0.362305 -1.333008,0.362305 -1.476563,0 -2.290039,-0.90918 -0.806641,-0.90918 -0.806641,-2.577148 0,-1.647461 0.827148,-2.549805 0.833985,-0.90918 2.351563,-0.90918 1.777344,0 2.604492,1.278321 0.827149,1.27832 0.827149,4.019531 0,2.577148 -0.998047,3.9375 -0.991211,1.353515 -2.884766,1.353515 -0.499023,0 -1.004883,-0.109375 -0.505859,-0.102539 -0.977539,-0.300781 z"
           style="font-size:14px;font-family:monospace;stroke:none"
           id="path6701" />
        <path
           d="m 43.992187,44.866184 q 1.004883,0.266602 1.538086,0.950196 0.533204,0.676757 0.533204,1.695312 0,1.408203 -0.950196,2.214844 -0.943359,0.799804 -2.618164,0.799804 -0.704101,0 -1.435547,-0.129882 -0.731445,-0.129883 -1.435547,-0.375977 l 0,-1.374023 q 0.697266,0.362304 1.374024,0.540039 0.676758,0.177734 1.34668,0.177734 1.134765,0 1.743164,-0.512695 0.608398,-0.512696 0.608398,-1.476563 0,-0.888672 -0.608398,-1.408203 -0.608399,-0.526367 -1.647461,-0.526367 l -1.052735,0 0,-1.134766 1.052735,0 q 0.950195,0 1.483398,-0.416992 0.533203,-0.416992 0.533203,-1.162109 0,-0.786133 -0.499023,-1.203125 -0.492188,-0.423828 -1.408203,-0.423828 -0.608399,0 -1.257813,0.136718 -0.649414,0.136719 -1.360351,0.410157 l 0,-1.271485 q 0.827148,-0.21875 1.469726,-0.328125 0.649414,-0.109375 1.148438,-0.109375 1.490234,0 2.378906,0.751953 0.895508,0.745118 0.895508,1.982422 0,0.840821 -0.47168,1.401367 -0.464844,0.560547 -1.360352,0.792969 z"
           style="font-size:14px;font-family:monospace;stroke:none"
           id="path6703" />
        <path
           d="m 50.411133,45.201145 q 0,-0.375976 0.259765,-0.649414 0.266602,-0.273437 0.635743,-0.273437 0.382812,0 0.65625,0.273437 0.273437,0.273438 0.273437,0.649414 0,0.382813 -0.273437,0.649414 -0.266602,0.266602 -0.65625,0.266602 -0.382813,0 -0.642579,-0.259766 -0.252929,-0.259765 -0.252929,-0.65625 z m 0.909179,-4.169922 q -0.963867,0 -1.442382,1.039063 -0.47168,1.039062 -0.47168,3.165039 0,2.11914 0.47168,3.158203 0.478515,1.039062 1.442382,1.039062 0.970704,0 1.442383,-1.039062 0.478516,-1.039063 0.478516,-3.158203 0,-2.125977 -0.478516,-3.165039 -0.471679,-1.039063 -1.442383,-1.039063 z m 0,-1.09375 q 1.63379,0 2.467774,1.339844 0.84082,1.339844 0.84082,3.958008 0,2.611328 -0.84082,3.951172 -0.833984,1.339843 -2.467774,1.339843 -1.633789,0 -2.467773,-1.339843 -0.833984,-1.339844 -0.833984,-3.951172 0,-2.618164 0.833984,-3.958008 0.833984,-1.339844 2.467773,-1.339844 z"
           style="font-size:14px;font-family:monospace;stroke:none"
           id="path6705" />
        <path
           d="m 58.833008,45.201145 q 0,-0.375976 0.259765,-0.649414 0.266602,-0.273437 0.635743,-0.273437 0.382812,0 0.65625,0.273437 0.273437,0.273438 0.273437,0.649414 0,0.382813 -0.273437,0.649414 -0.266602,0.266602 -0.65625,0.266602 -0.382813,0 -0.642579,-0.259766 -0.252929,-0.259765 -0.252929,-0.65625 z m 0.909179,-4.169922 q -0.963867,0 -1.442382,1.039063 -0.47168,1.039062 -0.47168,3.165039 0,2.11914 0.47168,3.158203 0.478515,1.039062 1.442382,1.039062 0.970704,0 1.442383,-1.039062 0.478516,-1.039063 0.478516,-3.158203 0,-2.125977 -0.478516,-3.165039 -0.471679,-1.039063 -1.442383,-1.039063 z m 0,-1.09375 q 1.63379,0 2.467774,1.339844 0.84082,1.339844 0.84082,3.958008 0,2.611328 -0.84082,3.951172 -0.833984,1.339843 -2.467774,1.339843 -1.633789,0 -2.467773,-1.339843 -0.833984,-1.339844 -0.833984,-3.951172 0,-2.618164 0.833984,-3.958008 0.833984,-1.339844 2.467773,-1.339844 z"
           style="font-size:14px;font-family:monospace;stroke:none"
           id="path6707" />
        <path
           d="m 67.254883,45.201145 q 0,-0.375976 0.259765,-0.649414 0.266602,-0.273437 0.635743,-0.273437 0.382812,0 0.65625,0.273437 0.273437,0.273438 0.273437,0.649414 0,0.382813 -0.273437,0.649414 -0.266602,0.266602 -0.65625,0.266602 -0.382813,0 -0.642579,-0.259766 -0.252929,-0.259765 -0.252929,-0.65625 z m 0.909179,-4.169922 q -0.963867,0 -1.442382,1.039063 -0.47168,1.039062 -0.47168,3.165039 0,2.11914 0.47168,3.158203 0.478515,1.039062 1.442382,1.039062 0.970704,0 1.442383,-1.039062 0.478516,-1.039063 0.478516,-3.158203 0,-2.125977 -0.478516,-3.165039 -0.471679,-1.039063 -1.442383,-1.039063 z m 0,-1.09375 q 1.63379,0 2.467774,1.339844 0.84082,1.339844 0.84082,3.958008 0,2.611328 -0.84082,3.951172 -0.833984,1.339843 -2.467774,1.339843 -1.633789,0 -2.467773,-1.339843 -0.833984,-1.339844 -0.833984,-3.951172 0,-2.618164 0.833984,-3.958008 0.833984,-1.339844 2.467773,-1.339844 z"
           style="font-size:14px;font-family:monospace;stroke:none"
           id="path6709" />
        <path
           d="m 82.129883,47.429661 0,-4.744141 1.257812,0 0,4.744141 q 0,1.032226 0.362305,1.517578 0.369141,0.485351 1.134766,0.485351 0.888671,0 1.360351,-0.62207 0.47168,-0.628906 0.47168,-1.797851 l 0,-4.327149 1.264648,0 0,7.642578 -1.264648,0 0,-1.148437 q -0.334961,0.663086 -0.916016,1.004883 -0.574219,0.341796 -1.346679,0.341796 -1.175782,0 -1.75,-0.765625 -0.574219,-0.77246 -0.574219,-2.331054 z"
           style="font-size:14px;font-family:monospace;stroke:none"
           id="path6711" />
        <path
           d="m 95.870117,42.93845 0,1.230469 q -0.540039,-0.314454 -1.086914,-0.47168 -0.546875,-0.157227 -1.114258,-0.157227 -0.854492,0 -1.27832,0.280274 -0.416992,0.273437 -0.416992,0.84082 0,0.512695 0.314453,0.765625 0.314453,0.25293 1.56543,0.492188 l 0.505859,0.0957 q 0.936523,0.177734 1.415039,0.710937 0.485352,0.533203 0.485352,1.387696 0,1.134765 -0.806641,1.777343 -0.806641,0.635742 -2.242188,0.635742 -0.567382,0 -1.189453,-0.123046 -0.62207,-0.116211 -1.346679,-0.355469 l 0,-1.298828 q 0.704101,0.362304 1.346679,0.546875 0.642578,0.177734 1.216797,0.177734 0.833985,0 1.291992,-0.334961 0.458008,-0.341797 0.458008,-0.950195 0,-0.875 -1.674804,-1.209961 l -0.05469,-0.01367 -0.47168,-0.0957 q -1.086914,-0.211914 -1.585937,-0.710938 -0.499024,-0.505859 -0.499024,-1.374023 0,-1.100586 0.745118,-1.695313 0.745117,-0.601562 2.125976,-0.601562 0.615235,0 1.182617,0.116211 0.567383,0.109375 1.114258,0.334961 z"
           style="font-size:14px;font-family:monospace;stroke:none"
           id="path6713" />
      </g>
    </g>
    <g
       fill="rgb(255,255,255)"
       fill-opacity="0"
       transform="translate(560,370)"
       stroke-opacity="0"
       stroke="rgb(255,255,255)"
       id="g5737">
      <path
         style="stroke:none"
         clip-path="url(#clipPath4)"
         d="M 0.5,0.5 79,0.5 79,29 0.5,29 Z"
         id="rect5739" />
    </g>
    <g
       transform="translate(560,370)"
       id="g5741">
      <path
         style="fill:none"
         clip-path="url(#clipPath4)"
         d="M 0.5,0.5 79,0.5 79,29 0.5,29 Z"
         id="rect5743" />
      <g
         clip-path="url(#clipPath4)"
         style="font-weight:bold;font-size:14px;font-family:monospace;stroke:none"
         id="text5745">
        <path
           d="m 22.716797,10.224623 0,2.173828 2.618164,0 0,1.538086 -2.618164,0 0,3.623047 q 0,0.512695 0.246094,0.738281 0.252929,0.21875 0.833984,0.21875 l 1.538086,0 0,1.538086 -1.681641,0 q -1.722656,0 -2.331054,-0.546875 -0.608399,-0.553711 -0.608399,-2.043945 l 0,-3.527344 -1.955078,0 0,-1.538086 1.955078,0 0,-2.173828 2.00293,0 z"
           style="font-weight:bold;font-size:14px;font-family:monospace;stroke:none"
           id="path6718" />
        <path
           d="m 29.306641,9.4179821 3.472656,0 0,1.2988279 -1.654297,0 0,9.884766 1.654297,0 0,1.298828 -3.472656,0 0,-12.4824219 z"
           style="font-weight:bold;font-size:14px;font-family:monospace;stroke:none"
           id="path6720" />
        <path
           d="m 35.9375,17.381849 0,-4.983398 2.00293,0 0,4.675781 q 0,0.827149 0.232422,1.182617 0.232421,0.355469 0.77246,0.355469 0.54004,0 0.840821,-0.478516 0.307617,-0.478515 0.307617,-1.339843 l 0,-4.395508 2.00293,0 0,7.65625 -2.00293,0 0,-1.134766 q -0.211914,0.635742 -0.724609,0.984375 -0.50586,0.348633 -1.223633,0.348633 -1.09375,0 -1.654297,-0.724609 Q 35.9375,18.803724 35.9375,17.381849 Z"
           style="font-weight:bold;font-size:14px;font-family:monospace;stroke:none"
           id="path6722" />
        <path
           d="m 50.040039,12.637709 0,1.75 q -0.553711,-0.355469 -1.155273,-0.533203 -0.594727,-0.184571 -1.196289,-0.184571 -0.669922,0 -1.011719,0.198242 -0.341797,0.191407 -0.341797,0.574219 0,0.546875 1.462891,0.888672 l 0.0752,0.02051 0.574219,0.136719 q 1.09375,0.259765 1.599609,0.84082 0.512695,0.574219 0.512695,1.558594 0,1.182617 -0.779297,1.777343 -0.772461,0.587891 -2.331054,0.587891 -0.69043,0 -1.415039,-0.123047 -0.72461,-0.116211 -1.469727,-0.355469 l 0,-1.75 q 0.663086,0.375977 1.34668,0.574219 0.690429,0.198242 1.333008,0.198242 0.704101,0 1.066406,-0.205078 0.362305,-0.205078 0.362305,-0.594726 0,-0.382813 -0.259766,-0.587891 -0.25293,-0.205078 -1.216797,-0.4375 l -0.553711,-0.123047 q -1.148437,-0.259765 -1.674805,-0.813476 -0.526367,-0.553711 -0.526367,-1.483399 0,-1.107422 0.799805,-1.722656 0.799805,-0.615234 2.249023,-0.615234 0.649414,0 1.291993,0.109375 0.649414,0.102539 1.257812,0.314453 z"
           style="font-weight:bold;font-size:14px;font-family:monospace;stroke:none"
           id="path6724" />
        <path
           d="m 57.231445,9.4179821 0,12.4824219 -3.472656,0 0,-1.298828 1.654297,0 0,-9.884766 -1.654297,0 0,-1.2988279 3.472656,0 z"
           style="font-weight:bold;font-size:14px;font-family:monospace;stroke:none"
           id="path6726" />
      </g>
    </g>
    <g
       fill="rgb(0,255,0)"
       fill-opacity="0.4902"
       transform="translate(270,320)"
       stroke-opacity="0.4902"
       stroke="rgb(0,255,0)"
       id="g5747">
      <path
         style="stroke:none"
         clip-path="url(#clipPath5)"
         d="M 0.5,0.5 189,0.5 189,19 0.5,19 Z"
         id="rect5749" />
    </g>
    <g
       transform="translate(270,320)"
       id="g5751">
      <path
         style="fill:none"
         clip-path="url(#clipPath5)"
         d="M 0.5,0.5 189,0.5 189,19 0.5,19 Z"
         id="rect5753" />
    </g>
    <g
       fill="rgb(255,255,255)"
       fill-opacity="0"
       transform="translate(400,370)"
       stroke-opacity="0"
       stroke="rgb(255,255,255)"
       id="g5755">
      <path
         style="stroke:none"
         clip-path="url(#clipPath6)"
         d="M 0.5,0.5 119,0.5 119,29 0.5,29 Z"
         id="rect5757" />
    </g>
    <g
       transform="translate(400,370)"
       id="g5759">
      <path
         style="fill:none"
         clip-path="url(#clipPath6)"
         d="M 0.5,0.5 119,0.5 119,29 0.5,29 Z"
         id="rect5761" />
      <g
         clip-path="url(#clipPath6)"
         style="font-weight:bold;font-size:14px;font-family:monospace;stroke:none"
         id="text5763">
        <path
           d="m 17.716797,10.224623 0,2.173828 2.618164,0 0,1.538086 -2.618164,0 0,3.623047 q 0,0.512695 0.246094,0.738281 0.252929,0.21875 0.833984,0.21875 l 1.538086,0 0,1.538086 -1.681641,0 q -1.722656,0 -2.331054,-0.546875 -0.608399,-0.553711 -0.608399,-2.043945 l 0,-3.527344 -1.955078,0 0,-1.538086 1.955078,0 0,-2.173828 2.00293,0 z"
           style="font-weight:bold;font-size:14px;font-family:monospace;stroke:none"
           id="path6733" />
        <path
           d="m 30.445312,16.417982 7.225586,0 0,1.620117 -7.225586,0 0,-1.620117 z m 0,-3.110351 7.225586,0 0,1.606445 -7.225586,0 0,-1.606445 z"
           style="font-weight:bold;font-size:14px;font-family:monospace;stroke:none"
           id="path6735" />
        <path
           d="m 47.972656,18.277357 2.25586,0 0,-6.624023 -2.098633,0.519531 0,-1.818359 2.112304,-0.5058598 1.948243,0 0,8.4287108 2.255859,0 0,1.777344 -6.473633,0 0,-1.777344 z"
           style="font-weight:bold;font-size:14px;font-family:monospace;stroke:none"
           id="path6737" />
        <path
           d="m 58.472656,14.961927 q 0,-0.362304 0.246094,-0.608398 0.246094,-0.246094 0.601562,-0.246094 0.362305,0 0.608399,0.246094 0.246094,0.246094 0.246094,0.608398 0,0.355469 -0.246094,0.601563 -0.246094,0.246094 -0.608399,0.246094 -0.355468,0 -0.601562,-0.239258 -0.246094,-0.246094 -0.246094,-0.608399 z m 0.847656,-3.588867 q -0.697265,0 -1.018554,0.854492 -0.321289,0.854493 -0.321289,2.734375 0,1.873047 0.321289,2.727539 0.321289,0.854493 1.018554,0.854493 0.704102,0 1.025391,-0.854493 0.321289,-0.854492 0.321289,-2.727539 0,-1.879882 -0.321289,-2.734375 -0.321289,-0.854492 -1.025391,-0.854492 z m -3.370117,3.588867 q 0,-2.652343 0.840821,-3.971679 0.84082,-1.3261721 2.529296,-1.3261721 1.695313,0 2.536133,1.3193361 0.840821,1.319336 0.840821,3.978515 0,2.652344 -0.840821,3.97168 -0.84082,1.319336 -2.536133,1.319336 -1.688476,0 -2.529296,-1.319336 -0.840821,-1.326172 -0.840821,-3.97168 z"
           style="font-weight:bold;font-size:14px;font-family:monospace;stroke:none"
           id="path6739" />
        <path
           d="m 66.894531,14.961927 q 0,-0.362304 0.246094,-0.608398 0.246094,-0.246094 0.601562,-0.246094 0.362305,0 0.608399,0.246094 0.246094,0.246094 0.246094,0.608398 0,0.355469 -0.246094,0.601563 -0.246094,0.246094 -0.608399,0.246094 -0.355468,0 -0.601562,-0.239258 -0.246094,-0.246094 -0.246094,-0.608399 z m 0.847656,-3.588867 q -0.697265,0 -1.018554,0.854492 -0.321289,0.854493 -0.321289,2.734375 0,1.873047 0.321289,2.727539 0.321289,0.854493 1.018554,0.854493 0.704102,0 1.025391,-0.854493 0.321289,-0.854492 0.321289,-2.727539 0,-1.879882 -0.321289,-2.734375 -0.321289,-0.854492 -1.025391,-0.854492 z m -3.370117,3.588867 q 0,-2.652343 0.840821,-3.971679 0.84082,-1.3261721 2.529296,-1.3261721 1.695313,0 2.536133,1.3193361 0.840821,1.319336 0.840821,3.978515 0,2.652344 -0.840821,3.97168 -0.84082,1.319336 -2.536133,1.319336 -1.688476,0 -2.529296,-1.319336 -0.840821,-1.326172 -0.840821,-3.97168 z"
           style="font-weight:bold;font-size:14px;font-family:monospace;stroke:none"
           id="path6741" />
        <path
           d="m 75.316406,14.961927 q 0,-0.362304 0.246094,-0.608398 0.246094,-0.246094 0.601562,-0.246094 0.362305,0 0.608399,0.246094 0.246094,0.246094 0.246094,0.608398 0,0.355469 -0.246094,0.601563 -0.246094,0.246094 -0.608399,0.246094 -0.355468,0 -0.601562,-0.239258 -0.246094,-0.246094 -0.246094,-0.608399 z m 0.847656,-3.588867 q -0.697265,0 -1.018554,0.854492 -0.321289,0.854493 -0.321289,2.734375 0,1.873047 0.321289,2.727539 0.321289,0.854493 1.018554,0.854493 0.704102,0 1.025391,-0.854493 0.321289,-0.854492 0.321289,-2.727539 0,-1.879882 -0.321289,-2.734375 -0.321289,-0.854492 -1.025391,-0.854492 z m -3.370117,3.588867 q 0,-2.652343 0.840821,-3.971679 0.84082,-1.3261721 2.529296,-1.3261721 1.695313,0 2.536133,1.3193361 0.840821,1.319336 0.840821,3.978515 0,2.652344 -0.840821,3.97168 -0.84082,1.319336 -2.536133,1.319336 -1.688476,0 -2.529296,-1.319336 -0.840821,-1.326172 -0.840821,-3.97168 z"
           style="font-weight:bold;font-size:14px;font-family:monospace;stroke:none"
           id="path6743" />
        <path
           d="m 83.738281,14.961927 q 0,-0.362304 0.246094,-0.608398 0.246094,-0.246094 0.601562,-0.246094 0.362305,0 0.608399,0.246094 0.246094,0.246094 0.246094,0.608398 0,0.355469 -0.246094,0.601563 -0.246094,0.246094 -0.608399,0.246094 -0.355468,0 -0.601562,-0.239258 -0.246094,-0.246094 -0.246094,-0.608399 z m 0.847656,-3.588867 q -0.697265,0 -1.018554,0.854492 -0.321289,0.854493 -0.321289,2.734375 0,1.873047 0.321289,2.727539 0.321289,0.854493 1.018554,0.854493 0.704102,0 1.025391,-0.854493 0.321289,-0.854492 0.321289,-2.727539 0,-1.879882 -0.321289,-2.734375 -0.321289,-0.854492 -1.025391,-0.854492 z m -3.370117,3.588867 q 0,-2.652343 0.840821,-3.971679 0.84082,-1.3261721 2.529296,-1.3261721 1.695313,0 2.536133,1.3193361 0.840821,1.319336 0.840821,3.978515 0,2.652344 -0.840821,3.97168 -0.84082,1.319336 -2.536133,1.319336 -1.688476,0 -2.529296,-1.319336 -0.840821,-1.326172 -0.840821,-3.97168 z"
           style="font-weight:bold;font-size:14px;font-family:monospace;stroke:none"
           id="path6745" />
        <path
           d="m 92.160156,14.961927 q 0,-0.362304 0.246094,-0.608398 0.246094,-0.246094 0.601562,-0.246094 0.362305,0 0.608399,0.246094 0.246094,0.246094 0.246094,0.608398 0,0.355469 -0.246094,0.601563 -0.246094,0.246094 -0.608399,0.246094 -0.355468,0 -0.601562,-0.239258 -0.246094,-0.246094 -0.246094,-0.608399 z m 0.847656,-3.588867 q -0.697265,0 -1.018554,0.854492 -0.321289,0.854493 -0.321289,2.734375 0,1.873047 0.321289,2.727539 0.321289,0.854493 1.018554,0.854493 0.704102,0 1.025391,-0.854493 0.321289,-0.854492 0.321289,-2.727539 0,-1.879882 -0.321289,-2.734375 -0.321289,-0.854492 -1.025391,-0.854492 z m -3.370117,3.588867 q 0,-2.652343 0.840821,-3.971679 0.84082,-1.3261721 2.529296,-1.3261721 1.695313,0 2.536133,1.3193361 0.840821,1.319336 0.840821,3.978515 0,2.652344 -0.840821,3.97168 -0.84082,1.319336 -2.536133,1.319336 -1.688476,0 -2.529296,-1.319336 -0.840821,-1.326172 -0.840821,-3.97168 z"
           style="font-weight:bold;font-size:14px;font-family:monospace;stroke:none"
           id="path6747" />
        <path
           d="m 100.58203,14.961927 q 0,-0.362304 0.2461,-0.608398 0.24609,-0.246094 0.60156,-0.246094 0.3623,0 0.6084,0.246094 0.24609,0.246094 0.24609,0.608398 0,0.355469 -0.24609,0.601563 -0.2461,0.246094 -0.6084,0.246094 -0.35547,0 -0.60156,-0.239258 -0.2461,-0.246094 -0.2461,-0.608399 z m 0.84766,-3.588867 q -0.69727,0 -1.01856,0.854492 -0.32129,0.854493 -0.32129,2.734375 0,1.873047 0.32129,2.727539 0.32129,0.854493 1.01856,0.854493 0.7041,0 1.02539,-0.854493 0.32129,-0.854492 0.32129,-2.727539 0,-1.879882 -0.32129,-2.734375 -0.32129,-0.854492 -1.02539,-0.854492 z m -3.37012,3.588867 q 0,-2.652343 0.840821,-3.971679 0.84082,-1.3261721 2.529299,-1.3261721 1.69531,0 2.53613,1.3193361 0.84082,1.319336 0.84082,3.978515 0,2.652344 -0.84082,3.97168 -0.84082,1.319336 -2.53613,1.319336 -1.688479,0 -2.529299,-1.319336 -0.840821,-1.326172 -0.840821,-3.97168 z"
           style="font-weight:bold;font-size:14px;font-family:monospace;stroke:none"
           id="path6749" />
      </g>
    </g>
    <g
       fill="rgb(255,0,0)"
       fill-opacity="0.4902"
       transform="translate(150,320)"
       stroke-opacity="0.4902"
       stroke="rgb(255,0,0)"
       id="g5765">
      <path
         style="stroke:none"
         clip-path="url(#clipPath7)"
         d="M 0.5,0.5 119,0.5 119,19 0.5,19 Z"
         id="rect5767" />
    </g>
    <g
       transform="translate(150,320)"
       id="g5769">
      <path
         style="fill:none"
         clip-path="url(#clipPath7)"
         d="M 0.5,0.5 119,0.5 119,19 0.5,19 Z"
         id="rect5771" />
    </g>
    <g
       fill="rgb(255,255,255)"
       fill-opacity="0"
       transform="translate(110,370)"
       stroke-opacity="0"
       stroke="rgb(255,255,255)"
       id="g5773">
      <path
         style="stroke:none"
         clip-path="url(#clipPath4)"
         d="M 0.5,0.5 79,0.5 79,29 0.5,29 Z"
         id="rect5775" />
    </g>
    <g
       transform="translate(110,370)"
       id="g5777">
      <path
         style="fill:none"
         clip-path="url(#clipPath4)"
         d="M 0.5,0.5 79,0.5 79,29 0.5,29 Z"
         id="rect5779" />
      <g
         clip-path="url(#clipPath4)"
         style="font-weight:bold;font-size:14px;font-family:monospace;stroke:none"
         id="text5781">
        <path
           d="m 22.716797,10.224623 0,2.173828 2.618164,0 0,1.538086 -2.618164,0 0,3.623047 q 0,0.512695 0.246094,0.738281 0.252929,0.21875 0.833984,0.21875 l 1.538086,0 0,1.538086 -1.681641,0 q -1.722656,0 -2.331054,-0.546875 -0.608399,-0.553711 -0.608399,-2.043945 l 0,-3.527344 -1.955078,0 0,-1.538086 1.955078,0 0,-2.173828 2.00293,0 z"
           style="font-weight:bold;font-size:14px;font-family:monospace;stroke:none"
           id="path6756" />
        <path
           d="m 35.445312,16.417982 7.225586,0 0,1.620117 -7.225586,0 0,-1.620117 z m 0,-3.110351 7.225586,0 0,1.606445 -7.225586,0 0,-1.606445 z"
           style="font-weight:bold;font-size:14px;font-family:monospace;stroke:none"
           id="path6758" />
        <path
           d="m 55.050781,14.961927 q 0,-0.362304 0.246094,-0.608398 0.246094,-0.246094 0.601562,-0.246094 0.362305,0 0.608399,0.246094 0.246094,0.246094 0.246094,0.608398 0,0.355469 -0.246094,0.601563 -0.246094,0.246094 -0.608399,0.246094 -0.355468,0 -0.601562,-0.239258 -0.246094,-0.246094 -0.246094,-0.608399 z m 0.847656,-3.588867 q -0.697265,0 -1.018554,0.854492 -0.321289,0.854493 -0.321289,2.734375 0,1.873047 0.321289,2.727539 0.321289,0.854493 1.018554,0.854493 0.704102,0 1.025391,-0.854493 0.321289,-0.854492 0.321289,-2.727539 0,-1.879882 -0.321289,-2.734375 -0.321289,-0.854492 -1.025391,-0.854492 z m -3.370117,3.588867 q 0,-2.652343 0.840821,-3.971679 0.84082,-1.3261721 2.529296,-1.3261721 1.695313,0 2.536133,1.3193361 0.840821,1.319336 0.840821,3.978515 0,2.652344 -0.840821,3.97168 -0.84082,1.319336 -2.536133,1.319336 -1.688476,0 -2.529296,-1.319336 -0.840821,-1.326172 -0.840821,-3.97168 z"
           style="font-weight:bold;font-size:14px;font-family:monospace;stroke:none"
           id="path6760" />
      </g>
    </g>
    <g
       font-family="monospace"
       font-size="14"
       transform="translate(350,240)"
       id="g5783">
      <path
         fill="none"
         d="M10.5 10.5 L10.5 50.5"
         clip-path="url(#clipPath8)"
         id="path5785" />
    </g>
    <g
       font-family="monospace"
       font-size="14"
       transform="translate(260,270)"
       id="g5787">
      <path
         fill="none"
         d="M10.5 20.5 L200.5 20.5"
         clip-path="url(#clipPath9)"
         id="path5789" />
    </g>
    <g
       font-family="monospace"
       font-size="14"
       transform="translate(450,270)"
       id="g5791">
      <path
         fill="none"
         d="M10.5 10.5 L10.5 80.5"
         clip-path="url(#clipPath10)"
         id="path5793" />
    </g>
    <g
       font-family="monospace"
       font-size="14"
       transform="translate(200,240)"
       id="g5795">
      <path
         fill="none"
         d="M10.5 10.5 L10.5 50.5"
         clip-path="url(#clipPath8)"
         id="path5797" />
    </g>
    <g
       font-family="monospace"
       font-size="14"
       transform="translate(140,270)"
       id="g5799">
      <path
         fill="none"
         d="M10.5 20.5 L130.5 20.5"
         clip-path="url(#clipPath11)"
         id="path5801" />
    </g>
    <g
       font-family="monospace"
       font-size="14"
       transform="translate(140,270)"
       id="g5803">
      <path
         fill="none"
         d="M10.5 10.5 L10.5 80.5"
         clip-path="url(#clipPath10)"
         id="path5805" />
    </g>
    <g
       font-family="monospace"
       font-size="14"
       transform="translate(260,270)"
       id="g5807">
      <path
         fill="none"
         d="M10.5 10.5 L10.5 80.5"
         clip-path="url(#clipPath10)"
         id="path5809" />
    </g>
    <g
       font-family="monospace"
       font-size="14"
       transform="translate(590,320)"
       id="g5811">
      <path
         fill="none"
         d="M10.5 10.5 L10.5 50.5"
         clip-path="url(#clipPath8)"
         id="path5813" />
    </g>
    <g
       font-family="monospace"
       font-size="14"
       transform="translate(450,320)"
       id="g5815">
      <path
         fill="none"
         d="M10.5 10.5 L10.5 50.5"
         clip-path="url(#clipPath8)"
         id="path5817" />
    </g>
    <g
       font-family="monospace"
       font-size="14"
       transform="translate(450,300)"
       id="g5819">
      <path
         fill="none"
         d="M10.5 10.5 L10.5 50.5"
         clip-path="url(#clipPath8)"
         id="path5821" />
    </g>
    <g
       font-family="monospace"
       font-size="14"
       transform="translate(140,320)"
       id="g5823">
      <path
         fill="none"
         d="M10.5 10.5 L10.5 50.5"
         clip-path="url(#clipPath8)"
         id="path5825" />
    </g>
    <g
       font-family="monospace"
       font-size="14"
       transform="translate(140,300)"
       id="g5827">
      <path
         fill="none"
         d="M10.5 10.5 L10.5 50.5"
         clip-path="url(#clipPath8)"
         id="path5829" />
    </g>
    <g
       transform="translate(120,320)"
       id="g5831">
      <path
         fill="none"
         d="M10.5 10.5 L480.5 10.5"
         clip-path="url(#clipPath12)"
         id="path5833" />
      <path
         fill="none"
         d="M469.2417 17 L480.5 10.5 L469.2417 4"
         clip-path="url(#clipPath12)"
         id="path5835" />
    </g>
  </g>
</svg>
