<?xml version="1.0" encoding="UTF-8" standalone="no"?>
<!-- Created with Inkscape (http://www.inkscape.org/) -->

<svg
   xmlns:dc="http://purl.org/dc/elements/1.1/"
   xmlns:cc="http://creativecommons.org/ns#"
   xmlns:rdf="http://www.w3.org/1999/02/22-rdf-syntax-ns#"
   xmlns:svg="http://www.w3.org/2000/svg"
   xmlns="http://www.w3.org/2000/svg"
   xmlns:sodipodi="http://sodipodi.sourceforge.net/DTD/sodipodi-0.dtd"
   xmlns:inkscape="http://www.inkscape.org/namespaces/inkscape"
   width="145.62666mm"
   height="22.910801mm"
   viewBox="0 0 515.99999 81.180003"
   id="svg2"
   version="1.1"
   inkscape:version="0.91 r13725"
   sodipodi:docname="meas.svg">
  <defs
     id="defs4" />
  <sodipodi:namedview
     id="base"
     pagecolor="#ffffff"
     bordercolor="#666666"
     borderopacity="1.0"
     inkscape:pageopacity="0.0"
     inkscape:pageshadow="2"
     inkscape:zoom="1.979899"
     inkscape:cx="206.58167"
     inkscape:cy="33.542395"
     inkscape:document-units="px"
     inkscape:current-layer="layer1"
     showgrid="false"
     inkscape:window-width="1920"
     inkscape:window-height="986"
     inkscape:window-x="0"
     inkscape:window-y="27"
     inkscape:window-maximized="1"
     fit-margin-top="0"
     fit-margin-left="0"
     fit-margin-right="0"
     fit-margin-bottom="0" />
  <metadata
     id="metadata7">
    <rdf:RDF>
      <cc:Work
         rdf:about="">
        <dc:format>image/svg+xml</dc:format>
        <dc:type
           rdf:resource="http://purl.org/dc/dcmitype/StillImage" />
        <dc:title></dc:title>
      </cc:Work>
    </rdf:RDF>
  </metadata>
  <g
     inkscape:label="Layer 1"
     inkscape:groupmode="layer"
     id="layer1"
     transform="translate(-10,-351.50577)">
    <g
       style="font-style:normal;font-weight:normal;font-size:40px;line-height:125%;font-family:sans-serif;letter-spacing:0px;word-spacing:0px;fill:#000000;fill-opacity:1;stroke:none;stroke-width:1px;stroke-linecap:butt;stroke-linejoin:miter;stroke-opacity:1"
       id="text4136">
      <path
         d="m 115.12,351.50577 q 8.46,0 15.66,3.24 7.38,3.06 12.96,8.64 5.58,5.4 8.64,12.78 3.24,7.2 3.24,15.66 l 0,40.5 -16.02,0 0,-40.5 q 0,-5.04 -1.98,-9.36 -1.8,-4.5 -5.22,-7.74 -3.24,-3.42 -7.74,-5.22 -4.5,-1.98 -9.54,-1.98 -5.04,0 -9.54,1.98 -4.32,1.8 -7.74,5.22 -3.24,3.24 -5.22,7.74 -1.8,4.32 -1.8,9.36 l 0,40.5 -16.02,0 0,-40.5 q 0,-5.04 -1.98,-9.36 -1.8,-4.5 -5.22,-7.74 -3.24,-3.42 -7.74,-5.22 -4.5,-1.98 -9.54,-1.98 -5.04,0 -9.54,1.98 -4.32,1.8 -7.74,5.22 -3.24,3.24 -5.22,7.74 -1.8,4.32 -1.8,9.36 l 0,40.5 -16.02,0 0,-40.5 q 0,-8.46 3.06,-15.66 3.24,-7.38 8.64,-12.78 5.58,-5.58 12.96,-8.64 7.38,-3.24 15.66,-3.24 10.08,0 18.36,4.5 8.46,4.32 14.04,11.88 5.58,-7.56 14.04,-11.88 8.46,-4.5 18.36,-4.5 z"
         style="font-style:normal;font-variant:normal;font-weight:normal;font-stretch:normal;font-size:180px;font-family:REZ;-inkscape-font-specification:REZ"
         id="path4170"
         inkscape:connector-curvature="0" />
      <path
         d="m 224.36031,403.88577 11.34,11.34 -5.58,5.58 q -5.76,5.76 -13.14,8.82 -7.38,3.06 -15.48,3.06 -8.1,0 -15.48,-3.06 -7.38,-3.06 -13.14,-8.82 -5.94,-5.94 -8.82,-13.32 -2.88,-7.56 -2.88,-15.3 0,-7.74 2.88,-15.12 2.88,-7.38 8.82,-13.32 5.94,-5.94 13.32,-8.82 7.56,-3.06 15.3,-3.06 7.74,0 15.12,3.06 7.56,2.88 13.5,8.82 l 5.58,5.58 -44.82,44.82 q 6.84,3.42 14.4,2.34 7.74,-1.26 13.5,-7.02 l 5.58,-5.58 z m -40.14,-28.98 q -7.2,7.2 -7.2,17.28 0,5.58 2.52,10.62 2.16,-2.16 6.48,-6.48 4.5,-4.5 9.36,-9.36 5.04,-5.04 9.54,-9.54 4.68,-4.5 7.2,-7.02 -6.84,-3.42 -14.58,-2.34 -7.56,1.08 -13.32,6.84 z"
         style="font-style:normal;font-variant:normal;font-weight:normal;font-stretch:normal;font-size:180px;font-family:REZ;-inkscape-font-specification:REZ"
         id="path4172"
         inkscape:connector-curvature="0" />
      <path
         d="m 281.47656,351.50577 q 8.46,0 15.66,3.24 7.38,3.06 12.78,8.64 5.58,5.4 8.64,12.78 3.24,7.2 3.24,15.66 l 0,40.5 -40.32,0 q -8.28,0 -15.66,-3.06 -7.38,-3.24 -12.96,-8.82 -5.58,-5.58 -8.82,-12.96 -3.06,-7.38 -3.06,-15.66 0,-8.46 3.06,-15.66 3.24,-7.38 8.82,-12.78 5.58,-5.58 12.96,-8.64 7.38,-3.24 15.66,-3.24 z m 24.3,64.8 0,-24.48 q 0,-5.04 -1.98,-9.36 -1.8,-4.5 -5.22,-7.74 -3.24,-3.42 -7.74,-5.22 -4.32,-1.98 -9.36,-1.98 -5.04,0 -9.54,1.98 -4.5,1.8 -7.92,5.22 -3.24,3.24 -5.22,7.74 -1.8,4.32 -1.8,9.36 0,5.04 1.8,9.54 1.98,4.5 5.22,7.92 3.42,3.24 7.92,5.22 4.5,1.8 9.54,1.8 l 24.3,0 z"
         style="font-style:normal;font-variant:normal;font-weight:normal;font-stretch:normal;font-size:180px;font-family:REZ;-inkscape-font-specification:REZ"
         id="path4174"
         inkscape:connector-curvature="0" />
      <path
         d="m 399.30625,351.50577 0,16.02 -48.78,0 q -3.42,0 -5.76,2.34 -2.34,2.34 -2.34,5.76 0,3.42 2.34,5.94 2.34,2.34 5.76,2.34 l 32.4,0 q 5.04,0 9.36,1.98 4.5,1.8 7.74,5.04 3.42,3.24 5.22,7.74 1.98,4.32 1.98,9.36 0,5.04 -1.98,9.54 -1.8,4.32 -5.22,7.74 -3.24,3.24 -7.74,5.22 -4.32,1.8 -9.36,1.8 l -48.6,0 0,-16.02 48.6,0 q 3.6,0 5.94,-2.34 2.34,-2.34 2.34,-5.94 0,-3.42 -2.34,-5.76 -2.34,-2.34 -5.94,-2.34 l -32.4,0 q -5.04,0 -9.54,-1.8 -4.32,-1.98 -7.56,-5.22 -3.24,-3.42 -5.22,-7.74 -1.8,-4.5 -1.8,-9.54 0,-5.04 1.8,-9.36 1.98,-4.5 5.22,-7.74 3.24,-3.24 7.56,-5.04 4.5,-1.98 9.54,-1.98 l 48.78,0 z"
         style="font-style:normal;font-variant:normal;font-weight:normal;font-stretch:normal;font-size:180px;font-family:REZ;-inkscape-font-specification:REZ"
         id="path4176"
         inkscape:connector-curvature="0" />
    </g>
    <path
       style="fill:#000000;fill-opacity:1;stroke:none;stroke-width:1.25;stroke-linecap:butt;stroke-miterlimit:4;stroke-dasharray:none;stroke-opacity:1"
       d="m 414.74537,395.03619 14.50925,0 c 0.41294,0 0.74538,0.33244 0.74538,0.74538 l 0,35.78525 c 0,0.41294 -0.33244,0.74537 -0.74538,0.74537 l -14.50925,0 c -0.41293,0 -0.74537,-0.33243 -0.74537,-0.74537 l 0,-35.78525 c 0,-0.41294 0.33244,-0.74538 0.74537,-0.74538 z"
       id="rect4140"
       inkscape:connector-curvature="0" />
    <path
       style="fill:#000000;fill-opacity:1;stroke:none;stroke-width:1.25;stroke-linecap:butt;stroke-miterlimit:4;stroke-dasharray:none;stroke-opacity:1"
       d="m 438.74537,395.03619 14.50925,0 c 0.41294,0 0.74538,0.33244 0.74538,0.74538 l 0,35.78525 c 0,0.41294 -0.33244,0.74537 -0.74538,0.74537 l -14.50925,0 c -0.41293,0 -0.74537,-0.33243 -0.74537,-0.74537 l 0,-35.78525 c 0,-0.41294 0.33244,-0.74538 0.74537,-0.74538 z"
       id="rect4142"
       inkscape:connector-curvature="0" />
    <path
       style="fill:#000000;fill-opacity:1;stroke:none;stroke-width:1.25;stroke-linecap:butt;stroke-miterlimit:4;stroke-dasharray:none;stroke-opacity:1"
       d="m 462.74537,367.53452 14.50925,0 c 0.41294,0 0.74538,0.33243 0.74538,0.74537 l 0,63.28483 c 0,0.41294 -0.33244,0.74538 -0.74538,0.74538 l -14.50925,0 c -0.41293,0 -0.74537,-0.33244 -0.74537,-0.74538 l 0,-63.28483 c 0,-0.41294 0.33244,-0.74537 0.74537,-0.74537 z"
       id="rect4144"
       inkscape:connector-curvature="0" />
    <path
       style="fill:#000000;fill-opacity:1;stroke:none;stroke-width:1.25;stroke-linecap:butt;stroke-miterlimit:4;stroke-dasharray:none;stroke-opacity:1"
       d="m 486.74537,395.03619 14.50925,0 c 0.41294,0 0.74538,0.33244 0.74538,0.74538 l 0,35.78525 c 0,0.41294 -0.33244,0.74537 -0.74538,0.74537 l -14.50925,0 c -0.41293,0 -0.74537,-0.33243 -0.74537,-0.74537 l 0,-35.78525 c 0,-0.41294 0.33244,-0.74538 0.74537,-0.74538 z"
       id="rect4146"
       inkscape:connector-curvature="0" />
    <path
       style="fill:#000000;fill-opacity:1;stroke:none;stroke-width:1.25;stroke-linecap:butt;stroke-miterlimit:4;stroke-dasharray:none;stroke-opacity:1"
       d="m 510.74537,395.03619 14.50925,0 c 0.41294,0 0.74538,0.33244 0.74538,0.74538 l 0,35.78525 c 0,0.41294 -0.33244,0.74537 -0.74538,0.74537 l -14.50925,0 c -0.41293,0 -0.74537,-0.33243 -0.74537,-0.74537 l 0,-35.78525 c 0,-0.41294 0.33244,-0.74538 0.74537,-0.74538 z"
       id="rect4148"
       inkscape:connector-curvature="0" />
  </g>
</svg>
