<?xml version="1.0" encoding="UTF-8" standalone="no"?>
<!-- Created with Inkscape (http://www.inkscape.org/) -->

<svg
   xmlns:dc="http://purl.org/dc/elements/1.1/"
   xmlns:cc="http://creativecommons.org/ns#"
   xmlns:rdf="http://www.w3.org/1999/02/22-rdf-syntax-ns#"
   xmlns:svg="http://www.w3.org/2000/svg"
   xmlns="http://www.w3.org/2000/svg"
   xmlns:sodipodi="http://sodipodi.sourceforge.net/DTD/sodipodi-0.dtd"
   xmlns:inkscape="http://www.inkscape.org/namespaces/inkscape"
   width="115.85406mm"
   height="19.07609mm"
   viewBox="0 0 410.50651 67.592444"
   id="svg4808"
   version="1.1"
   inkscape:version="0.91 r13725"
   sodipodi:docname="shck.svg">
  <defs
     id="defs4810">
    <inkscape:path-effect
       effect="spiro"
       id="path-effect4138"
       is_visible="true" />
  </defs>
  <sodipodi:namedview
     id="base"
     pagecolor="#ffffff"
     bordercolor="#666666"
     borderopacity="1.0"
     inkscape:pageopacity="0.0"
     inkscape:pageshadow="2"
     inkscape:zoom="1.979899"
     inkscape:cx="177.2559"
     inkscape:cy="66.59447"
     inkscape:document-units="px"
     inkscape:current-layer="layer1"
     showgrid="false"
     inkscape:window-width="1920"
     inkscape:window-height="986"
     inkscape:window-x="0"
     inkscape:window-y="27"
     inkscape:window-maximized="1"
     fit-margin-top="0"
     fit-margin-left="0"
     fit-margin-right="0"
     fit-margin-bottom="0" />
  <metadata
     id="metadata4813">
    <rdf:RDF>
      <cc:Work
         rdf:about="">
        <dc:format>image/svg+xml</dc:format>
        <dc:type
           rdf:resource="http://purl.org/dc/dcmitype/StillImage" />
        <dc:title></dc:title>
      </cc:Work>
    </rdf:RDF>
  </metadata>
  <g
     inkscape:label="Layer 1"
     inkscape:groupmode="layer"
     id="layer1"
     transform="translate(-186.9495,-478.48227)">
    <g
       style="font-style:normal;font-weight:normal;font-size:21.31813812px;line-height:125%;font-family:sans-serif;letter-spacing:0px;word-spacing:0px;fill:#000000;fill-opacity:1;stroke:none;stroke-width:5;stroke-linecap:butt;stroke-linejoin:miter;stroke-miterlimit:4;stroke-dasharray:none;stroke-opacity:1"
       id="text5362">
      <path
         d="m 304.10921,509.21036 -26.7934,0 q 0.28104,-1.03051 0.28104,-1.9205 0,-3.70049 -5.2931,-3.70049 -7.7757,0 -7.7757,4.54364 0,2.95102 8.99358,4.54363 14.33354,2.57629 17.8935,4.12207 7.30729,3.18522 7.30729,9.41516 0,1.63946 -0.46841,3.41944 -4.40312,16.4414 -38.08223,16.4414 -30.91547,0 -30.02548,-16.81614 l 26.7934,0 q -0.28104,0.98368 -0.28104,1.82683 0,3.79417 5.80835,3.79417 8.15045,0 8.15045,-4.54364 0,-2.90418 -8.99359,-4.49679 -14.19301,-2.52945 -17.8935,-4.12207 -7.30729,-3.13838 -7.30729,-9.41516 0,-1.59261 0.46842,-3.41944 4.44995,-16.48824 38.12907,-16.48824 29.97863,0 29.08864,16.81613 z"
         style="font-style:normal;font-variant:normal;font-weight:normal;font-stretch:normal;font-size:95.93161774px;font-family:'Infinite Justice';-inkscape-font-specification:'Infinite Justice';fill:#000000;stroke:none;stroke-width:5;stroke-miterlimit:4;stroke-dasharray:none;stroke-opacity:1"
         id="path4179" />
      <path
         d="m 360.45967,545.6063 -23.93607,0 9.13412,-34.05386 q 0.5621,-2.01418 0.5621,-3.51312 0,-4.44995 -4.73101,-4.44995 -6.37046,0 -8.52517,8.00992 l -9.13411,34.00701 -23.98291,0 17.98718,-67.07719 23.9829,0 -4.30942,16.16036 q 5.62099,-2.2484 15.3172,-2.2484 17.37824,0 17.37824,13.44354 0,3.46628 -1.21788,7.86939 l -8.52517,31.8523 z"
         style="font-style:normal;font-variant:normal;font-weight:normal;font-stretch:normal;font-size:95.93161774px;font-family:'Infinite Justice';-inkscape-font-specification:'Infinite Justice';fill:#000000;stroke:none;stroke-width:5;stroke-miterlimit:4;stroke-dasharray:none;stroke-opacity:1"
         id="path4181" />
      <path
         d="m 439.80935,526.82281 q -8.75938,19.2519 -39.67484,19.2519 -29.41653,0 -29.46337,-17.42508 0,-3.32575 1.07735,-7.21361 l 1.1242,-4.35627 q 6.60467,-24.63868 41.59535,-24.63868 29.46338,0 29.46338,17.37824 0,0.88999 -0.0469,1.77998 l -28.19865,0 q 0.51526,-2.01419 0.51526,-3.51312 0,-4.44996 -4.731,-4.44996 -6.32362,0 -8.43149,7.96308 l -4.07522,15.22352 q -0.5621,2.01419 -0.5621,3.46628 0,4.49679 4.731,4.49679 6.32362,0 8.47833,-7.96307 l 28.19865,0 z"
         style="font-style:normal;font-variant:normal;font-weight:normal;font-stretch:normal;font-size:95.93161774px;font-family:'Infinite Justice';-inkscape-font-specification:'Infinite Justice';fill:#000000;stroke:none;stroke-width:5;stroke-miterlimit:4;stroke-dasharray:none;stroke-opacity:1"
         id="path4183" />
      <path
         d="m 500.0945,545.6063 -23.98291,0 -7.21361,-20.46979 -5.43362,20.42294 -23.98291,0 17.94034,-67.03034 23.9829,-0.0468 -8.15044,30.49389 14.66143,-16.06668 23.9829,0 -21.87503,23.98291 10.07095,28.71391 z"
         style="font-style:normal;font-variant:normal;font-weight:normal;font-stretch:normal;font-size:95.93161774px;font-family:'Infinite Justice';-inkscape-font-specification:'Infinite Justice';fill:#000000;stroke:none;stroke-width:5;stroke-miterlimit:4;stroke-dasharray:none;stroke-opacity:1"
         id="path4185" />
    </g>
    <path
       transform="matrix(1,0,-0.25823327,0.96608259,0,0)"
       style="fill:#000000;fill-opacity:1;stroke:none;stroke-width:5;stroke-linecap:butt;stroke-miterlimit:4;stroke-dasharray:none;stroke-opacity:1"
       d="m 652.89019,510.18796 10.20736,0 c 0.0757,0 0.13671,0.061 0.13671,0.13671 l 0,54.27891 c 0,0.0757 -0.061,0.13671 -0.13671,0.13671 l -10.20736,0 c -0.0757,0 -0.13671,-0.061 -0.13671,-0.13671 l 0,-54.27891 c 0,-0.0757 0.061,-0.13671 0.13671,-0.13671 z"
       id="rect4140" />
    <path
       transform="matrix(1,0,-0.27061437,0.96268783,0,0)"
       style="fill:#000000;fill-opacity:1;stroke:none;stroke-width:5;stroke-linecap:butt;stroke-miterlimit:4;stroke-dasharray:none;stroke-opacity:1"
       d="m 698.0196,511.98706 19.96066,0 c 0.1481,0 0.26734,0.11924 0.26734,0.26734 l 0,54.21002 c 0,0.14811 -0.11924,0.26735 -0.26734,0.26735 l -19.96066,0 c -0.14811,0 -0.26734,-0.11924 -0.26734,-0.26735 l 0,-54.21002 c 0,-0.1481 0.11923,-0.26734 0.26734,-0.26734 z"
       id="rect4144" />
    <path
       transform="matrix(1,0,-0.25823327,0.96608259,0,0)"
       style="fill:#000000;fill-opacity:1;stroke:none;stroke-width:5;stroke-linecap:butt;stroke-miterlimit:4;stroke-dasharray:none;stroke-opacity:1"
       d="m 672.89019,510.18796 10.20736,0 c 0.0757,0 0.13671,0.061 0.13671,0.13671 l 0,54.27891 c 0,0.0757 -0.061,0.13671 -0.13671,0.13671 l -10.20736,0 c -0.0757,0 -0.13671,-0.061 -0.13671,-0.13671 l 0,-54.27891 c 0,-0.0757 0.061,-0.13671 0.13671,-0.13671 z"
       id="rect4168" />
    <path
       transform="matrix(1,0,-0.25823327,0.96608259,0,0)"
       style="fill:#000000;fill-opacity:1;stroke:none;stroke-width:5;stroke-linecap:butt;stroke-miterlimit:4;stroke-dasharray:none;stroke-opacity:1"
       d="m 718.89019,510.18796 10.20736,0 c 0.0757,0 0.13671,0.061 0.13671,0.13671 l 0,54.27891 c 0,0.0757 -0.061,0.13671 -0.13671,0.13671 l -10.20736,0 c -0.0757,0 -0.13671,-0.061 -0.13671,-0.13671 l 0,-54.27891 c 0,-0.0757 0.061,-0.13671 0.13671,-0.13671 z"
       id="rect4170" />
    <path
       transform="matrix(1,0,-0.25823327,0.96608259,0,0)"
       style="fill:#000000;fill-opacity:1;stroke:none;stroke-width:5;stroke-linecap:butt;stroke-miterlimit:4;stroke-dasharray:none;stroke-opacity:1"
       d="m 332.89019,510.18796 10.20736,0 c 0.0757,0 0.13671,0.061 0.13671,0.13671 l 0,54.27891 c 0,0.0757 -0.061,0.13671 -0.13671,0.13671 l -10.20736,0 c -0.0757,0 -0.13671,-0.061 -0.13671,-0.13671 l 0,-54.27891 c 0,-0.0757 0.061,-0.13671 0.13671,-0.13671 z"
       id="rect4174" />
    <path
       transform="matrix(1,0,-0.25823327,0.96608259,0,0)"
       style="fill:#000000;fill-opacity:1;stroke:none;stroke-width:5;stroke-linecap:butt;stroke-miterlimit:4;stroke-dasharray:none;stroke-opacity:1"
       d="m 352.89019,510.18796 10.20736,0 c 0.0757,0 0.13671,0.061 0.13671,0.13671 l 0,54.27891 c 0,0.0757 -0.061,0.13671 -0.13671,0.13671 l -10.20736,0 c -0.0757,0 -0.13671,-0.061 -0.13671,-0.13671 l 0,-54.27891 c 0,-0.0757 0.061,-0.13671 0.13671,-0.13671 z"
       id="rect4176" />
  </g>
</svg>
