<?xml version="1.0" encoding="UTF-8" standalone="no"?>
<!-- Created with Inkscape (http://www.inkscape.org/) -->

<svg
   xmlns:dc="http://purl.org/dc/elements/1.1/"
   xmlns:cc="http://creativecommons.org/ns#"
   xmlns:rdf="http://www.w3.org/1999/02/22-rdf-syntax-ns#"
   xmlns:svg="http://www.w3.org/2000/svg"
   xmlns="http://www.w3.org/2000/svg"
   xmlns:sodipodi="http://sodipodi.sourceforge.net/DTD/sodipodi-0.dtd"
   xmlns:inkscape="http://www.inkscape.org/namespaces/inkscape"
   width="150.6245mm"
   height="141.02859mm"
   viewBox="0 0 533.70885 499.70762"
   id="svg4808"
   version="1.1"
   inkscape:version="0.91 r13725"
   sodipodi:docname="shck.svg">
  <defs
     id="defs4810" />
  <sodipodi:namedview
     id="base"
     pagecolor="#ffffff"
     bordercolor="#666666"
     borderopacity="1.0"
     inkscape:pageopacity="0.0"
     inkscape:pageshadow="2"
     inkscape:zoom="0.98994949"
     inkscape:cx="-136.41952"
     inkscape:cy="272.27295"
     inkscape:document-units="px"
     inkscape:current-layer="layer1"
     showgrid="false"
     inkscape:window-width="1920"
     inkscape:window-height="986"
     inkscape:window-x="0"
     inkscape:window-y="27"
     inkscape:window-maximized="1"
     fit-margin-top="0"
     fit-margin-left="0"
     fit-margin-right="0"
     fit-margin-bottom="0" />
  <metadata
     id="metadata4813">
    <rdf:RDF>
      <cc:Work
         rdf:about="">
        <dc:format>image/svg+xml</dc:format>
        <dc:type
           rdf:resource="http://purl.org/dc/dcmitype/StillImage" />
        <dc:title />
      </cc:Work>
    </rdf:RDF>
  </metadata>
  <g
     inkscape:label="Layer 1"
     inkscape:groupmode="layer"
     id="layer1"
     transform="translate(-105.19283,-264.32729)">
    <path
       inkscape:connector-curvature="0"
       id="path5061"
       style="fill:#000000"
       d="M 319.19187,264.32729 257.68607,527.80467 345.93403,503.5771 220.24668,764.03492 551.84781,409.69063 423.48663,424.83346 498.36351,267.34664 Z" />
    <g
       style="font-style:normal;font-weight:normal;font-size:40px;line-height:125%;font-family:sans-serif;letter-spacing:0px;word-spacing:0px;fill:#000000;fill-opacity:1;stroke:#ffffff;stroke-width:5;stroke-linecap:butt;stroke-linejoin:miter;stroke-miterlimit:4;stroke-dasharray:none;stroke-opacity:1"
       id="text5362">
      <path
         d="m 246.51885,520.42426 -50.27344,0 q 0.52735,-1.9336 0.52735,-3.60352 0,-6.94336 -9.93164,-6.94336 -14.58985,0 -14.58985,8.52539 0,5.53711 16.875,8.52539 26.89454,4.83399 33.57422,7.73438 13.71094,5.97656 13.71094,17.66601 0,3.07617 -0.87891,6.41602 -8.26171,30.84961 -71.45507,30.84961 -58.00782,0 -56.33789,-31.55274 l 50.27343,0 q -0.52734,1.84571 -0.52734,3.42774 0,7.11914 10.89844,7.11914 15.29297,0 15.29297,-8.52539 0,-5.44922 -16.875,-8.4375 -26.63086,-4.7461 -33.57422,-7.73438 -13.71094,-5.88867 -13.71094,-17.66601 0,-2.98828 0.87891,-6.41602 8.3496,-30.9375 71.54296,-30.9375 56.25,0 54.58008,31.55274 z"
         style="font-style:normal;font-variant:normal;font-weight:normal;font-stretch:normal;font-size:180px;font-family:'Infinite Justice';-inkscape-font-specification:'Infinite Justice';fill:#000000;stroke:#ffffff;stroke-width:5;stroke-miterlimit:4;stroke-dasharray:none;stroke-opacity:1"
         id="path4137" />
      <path
         d="m 352.25127,588.71527 -44.91211,0 17.13868,-63.89648 q 1.05468,-3.7793 1.05468,-6.5918 0,-8.34961 -8.87695,-8.34961 -11.95312,0 -15.99609,15.0293 l -17.13867,63.80859 -45,0 33.75,-125.85937 45,0 -8.08594,30.32226 q 10.54687,-4.21875 28.74023,-4.21875 32.60742,0 32.60742,25.22461 0,6.50391 -2.28515,14.76563 l -15.9961,59.76562 z"
         style="font-style:normal;font-variant:normal;font-weight:normal;font-stretch:normal;font-size:180px;font-family:'Infinite Justice';-inkscape-font-specification:'Infinite Justice';fill:#000000;stroke:#ffffff;stroke-width:5;stroke-miterlimit:4;stroke-dasharray:none;stroke-opacity:1"
         id="path4139" />
      <path
         d="m 501.13799,553.47113 q -16.43554,36.12305 -74.44336,36.12305 -55.19531,0 -55.2832,-32.69532 0,-6.24023 2.02148,-13.53515 l 2.10938,-8.17383 q 12.39258,-46.23047 78.04687,-46.23047 55.28321,0 55.28321,32.60742 0,1.66993 -0.0879,3.33985 l -52.91016,0 q 0.9668,-3.7793 0.9668,-6.5918 0,-8.34961 -8.87696,-8.34961 -11.86523,0 -15.82031,14.94141 l -7.64648,28.56445 q -1.05469,3.7793 -1.05469,6.50391 0,8.4375 8.87695,8.4375 11.86524,0 15.90821,-14.94141 l 52.91015,0 z"
         style="font-style:normal;font-variant:normal;font-weight:normal;font-stretch:normal;font-size:180px;font-family:'Infinite Justice';-inkscape-font-specification:'Infinite Justice';fill:#000000;stroke:#ffffff;stroke-width:5;stroke-miterlimit:4;stroke-dasharray:none;stroke-opacity:1"
         id="path4141" />
      <path
         d="m 614.25323,588.71527 -45,0 -13.53516,-38.4082 -10.19531,38.32031 -45,0 33.66211,-125.77148 45,-0.0879 -15.29297,57.21679 27.50976,-30.14648 45,0 -41.04492,45 18.89649,53.87695 z"
         style="font-style:normal;font-variant:normal;font-weight:normal;font-stretch:normal;font-size:180px;font-family:'Infinite Justice';-inkscape-font-specification:'Infinite Justice';fill:#000000;stroke:#ffffff;stroke-width:5;stroke-miterlimit:4;stroke-dasharray:none;stroke-opacity:1"
         id="path4143" />
    </g>
  </g>
</svg>
